<?xml version="1.0" encoding="utf-8"?>
<!-- Generator: Adobe Illustrator 25.2.1, SVG Export Plug-In . SVG Version: 6.00 Build 0)  -->
<svg version="1.1" id="Layer_1" xmlns="http://www.w3.org/2000/svg" xmlns:xlink="http://www.w3.org/1999/xlink" x="0px" y="0px"
	 viewBox="0 0 1000 1000" style="enable-background:new 0 0 1000 1000;" xml:space="preserve">
<style type="text/css">
	.st0{fill:url(#SVGID_1_);}
	.st1{fill:url(#SVGID_2_);}
	.st2{fill:url(#SVGID_3_);}
	.st3{fill:url(#SVGID_4_);}
	.st4{fill:url(#SVGID_5_);}
	.st5{fill:url(#SVGID_6_);}
	.st6{fill:url(#SVGID_7_);}
	.st7{fill:url(#SVGID_8_);}
	.st8{fill:url(#SVGID_9_);}
	.st9{fill:url(#SVGID_10_);}
	.st10{fill:url(#SVGID_11_);}
	.st11{fill:url(#SVGID_12_);}
	.st12{fill:url(#SVGID_13_);}
	.st13{fill-rule:evenodd;clip-rule:evenodd;fill:url(#path1872-7_1_);}
	.st14{fill-rule:evenodd;clip-rule:evenodd;fill:url(#path2784-4_1_);}
	.st15{fill-rule:evenodd;clip-rule:evenodd;fill:url(#path2790-0_1_);}
	.st16{fill-rule:evenodd;clip-rule:evenodd;fill:url(#path2796-9_1_);}
	.st17{fill-rule:evenodd;clip-rule:evenodd;fill:url(#path2802-4_1_);}
	.st18{fill-rule:evenodd;clip-rule:evenodd;fill:url(#path2808-8_1_);}
	.st19{fill-rule:evenodd;clip-rule:evenodd;fill:url(#path2814-8_1_);}
	.st20{fill-rule:evenodd;clip-rule:evenodd;fill:url(#path2820-2_1_);}
	.st21{fill-rule:evenodd;clip-rule:evenodd;fill:url(#path2826-4_1_);}
	.st22{fill-rule:evenodd;clip-rule:evenodd;fill:url(#path2832-5_1_);}
	.st23{fill-rule:evenodd;clip-rule:evenodd;fill:url(#path2838-5_1_);}
	.st24{fill-rule:evenodd;clip-rule:evenodd;fill:url(#path2844-1_1_);}
	.st25{fill-rule:evenodd;clip-rule:evenodd;fill:url(#path2850-7_1_);}
	.st26{fill-rule:evenodd;clip-rule:evenodd;fill:url(#path2856-1_1_);}
	.st27{fill-rule:evenodd;clip-rule:evenodd;fill:url(#path2862-1_1_);}
	.st28{fill-rule:evenodd;clip-rule:evenodd;fill:url(#path2868-5_1_);}
	.st29{fill-rule:evenodd;clip-rule:evenodd;fill:url(#path2874-2_1_);}
	.st30{fill-rule:evenodd;clip-rule:evenodd;fill:url(#path1872_1_);}
	.st31{fill-rule:evenodd;clip-rule:evenodd;fill:url(#path2784_1_);}
	.st32{fill-rule:evenodd;clip-rule:evenodd;fill:url(#path2790_1_);}
	.st33{fill-rule:evenodd;clip-rule:evenodd;fill:url(#path2796_1_);}
	.st34{fill-rule:evenodd;clip-rule:evenodd;fill:url(#path2802_1_);}
	.st35{fill-rule:evenodd;clip-rule:evenodd;fill:url(#path2808_1_);}
	.st36{fill-rule:evenodd;clip-rule:evenodd;fill:url(#path2814_1_);}
	.st37{fill-rule:evenodd;clip-rule:evenodd;fill:url(#path2820_1_);}
	.st38{fill-rule:evenodd;clip-rule:evenodd;fill:url(#path2826_1_);}
	.st39{fill-rule:evenodd;clip-rule:evenodd;fill:url(#path2832_1_);}
	.st40{fill-rule:evenodd;clip-rule:evenodd;fill:url(#path2838_1_);}
	.st41{fill-rule:evenodd;clip-rule:evenodd;fill:url(#path2844_1_);}
	.st42{fill-rule:evenodd;clip-rule:evenodd;fill:url(#path2850_1_);}
	.st43{fill-rule:evenodd;clip-rule:evenodd;fill:url(#path2856_1_);}
	.st44{fill-rule:evenodd;clip-rule:evenodd;fill:url(#path2862_1_);}
	.st45{fill-rule:evenodd;clip-rule:evenodd;fill:url(#path2868_1_);}
	.st46{fill-rule:evenodd;clip-rule:evenodd;fill:url(#path2874_1_);}
	.st47{fill:url(#path3042_1_);}
	.st48{fill:url(#SVGID_14_);}
	.st49{fill:url(#SVGID_15_);}
	.st50{fill:url(#SVGID_16_);}
	.st51{fill:url(#SVGID_17_);}
	.st52{fill:url(#SVGID_18_);}
	.st53{fill:url(#SVGID_19_);}
</style>
<g>
	<g>
		<g>
			<radialGradient id="SVGID_1_" cx="499.9994" cy="388.091" r="628.9272" gradientUnits="userSpaceOnUse">
				<stop  offset="0" style="stop-color:#231F20"/>
				<stop  offset="0.3161" style="stop-color:#1F1C1C"/>
				<stop  offset="0.6216" style="stop-color:#141112"/>
				<stop  offset="0.9227" style="stop-color:#000000"/>
				<stop  offset="0.9243" style="stop-color:#000000"/>
			</radialGradient>
			<path class="st0" d="M499.4,34.7c-1.6,0-80.2,5.1-289.1,192.7c-7.2,58.5-30.1,310.4,85.3,455.9
				c101.2,127.5,173.8,201.6,204.5,231.3c41.1-41.1,115.5-119.3,204.3-231.3c115.3-145.4,92.5-397.3,85.3-455.9
				c-136.5-66.6,33.2-76.7-289.1-192.7L500,10L499.4,34.7z"/>
		</g>
		<radialGradient id="SVGID_2_" cx="500" cy="500" r="434.1551" gradientUnits="userSpaceOnUse">
			<stop  offset="0" style="stop-color:#999999"/>
			<stop  offset="0.615" style="stop-color:#EFEFEF"/>
			<stop  offset="0.9542" style="stop-color:#EBEBEB"/>
			<stop  offset="1" style="stop-color:#EAEAEA"/>
		</radialGradient>
		<path class="st1" d="M489.3,988c-13.9-15.7-27.3-32.1-39.8-48.9l-86.8-116.9c-115-154.8-179.4-304.8-202.5-472.1l-16.6-120.5
			l50.5-27.4c13.4-7.3,22.9-20,25.9-35c7.5-36.9,34.4-67.1,70.1-78.8l28.2-9.3c10-3.3,18.8-10.4,24.7-20
			c16-26.1,43.5-44.5,75.3-50.5l14.3-2.6C454.9,2,477.5,0,500,0c22.5,0,45.1,2,67.3,6.1L583.1,9c30.6,5.8,57.5,24.2,74,50.6
			c5.9,9.4,15,16.5,25.5,20l27.2,8.9c35.7,11.7,62.6,41.9,70.1,78.8c3,15,12.5,27.7,25.9,35l50.5,27.4l-16.6,120.5
			c-23.1,167.3-87.4,317.3-202.5,472.1L550.4,939c-12.5,16.8-25.9,33.3-39.8,48.9l-10.7,12L489.3,988z M231.9,340.2
			c21.7,156.9,79.9,292.3,188.9,438.9L500,885.8l79.3-106.7c109-146.6,167.2-282,188.9-438.9l9.8-70.9l-6.5-3.5
			c-32.4-17.6-55.1-48.4-62.4-84.5c-2.2-11.2-10.6-20.5-21.8-24.1l-27.2-8.9c-26.5-8.7-49.2-26.5-64-50.1
			c-6-9.5-15.4-16.1-25.8-18.1L500,66.7l-69.7,13.2c-10.7,2-20.2,8.5-26,17.8c-15,23.8-37.7,41.7-63.8,50.3l-27.7,9.1
			c-11.1,3.6-19.5,13-21.8,24.5c-7.5,36.1-30.2,66.8-62.3,84.2l-6.5,3.5L231.9,340.2z"/>
		<radialGradient id="SVGID_3_" cx="499.9994" cy="497.4732" r="422.5261" gradientUnits="userSpaceOnUse">
			<stop  offset="0" style="stop-color:#EFEFEF"/>
			<stop  offset="0.2041" style="stop-color:#EBEBEB"/>
			<stop  offset="0.4018" style="stop-color:#DFDFDF"/>
			<stop  offset="0.5969" style="stop-color:#CCCCCC"/>
			<stop  offset="0.7892" style="stop-color:#B1B1B1"/>
			<stop  offset="0.9243" style="stop-color:#999999"/>
		</radialGradient>
		<path class="st2" d="M801.1,211c-16-8.7-27.3-23.9-30.9-41.7c-6.8-33.4-31.1-60.7-63.5-71.3L679.5,89
			c-12.8-4.2-23.7-12.8-30.8-24.2c-15-24-39.5-40.8-67.3-46l-15.9-2.9c-43.3-7.9-87.6-7.9-130.9,0l-14.3,2.6
			c-28.2,5.4-53.6,21.5-68.6,45.9c-7,11.3-17.4,20.1-30.1,24.2l-28.2,9.3c-32.4,10.6-56.7,38-63.5,71.3
			c-3.6,17.8-14.9,33.1-30.9,41.7l-44.5,24.1l15.7,113.7C194.6,526,264,672.6,370.7,816.2l86.8,116.9c12.4,16.6,25.5,32.7,39.2,48.3
			l3.2,3.6l3.2-3.6c13.8-15.5,26.8-31.6,39.2-48.3l86.8-116.9C736,672.6,805.4,526,829.8,348.7l15.7-113.7L801.1,211z M778,341.6
			C754.7,510.2,688.8,648.4,587.3,785L500,902.5L412.7,785C311.2,648.4,245.3,510.2,222,341.6l-10.7-77.8l12.6-6.8
			c29.6-16.1,50.4-44.5,57.3-77.5c3.1-14.9,14-27.1,28.5-31.9l27.7-9.1c24.3-8,44.9-24.5,58.5-46.1c7.3-11.6,19.2-19.7,32.6-22.2
			L500,56.6l72,13.7c13.5,2.6,25.1,10.9,32.4,22.5c13.6,21.6,34.4,37.9,58.7,45.9l27.2,8.9c14.4,4.7,25.5,16.8,28.4,31.7
			c6.6,33.2,27.6,61.6,57.3,77.7l12.6,6.8L778,341.6z"/>
	</g>
	<g>
		<radialGradient id="SVGID_4_" cx="499.9994" cy="691.7805" r="44.9182" gradientUnits="userSpaceOnUse">
			<stop  offset="0" style="stop-color:#FFF48D"/>
			<stop  offset="0.1171" style="stop-color:#FFF189"/>
			<stop  offset="0.2306" style="stop-color:#FEE67D"/>
			<stop  offset="0.3425" style="stop-color:#FDD56A"/>
			<stop  offset="0.4529" style="stop-color:#FCBD4F"/>
			<stop  offset="0.5027" style="stop-color:#FBB040"/>
		</radialGradient>
		<polygon class="st3" points="500,720.6 471.6,735.6 477,703.9 454,681.4 485.8,676.8 500,648 514.2,676.8 546,681.4 523,703.9 
			528.4,735.6 		"/>
		<radialGradient id="SVGID_5_" cx="499.9993" cy="692.8549" r="34.4707" gradientUnits="userSpaceOnUse">
			<stop  offset="0" style="stop-color:#EFEFEF"/>
			<stop  offset="0.2041" style="stop-color:#EBEBEB"/>
			<stop  offset="0.4018" style="stop-color:#DFDFDF"/>
			<stop  offset="0.5969" style="stop-color:#CCCCCC"/>
			<stop  offset="0.7892" style="stop-color:#B1B1B1"/>
			<stop  offset="0.9243" style="stop-color:#999999"/>
		</radialGradient>
		<polygon class="st4" points="500,659.3 510.9,681.4 535.3,684.9 517.7,702.1 521.8,726.5 500,715 478.2,726.5 482.3,702.1 
			464.7,684.9 489.1,681.4 		"/>
	</g>
	<g>
		<radialGradient id="SVGID_6_" cx="583.4314" cy="653.9121" r="27.4592" gradientUnits="userSpaceOnUse">
			<stop  offset="0" style="stop-color:#FFF48D"/>
			<stop  offset="0.1171" style="stop-color:#FFF189"/>
			<stop  offset="0.2306" style="stop-color:#FEE67D"/>
			<stop  offset="0.3425" style="stop-color:#FDD56A"/>
			<stop  offset="0.4529" style="stop-color:#FCBD4F"/>
			<stop  offset="0.5027" style="stop-color:#FBB040"/>
		</radialGradient>
		<polygon class="st5" points="583.4,671.5 566,680.7 569.4,661.3 555.3,647.6 574.7,644.8 583.4,627.2 592.1,644.8 611.6,647.6 
			597.5,661.3 600.8,680.7 		"/>
		<radialGradient id="SVGID_7_" cx="583.4313" cy="654.5689" r="21.0725" gradientUnits="userSpaceOnUse">
			<stop  offset="0" style="stop-color:#EFEFEF"/>
			<stop  offset="0.2041" style="stop-color:#EBEBEB"/>
			<stop  offset="0.4018" style="stop-color:#DFDFDF"/>
			<stop  offset="0.5969" style="stop-color:#CCCCCC"/>
			<stop  offset="0.7892" style="stop-color:#B1B1B1"/>
			<stop  offset="0.9243" style="stop-color:#999999"/>
		</radialGradient>
		<polygon class="st6" points="583.4,634 590.1,647.6 605,649.7 594.2,660.2 596.8,675.1 583.4,668.1 570.1,675.1 572.6,660.2 
			561.8,649.7 576.8,647.6 		"/>
	</g>
	<g>
		<radialGradient id="SVGID_8_" cx="415.4247" cy="653.9121" r="27.4592" gradientUnits="userSpaceOnUse">
			<stop  offset="0" style="stop-color:#FFF48D"/>
			<stop  offset="0.1171" style="stop-color:#FFF189"/>
			<stop  offset="0.2306" style="stop-color:#FEE67D"/>
			<stop  offset="0.3425" style="stop-color:#FDD56A"/>
			<stop  offset="0.4529" style="stop-color:#FCBD4F"/>
			<stop  offset="0.5027" style="stop-color:#FBB040"/>
		</radialGradient>
		<polygon class="st7" points="415.4,671.5 398,680.7 401.4,661.3 387.3,647.6 406.7,644.8 415.4,627.2 424.1,644.8 443.6,647.6 
			429.5,661.3 432.8,680.7 		"/>
		<radialGradient id="SVGID_9_" cx="415.4246" cy="654.5689" r="21.0725" gradientUnits="userSpaceOnUse">
			<stop  offset="0" style="stop-color:#EFEFEF"/>
			<stop  offset="0.2041" style="stop-color:#EBEBEB"/>
			<stop  offset="0.4018" style="stop-color:#DFDFDF"/>
			<stop  offset="0.5969" style="stop-color:#CCCCCC"/>
			<stop  offset="0.7892" style="stop-color:#B1B1B1"/>
			<stop  offset="0.9243" style="stop-color:#999999"/>
		</radialGradient>
		<polygon class="st8" points="415.4,634 422.1,647.6 437,649.7 426.2,660.2 428.8,675.1 415.4,668.1 402.1,675.1 404.6,660.2 
			393.8,649.7 408.8,647.6 		"/>
	</g>
	<g>
		<radialGradient id="SVGID_10_" cx="635.2325" cy="228.7208" r="15.284" gradientUnits="userSpaceOnUse">
			<stop  offset="0" style="stop-color:#FFF48D"/>
			<stop  offset="0.1171" style="stop-color:#FFF189"/>
			<stop  offset="0.2306" style="stop-color:#FEE67D"/>
			<stop  offset="0.3425" style="stop-color:#FDD56A"/>
			<stop  offset="0.4529" style="stop-color:#FCBD4F"/>
			<stop  offset="0.5027" style="stop-color:#FBB040"/>
		</radialGradient>
		<polygon class="st9" points="635.2,238.5 625.6,243.6 627.4,232.8 619.6,225.2 630.4,223.6 635.2,213.8 640.1,223.6 650.9,225.2 
			643.1,232.8 644.9,243.6 		"/>
		<radialGradient id="SVGID_11_" cx="635.2324" cy="229.0864" r="11.7291" gradientUnits="userSpaceOnUse">
			<stop  offset="0" style="stop-color:#EFEFEF"/>
			<stop  offset="0.2041" style="stop-color:#EBEBEB"/>
			<stop  offset="0.4018" style="stop-color:#DFDFDF"/>
			<stop  offset="0.5969" style="stop-color:#CCCCCC"/>
			<stop  offset="0.7892" style="stop-color:#B1B1B1"/>
			<stop  offset="0.9243" style="stop-color:#999999"/>
		</radialGradient>
		<polygon class="st10" points="635.2,217.7 638.9,225.2 647.3,226.4 641.2,232.2 642.7,240.5 635.2,236.6 627.8,240.5 629.2,232.2 
			623.2,226.4 631.5,225.2 		"/>
	</g>
	<g>
		<radialGradient id="SVGID_12_" cx="366.2091" cy="228.7208" r="15.284" gradientUnits="userSpaceOnUse">
			<stop  offset="0" style="stop-color:#FFF48D"/>
			<stop  offset="0.1171" style="stop-color:#FFF189"/>
			<stop  offset="0.2306" style="stop-color:#FEE67D"/>
			<stop  offset="0.3425" style="stop-color:#FDD56A"/>
			<stop  offset="0.4529" style="stop-color:#FCBD4F"/>
			<stop  offset="0.5027" style="stop-color:#FBB040"/>
		</radialGradient>
		<polygon class="st11" points="366.2,238.5 356.5,243.6 358.4,232.8 350.5,225.2 361.4,223.6 366.2,213.8 371,223.6 381.9,225.2 
			374,232.8 375.9,243.6 		"/>
		<radialGradient id="SVGID_13_" cx="366.2091" cy="229.0864" r="11.7291" gradientUnits="userSpaceOnUse">
			<stop  offset="0" style="stop-color:#EFEFEF"/>
			<stop  offset="0.2041" style="stop-color:#EBEBEB"/>
			<stop  offset="0.4018" style="stop-color:#DFDFDF"/>
			<stop  offset="0.5969" style="stop-color:#CCCCCC"/>
			<stop  offset="0.7892" style="stop-color:#B1B1B1"/>
			<stop  offset="0.9243" style="stop-color:#999999"/>
		</radialGradient>
		<polygon class="st12" points="366.2,217.7 369.9,225.2 378.2,226.4 372.2,232.2 373.6,240.5 366.2,236.6 358.8,240.5 360.2,232.2 
			354.2,226.4 362.5,225.2 		"/>
	</g>
	<g id="layer1_8_" transform="translate(91.881 -228.75)">
		<g id="g3332_8_">
			<g id="g3240-1_8_" transform="matrix(-1 0 0 1 755.44 -.88158)">
				<radialGradient id="path1872-7_1_" cx="324.799" cy="545.9261" r="11.7532" gradientUnits="userSpaceOnUse">
					<stop  offset="0" style="stop-color:#FFF48D"/>
					<stop  offset="0.2154" style="stop-color:#FFF189"/>
					<stop  offset="0.424" style="stop-color:#FEE67D"/>
					<stop  offset="0.6298" style="stop-color:#FDD56A"/>
					<stop  offset="0.8328" style="stop-color:#FCBD4F"/>
					<stop  offset="0.9243" style="stop-color:#FBB040"/>
				</radialGradient>
				<path id="path1872-7_8_" class="st13" d="M340.1,543.1c-11.8-8.1-21.6-1-30.6,7.1C321.1,553.3,333.4,554.7,340.1,543.1z"/>
				<radialGradient id="path2784-4_1_" cx="325.286" cy="525.9565" r="11.1519" gradientUnits="userSpaceOnUse">
					<stop  offset="0" style="stop-color:#FFF48D"/>
					<stop  offset="0.2154" style="stop-color:#FFF189"/>
					<stop  offset="0.424" style="stop-color:#FEE67D"/>
					<stop  offset="0.6298" style="stop-color:#FDD56A"/>
					<stop  offset="0.8328" style="stop-color:#FCBD4F"/>
					<stop  offset="0.9243" style="stop-color:#FBB040"/>
				</radialGradient>
				<path id="path2784-4_8_" class="st14" d="M337.3,536.1c-0.5-14.3-12.1-18-24-20.3C317.7,526.9,323.9,537.6,337.3,536.1z"/>
				<radialGradient id="path2790-0_1_" cx="303.4656" cy="538.3139" r="11.8564" gradientUnits="userSpaceOnUse">
					<stop  offset="0" style="stop-color:#FFF48D"/>
					<stop  offset="0.2154" style="stop-color:#FFF189"/>
					<stop  offset="0.424" style="stop-color:#FEE67D"/>
					<stop  offset="0.6298" style="stop-color:#FDD56A"/>
					<stop  offset="0.8328" style="stop-color:#FCBD4F"/>
					<stop  offset="0.9243" style="stop-color:#FBB040"/>
				</radialGradient>
				<path id="path2790-0_8_" class="st15" d="M319,536.6c-11.1-9.1-21.5-2.8-31.1,4.5C299.2,545.2,311.3,547.7,319,536.6z"/>
				<radialGradient id="path2796-9_1_" cx="304.4684" cy="514.9086" r="11.5906" gradientUnits="userSpaceOnUse">
					<stop  offset="0" style="stop-color:#FFF48D"/>
					<stop  offset="0.2154" style="stop-color:#FFF189"/>
					<stop  offset="0.424" style="stop-color:#FEE67D"/>
					<stop  offset="0.6298" style="stop-color:#FDD56A"/>
					<stop  offset="0.8328" style="stop-color:#FCBD4F"/>
					<stop  offset="0.9243" style="stop-color:#FBB040"/>
				</radialGradient>
				<path id="path2796-9_8_" class="st16" d="M308.7,529.8c6.9-12.6-1.2-21.6-10.1-29.8C296.6,511.9,296.4,524.3,308.7,529.8z"/>
				<radialGradient id="path2802-4_1_" cx="284.1814" cy="527.5518" r="11.8648" gradientUnits="userSpaceOnUse">
					<stop  offset="0" style="stop-color:#FFF48D"/>
					<stop  offset="0.2154" style="stop-color:#FFF189"/>
					<stop  offset="0.424" style="stop-color:#FEE67D"/>
					<stop  offset="0.6298" style="stop-color:#FDD56A"/>
					<stop  offset="0.8328" style="stop-color:#FCBD4F"/>
					<stop  offset="0.9243" style="stop-color:#FBB040"/>
				</radialGradient>
				<path id="path2802-4_8_" class="st17" d="M299.8,529.5c-8.2-11.8-19.9-8.6-31.2-4.2C278.3,532.3,289.3,538,299.8,529.5
					L299.8,529.5z"/>
				<radialGradient id="path2808-8_1_" cx="288.3593" cy="503.2544" r="11.9276" gradientUnits="userSpaceOnUse">
					<stop  offset="0" style="stop-color:#FFF48D"/>
					<stop  offset="0.2154" style="stop-color:#FFF189"/>
					<stop  offset="0.424" style="stop-color:#FEE67D"/>
					<stop  offset="0.6298" style="stop-color:#FDD56A"/>
					<stop  offset="0.8328" style="stop-color:#FCBD4F"/>
					<stop  offset="0.9243" style="stop-color:#FBB040"/>
				</radialGradient>
				<path id="path2808-8_8_" class="st18" d="M288.2,519c10.6-9.7,5.8-20.9-0.1-31.4C282.5,498.2,278.3,509.8,288.2,519L288.2,519z"
					/>
				<radialGradient id="path2814-8_1_" cx="267.7299" cy="513.2876" r="11.59" gradientUnits="userSpaceOnUse">
					<stop  offset="0" style="stop-color:#FFF48D"/>
					<stop  offset="0.2154" style="stop-color:#FFF189"/>
					<stop  offset="0.424" style="stop-color:#FEE67D"/>
					<stop  offset="0.6298" style="stop-color:#FDD56A"/>
					<stop  offset="0.8328" style="stop-color:#FCBD4F"/>
					<stop  offset="0.9243" style="stop-color:#FBB040"/>
				</radialGradient>
				<path id="path2814-8_8_" class="st19" d="M282.6,517.8c-5.8-13.1-17.9-12.2-29.8-10.1C261,516.5,270.7,524.2,282.6,517.8z"/>
				<radialGradient id="path2820-2_1_" cx="275.5765" cy="489.6156" r="11.8151" gradientUnits="userSpaceOnUse">
					<stop  offset="0" style="stop-color:#FFF48D"/>
					<stop  offset="0.2154" style="stop-color:#FFF189"/>
					<stop  offset="0.424" style="stop-color:#FEE67D"/>
					<stop  offset="0.6298" style="stop-color:#FDD56A"/>
					<stop  offset="0.8328" style="stop-color:#FCBD4F"/>
					<stop  offset="0.9243" style="stop-color:#FBB040"/>
				</radialGradient>
				<path id="path2820-2_8_" class="st20" d="M273,505.1c12.2-7.6,9.5-19.5,5.7-30.9C271.2,483.5,265,494.2,273,505.1z"/>
				<radialGradient id="path2826-4_1_" cx="255.0774" cy="496.0012" r="11.2872" gradientUnits="userSpaceOnUse">
					<stop  offset="0" style="stop-color:#FFF48D"/>
					<stop  offset="0.2154" style="stop-color:#FFF189"/>
					<stop  offset="0.424" style="stop-color:#FEE67D"/>
					<stop  offset="0.6298" style="stop-color:#FDD56A"/>
					<stop  offset="0.8328" style="stop-color:#FCBD4F"/>
					<stop  offset="0.9243" style="stop-color:#FBB040"/>
				</radialGradient>
				<path id="path2826-4_8_" class="st21" d="M268.7,503.3c-3.2-14-15.2-15.4-27.3-15.5C247.8,497.9,255.9,507.3,268.7,503.3z"/>
				<radialGradient id="path2832-5_1_" cx="269.2278" cy="467.6893" r="11.6425" gradientUnits="userSpaceOnUse">
					<stop  offset="0" style="stop-color:#FFF48D"/>
					<stop  offset="0.2154" style="stop-color:#FFF189"/>
					<stop  offset="0.424" style="stop-color:#FEE67D"/>
					<stop  offset="0.6298" style="stop-color:#FDD56A"/>
					<stop  offset="0.8328" style="stop-color:#FCBD4F"/>
					<stop  offset="0.9243" style="stop-color:#FBB040"/>
				</radialGradient>
				<path id="path2832-5_8_" class="st22" d="M265.1,482.7c13-6.2,11.7-18.2,9.2-30.1C265.8,461.1,258.4,471,265.1,482.7z"/>
				<radialGradient id="path2838-5_1_" cx="250.3162" cy="477.5692" r="11.1956" gradientUnits="userSpaceOnUse">
					<stop  offset="0" style="stop-color:#FFF48D"/>
					<stop  offset="0.2154" style="stop-color:#FFF189"/>
					<stop  offset="0.424" style="stop-color:#FEE67D"/>
					<stop  offset="0.6298" style="stop-color:#FDD56A"/>
					<stop  offset="0.8328" style="stop-color:#FCBD4F"/>
					<stop  offset="0.9243" style="stop-color:#FBB040"/>
				</radialGradient>
				<path id="path2838-5_8_" class="st23" d="M263,486.7c-1.5-14.3-13.3-17.1-25.3-18.7C242.8,478.9,249.7,489.2,263,486.7z"/>
				<radialGradient id="path2844-1_1_" cx="267.0609" cy="445.6901" r="11.2835" gradientUnits="userSpaceOnUse">
					<stop  offset="0" style="stop-color:#FFF48D"/>
					<stop  offset="0.2154" style="stop-color:#FFF189"/>
					<stop  offset="0.424" style="stop-color:#FEE67D"/>
					<stop  offset="0.6298" style="stop-color:#FDD56A"/>
					<stop  offset="0.8328" style="stop-color:#FCBD4F"/>
					<stop  offset="0.9243" style="stop-color:#FBB040"/>
				</radialGradient>
				<path id="path2844-1_8_" class="st24" d="M259.7,459.3c14-3.1,15.5-15.2,15.7-27.2C265.1,438.4,255.7,446.4,259.7,459.3z"/>
				<radialGradient id="path2850-7_1_" cx="249.2568" cy="456.3927" r="11.2916" gradientUnits="userSpaceOnUse">
					<stop  offset="0" style="stop-color:#FFF48D"/>
					<stop  offset="0.2154" style="stop-color:#FFF189"/>
					<stop  offset="0.424" style="stop-color:#FEE67D"/>
					<stop  offset="0.6298" style="stop-color:#FDD56A"/>
					<stop  offset="0.8328" style="stop-color:#FCBD4F"/>
					<stop  offset="0.9243" style="stop-color:#FBB040"/>
				</radialGradient>
				<path id="path2850-7_8_" class="st25" d="M256.9,469.8c4.1-13.8-5.8-20.9-16.3-26.9C241.3,455,243.7,467.1,256.9,469.8z"/>
				<radialGradient id="path2856-1_1_" cx="276.3528" cy="421.2128" r="11.1279" gradientUnits="userSpaceOnUse">
					<stop  offset="0" style="stop-color:#FFF48D"/>
					<stop  offset="0.2154" style="stop-color:#FFF189"/>
					<stop  offset="0.424" style="stop-color:#FEE67D"/>
					<stop  offset="0.6298" style="stop-color:#FDD56A"/>
					<stop  offset="0.8328" style="stop-color:#FCBD4F"/>
					<stop  offset="0.9243" style="stop-color:#FBB040"/>
				</radialGradient>
				<path id="path2856-1_8_" class="st26" d="M265.2,432.3c14.3,0.7,18.9-10.5,22.3-22.1C276,413.5,264.8,418.8,265.2,432.3z"/>
				<radialGradient id="path2862-1_1_" cx="253.6444" cy="432.2666" r="11.8075" gradientUnits="userSpaceOnUse">
					<stop  offset="0" style="stop-color:#FFF48D"/>
					<stop  offset="0.2154" style="stop-color:#FFF189"/>
					<stop  offset="0.424" style="stop-color:#FEE67D"/>
					<stop  offset="0.6298" style="stop-color:#FDD56A"/>
					<stop  offset="0.8328" style="stop-color:#FCBD4F"/>
					<stop  offset="0.9243" style="stop-color:#FBB040"/>
				</radialGradient>
				<path id="path2862-1_8_" class="st27" d="M256,447.7c8.6-11.5,1.9-21.6-5.8-30.9C246.5,428.3,244.6,440.5,256,447.7z"/>
				<radialGradient id="path2868-5_1_" cx="281.2725" cy="399.6306" r="11.165" gradientUnits="userSpaceOnUse">
					<stop  offset="0" style="stop-color:#FFF48D"/>
					<stop  offset="0.2154" style="stop-color:#FFF189"/>
					<stop  offset="0.424" style="stop-color:#FEE67D"/>
					<stop  offset="0.6298" style="stop-color:#FDD56A"/>
					<stop  offset="0.8328" style="stop-color:#FCBD4F"/>
					<stop  offset="0.9243" style="stop-color:#FBB040"/>
				</radialGradient>
				<path id="path2868-5_8_" class="st28" d="M271.5,411.8c14.3-0.8,17.7-12.5,19.8-24.4C280.2,392.1,269.6,398.5,271.5,411.8z"/>
				<radialGradient id="path2874-2_1_" cx="262.7239" cy="408.5005" r="11.9268" gradientUnits="userSpaceOnUse">
					<stop  offset="0" style="stop-color:#FFF48D"/>
					<stop  offset="0.2154" style="stop-color:#FFF189"/>
					<stop  offset="0.424" style="stop-color:#FEE67D"/>
					<stop  offset="0.6298" style="stop-color:#FDD56A"/>
					<stop  offset="0.8328" style="stop-color:#FCBD4F"/>
					<stop  offset="0.9243" style="stop-color:#FBB040"/>
				</radialGradient>
				<path id="path2874-2_8_" class="st29" d="M262.3,424.2c10.8-9.5,6.2-20.8,0.6-31.4C257,403.3,252.6,414.9,262.3,424.2z"/>
			</g>
			<g id="g3240_8_">
				<radialGradient id="path1872_1_" cx="385.5956" cy="545.252" r="11.7532" gradientUnits="userSpaceOnUse">
					<stop  offset="0" style="stop-color:#FFF48D"/>
					<stop  offset="0.2154" style="stop-color:#FFF189"/>
					<stop  offset="0.424" style="stop-color:#FEE67D"/>
					<stop  offset="0.6298" style="stop-color:#FDD56A"/>
					<stop  offset="0.8328" style="stop-color:#FCBD4F"/>
					<stop  offset="0.9243" style="stop-color:#FBB040"/>
				</radialGradient>
				<path id="path1872_8_" class="st30" d="M400.9,542.4c-11.8-8.1-21.6-1-30.6,7.1C381.9,552.6,394.2,554.1,400.9,542.4z"/>
				<radialGradient id="path2784_1_" cx="386.0826" cy="525.2823" r="11.1519" gradientUnits="userSpaceOnUse">
					<stop  offset="0" style="stop-color:#FFF48D"/>
					<stop  offset="0.2154" style="stop-color:#FFF189"/>
					<stop  offset="0.424" style="stop-color:#FEE67D"/>
					<stop  offset="0.6298" style="stop-color:#FDD56A"/>
					<stop  offset="0.8328" style="stop-color:#FCBD4F"/>
					<stop  offset="0.9243" style="stop-color:#FBB040"/>
				</radialGradient>
				<path id="path2784_8_" class="st31" d="M398.1,535.4c-0.5-14.3-12.1-18-24-20.3C378.5,526.2,384.7,536.9,398.1,535.4z"/>
				<radialGradient id="path2790_1_" cx="364.2622" cy="537.6398" r="11.8564" gradientUnits="userSpaceOnUse">
					<stop  offset="0" style="stop-color:#FFF48D"/>
					<stop  offset="0.2154" style="stop-color:#FFF189"/>
					<stop  offset="0.424" style="stop-color:#FEE67D"/>
					<stop  offset="0.6298" style="stop-color:#FDD56A"/>
					<stop  offset="0.8328" style="stop-color:#FCBD4F"/>
					<stop  offset="0.9243" style="stop-color:#FBB040"/>
				</radialGradient>
				<path id="path2790_8_" class="st32" d="M379.8,535.9c-11.1-9.1-21.5-2.8-31.1,4.5C360,544.5,372.1,547,379.8,535.9z"/>
				<radialGradient id="path2796_1_" cx="365.2649" cy="514.2345" r="11.5906" gradientUnits="userSpaceOnUse">
					<stop  offset="0" style="stop-color:#FFF48D"/>
					<stop  offset="0.2154" style="stop-color:#FFF189"/>
					<stop  offset="0.424" style="stop-color:#FEE67D"/>
					<stop  offset="0.6298" style="stop-color:#FDD56A"/>
					<stop  offset="0.8328" style="stop-color:#FCBD4F"/>
					<stop  offset="0.9243" style="stop-color:#FBB040"/>
				</radialGradient>
				<path id="path2796_8_" class="st33" d="M369.5,529.1c6.9-12.6-1.2-21.6-10.1-29.8C357.4,511.2,357.2,523.6,369.5,529.1z"/>
				<radialGradient id="path2802_1_" cx="344.978" cy="526.8776" r="11.8648" gradientUnits="userSpaceOnUse">
					<stop  offset="0" style="stop-color:#FFF48D"/>
					<stop  offset="0.2154" style="stop-color:#FFF189"/>
					<stop  offset="0.424" style="stop-color:#FEE67D"/>
					<stop  offset="0.6298" style="stop-color:#FDD56A"/>
					<stop  offset="0.8328" style="stop-color:#FCBD4F"/>
					<stop  offset="0.9243" style="stop-color:#FBB040"/>
				</radialGradient>
				<path id="path2802_8_" class="st34" d="M360.6,528.8c-8.2-11.8-19.9-8.6-31.2-4.2C339.1,531.7,350.1,537.4,360.6,528.8
					L360.6,528.8z"/>
				<radialGradient id="path2808_1_" cx="349.1559" cy="502.5803" r="11.9276" gradientUnits="userSpaceOnUse">
					<stop  offset="0" style="stop-color:#FFF48D"/>
					<stop  offset="0.2154" style="stop-color:#FFF189"/>
					<stop  offset="0.424" style="stop-color:#FEE67D"/>
					<stop  offset="0.6298" style="stop-color:#FDD56A"/>
					<stop  offset="0.8328" style="stop-color:#FCBD4F"/>
					<stop  offset="0.9243" style="stop-color:#FBB040"/>
				</radialGradient>
				<path id="path2808_8_" class="st35" d="M349,518.3c10.6-9.7,5.8-20.9-0.1-31.4C343.3,497.5,339.1,509.1,349,518.3L349,518.3z"/>
				<radialGradient id="path2814_1_" cx="328.5265" cy="512.6134" r="11.59" gradientUnits="userSpaceOnUse">
					<stop  offset="0" style="stop-color:#FFF48D"/>
					<stop  offset="0.2154" style="stop-color:#FFF189"/>
					<stop  offset="0.424" style="stop-color:#FEE67D"/>
					<stop  offset="0.6298" style="stop-color:#FDD56A"/>
					<stop  offset="0.8328" style="stop-color:#FCBD4F"/>
					<stop  offset="0.9243" style="stop-color:#FBB040"/>
				</radialGradient>
				<path id="path2814_8_" class="st36" d="M343.4,517.1c-5.8-13.1-17.9-12.2-29.8-10.1C321.8,515.8,331.5,523.5,343.4,517.1z"/>
				<radialGradient id="path2820_1_" cx="336.3731" cy="488.9414" r="11.8151" gradientUnits="userSpaceOnUse">
					<stop  offset="0" style="stop-color:#FFF48D"/>
					<stop  offset="0.2154" style="stop-color:#FFF189"/>
					<stop  offset="0.424" style="stop-color:#FEE67D"/>
					<stop  offset="0.6298" style="stop-color:#FDD56A"/>
					<stop  offset="0.8328" style="stop-color:#FCBD4F"/>
					<stop  offset="0.9243" style="stop-color:#FBB040"/>
				</radialGradient>
				<path id="path2820_8_" class="st37" d="M333.8,504.4c12.2-7.6,9.5-19.5,5.7-30.9C332,482.9,325.8,493.6,333.8,504.4z"/>
				<radialGradient id="path2826_1_" cx="315.874" cy="495.3271" r="11.2872" gradientUnits="userSpaceOnUse">
					<stop  offset="0" style="stop-color:#FFF48D"/>
					<stop  offset="0.2154" style="stop-color:#FFF189"/>
					<stop  offset="0.424" style="stop-color:#FEE67D"/>
					<stop  offset="0.6298" style="stop-color:#FDD56A"/>
					<stop  offset="0.8328" style="stop-color:#FCBD4F"/>
					<stop  offset="0.9243" style="stop-color:#FBB040"/>
				</radialGradient>
				<path id="path2826_8_" class="st38" d="M329.5,502.6c-3.2-14-15.2-15.4-27.3-15.5C308.6,497.3,316.7,506.6,329.5,502.6z"/>
				<radialGradient id="path2832_1_" cx="330.0244" cy="467.0151" r="11.6425" gradientUnits="userSpaceOnUse">
					<stop  offset="0" style="stop-color:#FFF48D"/>
					<stop  offset="0.2154" style="stop-color:#FFF189"/>
					<stop  offset="0.424" style="stop-color:#FEE67D"/>
					<stop  offset="0.6298" style="stop-color:#FDD56A"/>
					<stop  offset="0.8328" style="stop-color:#FCBD4F"/>
					<stop  offset="0.9243" style="stop-color:#FBB040"/>
				</radialGradient>
				<path id="path2832_8_" class="st39" d="M325.9,482c13-6.2,11.7-18.2,9.2-30.1C326.6,460.4,319.2,470.4,325.9,482z"/>
				<radialGradient id="path2838_1_" cx="311.1128" cy="476.8951" r="11.1956" gradientUnits="userSpaceOnUse">
					<stop  offset="0" style="stop-color:#FFF48D"/>
					<stop  offset="0.2154" style="stop-color:#FFF189"/>
					<stop  offset="0.424" style="stop-color:#FEE67D"/>
					<stop  offset="0.6298" style="stop-color:#FDD56A"/>
					<stop  offset="0.8328" style="stop-color:#FCBD4F"/>
					<stop  offset="0.9243" style="stop-color:#FBB040"/>
				</radialGradient>
				<path id="path2838_8_" class="st40" d="M323.8,486.1c-1.5-14.3-13.3-17.1-25.3-18.7C303.6,478.2,310.5,488.5,323.8,486.1z"/>
				<radialGradient id="path2844_1_" cx="327.8574" cy="445.0159" r="11.2835" gradientUnits="userSpaceOnUse">
					<stop  offset="0" style="stop-color:#FFF48D"/>
					<stop  offset="0.2154" style="stop-color:#FFF189"/>
					<stop  offset="0.424" style="stop-color:#FEE67D"/>
					<stop  offset="0.6298" style="stop-color:#FDD56A"/>
					<stop  offset="0.8328" style="stop-color:#FCBD4F"/>
					<stop  offset="0.9243" style="stop-color:#FBB040"/>
				</radialGradient>
				<path id="path2844_8_" class="st41" d="M320.5,458.6c14-3.1,15.5-15.2,15.7-27.2C325.9,437.7,316.5,445.7,320.5,458.6z"/>
				<radialGradient id="path2850_1_" cx="310.0534" cy="455.7185" r="11.2916" gradientUnits="userSpaceOnUse">
					<stop  offset="0" style="stop-color:#FFF48D"/>
					<stop  offset="0.2154" style="stop-color:#FFF189"/>
					<stop  offset="0.424" style="stop-color:#FEE67D"/>
					<stop  offset="0.6298" style="stop-color:#FDD56A"/>
					<stop  offset="0.8328" style="stop-color:#FCBD4F"/>
					<stop  offset="0.9243" style="stop-color:#FBB040"/>
				</radialGradient>
				<path id="path2850_8_" class="st42" d="M317.7,469.2c4.1-13.8-5.8-20.9-16.3-26.9C302.1,454.3,304.5,466.4,317.7,469.2z"/>
				<radialGradient id="path2856_1_" cx="337.1494" cy="420.5387" r="11.1279" gradientUnits="userSpaceOnUse">
					<stop  offset="0" style="stop-color:#FFF48D"/>
					<stop  offset="0.2154" style="stop-color:#FFF189"/>
					<stop  offset="0.424" style="stop-color:#FEE67D"/>
					<stop  offset="0.6298" style="stop-color:#FDD56A"/>
					<stop  offset="0.8328" style="stop-color:#FCBD4F"/>
					<stop  offset="0.9243" style="stop-color:#FBB040"/>
				</radialGradient>
				<path id="path2856_8_" class="st43" d="M326,431.6c14.3,0.7,18.9-10.5,22.3-22.1C336.8,412.9,325.6,418.1,326,431.6z"/>
				<radialGradient id="path2862_1_" cx="314.441" cy="431.5924" r="11.8075" gradientUnits="userSpaceOnUse">
					<stop  offset="0" style="stop-color:#FFF48D"/>
					<stop  offset="0.2154" style="stop-color:#FFF189"/>
					<stop  offset="0.424" style="stop-color:#FEE67D"/>
					<stop  offset="0.6298" style="stop-color:#FDD56A"/>
					<stop  offset="0.8328" style="stop-color:#FCBD4F"/>
					<stop  offset="0.9243" style="stop-color:#FBB040"/>
				</radialGradient>
				<path id="path2862_8_" class="st44" d="M316.8,447c8.6-11.5,1.9-21.6-5.8-30.9C307.3,427.6,305.4,439.8,316.8,447z"/>
				<radialGradient id="path2868_1_" cx="342.0691" cy="398.9565" r="11.165" gradientUnits="userSpaceOnUse">
					<stop  offset="0" style="stop-color:#FFF48D"/>
					<stop  offset="0.2154" style="stop-color:#FFF189"/>
					<stop  offset="0.424" style="stop-color:#FEE67D"/>
					<stop  offset="0.6298" style="stop-color:#FDD56A"/>
					<stop  offset="0.8328" style="stop-color:#FCBD4F"/>
					<stop  offset="0.9243" style="stop-color:#FBB040"/>
				</radialGradient>
				<path id="path2868_8_" class="st45" d="M332.3,411.2c14.3-0.8,17.7-12.5,19.8-24.4C341,391.4,330.4,397.8,332.3,411.2z"/>
				<radialGradient id="path2874_1_" cx="323.5205" cy="407.8263" r="11.9268" gradientUnits="userSpaceOnUse">
					<stop  offset="0" style="stop-color:#FFF48D"/>
					<stop  offset="0.2154" style="stop-color:#FFF189"/>
					<stop  offset="0.424" style="stop-color:#FEE67D"/>
					<stop  offset="0.6298" style="stop-color:#FDD56A"/>
					<stop  offset="0.8328" style="stop-color:#FCBD4F"/>
					<stop  offset="0.9243" style="stop-color:#FBB040"/>
				</radialGradient>
				<path id="path2874_8_" class="st46" d="M323.1,423.5c10.8-9.5,6.2-20.8,0.6-31.4C317.8,402.6,313.4,414.2,323.1,423.5z"/>
			</g>
			<radialGradient id="path3042_1_" cx="408.0783" cy="539.4937" r="4.1592" gradientUnits="userSpaceOnUse">
				<stop  offset="0" style="stop-color:#FFF48D"/>
				<stop  offset="0.2154" style="stop-color:#FFF189"/>
				<stop  offset="0.424" style="stop-color:#FEE67D"/>
				<stop  offset="0.6298" style="stop-color:#FDD56A"/>
				<stop  offset="0.8328" style="stop-color:#FCBD4F"/>
				<stop  offset="0.9243" style="stop-color:#FBB040"/>
			</radialGradient>
			<path id="path3042_8_" class="st47" d="M412.2,539.5c0,2.3-1.9,4.2-4.2,4.2s-4.2-1.9-4.2-4.2s1.9-4.2,4.2-4.2
				S412.2,537.2,412.2,539.5L412.2,539.5z"/>
		</g>
	</g>
	<g>
		<g>
			<radialGradient id="SVGID_14_" cx="500" cy="222.4998" r="52.8501" gradientUnits="userSpaceOnUse">
				<stop  offset="0.7299" style="stop-color:#1E1D48"/>
				<stop  offset="1" style="stop-color:#4949AD"/>
			</radialGradient>
			<circle class="st48" cx="500" cy="222.5" r="52.9"/>
			<radialGradient id="SVGID_15_" cx="500" cy="222.4998" r="49.6487" gradientUnits="userSpaceOnUse">
				<stop  offset="0" style="stop-color:#4949AD"/>
				<stop  offset="1" style="stop-color:#1E1D48"/>
			</radialGradient>
			<circle class="st49" cx="500" cy="222.5" r="49.6"/>
		</g>
		<g>
			<radialGradient id="SVGID_16_" cx="500.8919" cy="223.3571" r="29.4106" gradientUnits="userSpaceOnUse">
				<stop  offset="0" style="stop-color:#12C7BA"/>
				<stop  offset="1" style="stop-color:#94FFF2"/>
			</radialGradient>
			<polygon class="st50" points="468.7,249.7 499.2,223.4 468.7,197.1 533.1,197.1 502.6,223.4 533.1,249.7 			"/>
			<radialGradient id="SVGID_17_" cx="500.8919" cy="223.0754" r="26.4544" gradientUnits="userSpaceOnUse">
				<stop  offset="0" style="stop-color:#94FFF2"/>
				<stop  offset="1" style="stop-color:#12C7BA"/>
			</radialGradient>
			<polygon class="st51" points="530.1,198.2 471.7,198.2 500.9,223.4 471.7,248.5 530.1,248.5 500.9,223.4 			"/>
		</g>
	</g>
	<g>
		<radialGradient id="SVGID_18_" cx="503.9312" cy="435.4474" r="177.3433" gradientUnits="userSpaceOnUse">
			<stop  offset="0" style="stop-color:#FFF48D"/>
			<stop  offset="0.1171" style="stop-color:#FFF189"/>
			<stop  offset="0.2306" style="stop-color:#FEE67D"/>
			<stop  offset="0.3425" style="stop-color:#FDD56A"/>
			<stop  offset="0.4529" style="stop-color:#FCBD4F"/>
			<stop  offset="0.5027" style="stop-color:#FBB040"/>
		</radialGradient>
		<path class="st52" d="M489,610.1l-1.4-0.9c-0.1,0-0.3-0.1-0.5-0.1c-18.3-4.1-27.7-15.5-28.2-33.9c-4.2-2.5-7.7-6.2-11.4-10.1
			C441.7,559,435,552,424,548.1c-8.2-3.1-14-8.8-17.2-16.4c-5.3-12.6-2.6-28.6,2.1-42.5c-0.3,0-0.5,0-0.8,0
			c-5.1,0-10.3-0.6-15.6-1.8c-8.7-1.6-17.7-5.8-21.1-7.5l-18.8-9.3c0,0,20.3-9.3,20.9-9.6c-44.2-7-47.3-35.5-49.2-53.4l0-0.5
			c-1.2-21.6,6.8-36.6,13.9-49.9c9.5-17.9,17.7-33.3,4.1-65.3l-0.2-0.5c-0.3-0.8-0.7-1.5-1-2.3l-9.7-27.5l24.4,15.9
			c0.4,0.2,36,27.1,31.5,60c-1.2,7.8-4.1,15.7-6.8,23.3c-5.2,14.2-10,27.6-4.1,37.2c0.2,0.3,0.3,0.5,0.4,0.7
			c3.1-0.7,9.5-3.4,14.3-5.5c9-3.8,20.2-8.6,32.6-11.6c7-10.9,21.6-16.6,31.6-19.4l1.3-8.2c0.7,0,1.4,0,2.1,0
			c14.5,0,29.8,4.1,45.3,12.2c19.2-10.1,35.2-12.2,45.4-12.2l1.5,0l-0.1,6.7l1.7,1.4c0.9,0.3,1.9,0.6,3,0.9
			c1.8,0.5,20.6,5.8,28.9,18.6c3,0.7,7.8,2,16.1,5c5.9,2.1,11.3,4.4,16.1,6.5c5.9,2.5,11.1,4.8,14.7,5.6c6-8.7,2.6-20.4-3.8-38.5
			c-1.9-5.4-3.9-10.9-5.5-16.6l-0.1-0.6c-2-9.2-2.3-16.7,1.7-28c6.5-17.5,21.9-33,28.7-37.5l25.4-16.6l-10.7,28.4
			c-0.1,0.3-0.3,0.8-0.6,1.6c-8.7,20.5-8.5,34-6.8,41.8c1.4,6.4,5.1,13.8,9,21.7c9.1,18.1,20.4,40.6,12.9,69.2
			c-4,15.1-15.5,32.8-46.5,37.8c2.2,1,2.5,1.3,3.2,1.7l7.3,5.4l-4.8,7.7c-4.1,6.7-26.6,13-41,13c-0.1,0-0.3,0-0.4,0
			c13.6,42.3-4.3,55.3-16.2,59.3c-9.7,3.3-16.3,10.3-22.2,16.4c-3.8,4-7.5,7.8-11.8,10.4c-0.3,6.5-1.8,17.2-10.1,25.1
			c-3.7,3.8-8.8,6.6-14.8,8l-1.5,1.7H489z"/>
		
			<radialGradient id="SVGID_19_" cx="503.9312" cy="443.5213" r="163.7843" fx="503.5634" fy="491.0662" gradientUnits="userSpaceOnUse">
			<stop  offset="0" style="stop-color:#EFEFEF"/>
			<stop  offset="0.2041" style="stop-color:#EBEBEB"/>
			<stop  offset="0.4018" style="stop-color:#DFDFDF"/>
			<stop  offset="0.5969" style="stop-color:#CCCCCC"/>
			<stop  offset="0.7892" style="stop-color:#B1B1B1"/>
			<stop  offset="0.9243" style="stop-color:#999999"/>
		</radialGradient>
		<path class="st53" d="M350.2,286.3c3.3,2.2,30.5,25.6,27.1,50.3c-3.2,20.9-22,47-9.5,67.1c2.2,3.6,3.9,5.7,7.4,5.5
			c8.7,0.3,28-12.1,51.2-17.6c2.8-0.7,3.6-0.3,4.5-2.4c4.8-10.1,21.5-16,32.6-18.4c0.9-0.2,3.9-0.4,2.8-2.2
			c-0.6-0.9-1.9-1.3-9.5-4.2c24.9-0.7,46,13.2,47.2,13.6c1-0.3,22.1-14.1,46.7-13.6l0.2-0.2c-0.1,0.1-0.2,0.3-0.2,0.5
			c-0.9,0.1-6.1,2.2-7.1,2.6c-1.2,0.5-2.5,1.1-2,2.4c0.5,1.2,2.2,0.5,10.9,3.2c6.1,1.6,19.8,7.1,24.3,15.8c2,3.9,0.1,0.3,20.3,7.6
			c13.5,4.9,24.7,10.9,32.6,12.5c6.3,1.2,7.4-1.1,9.2-3.5c13-17.9-0.9-40.8-7.4-64.1c-1.7-7.9-1.9-13.5,1.3-22.6
			c5.7-15.3,19.9-29.3,24.8-32.5c-1,2.6-12.7,26.9-7.8,48.9c5.1,23.3,31.8,49.2,22,86.2c-11.6,44.1-78.8,29.3-81.1,30.2
			c-0.2,0.1-0.4,0.1-0.4,0.4c-0.1,0.4,0.2,0.7,0.5,0.8c1.9,1.5,40.1,17.7,41.4,18.7c-0.7,1.2-24.8,12.2-44.5,6.8
			c-0.7-0.2-1.3-0.5-2-0.6c-2.6,0.8-0.9,1.2,3.9,14.6c6.2,18.8,8.8,41-9.8,47.3c-20.8,7.1-28.9,26.3-39,29.1c-0.9,0.2-1.7,1.1-1.7,2
			c0,2.7,1.1,15.2-7,23c-3.3,3.3-7.8,5.2-12.3,6c-0.7,0.1-1.2,0.5-1.6,1h-26.2c-2.5-1.6-23.5-1.1-23.1-27.1c0-4,0.8-4-2.5-5.2
			c-9.8-3.5-17-21.4-39.1-29.2c-20.9-8-13.6-37.6-4.5-58.2c0.4-0.8,0.8-1.8,0.5-2.8c-0.6-1-3.2-0.1-3.5,0c-8.1,2.1-17,1.7-25.2-0.1
			c-9.1-1.7-18.8-6.7-19-6.7c34.8-15.7,41.2-17.5,40.8-19.3c-1.5-1.1-9.3,0.9-22.5,1c-54.8-0.6-57.7-26.8-59.8-46.2
			c-2.5-46.4,43.1-57.5,17.2-118.5C350.9,287.8,350.5,287,350.2,286.3z"/>
	</g>
</g>
</svg>
