<?xml version="1.0" encoding="utf-8"?>
<!-- Generator: Adobe Illustrator 25.2.1, SVG Export Plug-In . SVG Version: 6.00 Build 0)  -->
<svg version="1.1" id="Layer_1" xmlns="http://www.w3.org/2000/svg" xmlns:xlink="http://www.w3.org/1999/xlink" x="0px" y="0px"
	 viewBox="0 0 1000 1000" style="enable-background:new 0 0 1000 1000;" xml:space="preserve">
<style type="text/css">
	.st0{fill:url(#SVGID_1_);}
	.st1{fill:url(#SVGID_2_);}
	.st2{fill:url(#SVGID_3_);}
	.st3{fill:url(#SVGID_4_);}
	.st4{fill:url(#SVGID_5_);}
	.st5{fill:url(#SVGID_6_);}
	.st6{fill:url(#SVGID_7_);}
	.st7{fill:url(#SVGID_8_);}
	.st8{fill:url(#SVGID_9_);}
	.st9{fill:url(#SVGID_10_);}
	.st10{fill:url(#SVGID_11_);}
	.st11{fill:url(#SVGID_12_);}
	.st12{fill:url(#SVGID_13_);}
</style>
<g>
	<g>
		<g>
			<radialGradient id="SVGID_1_" cx="500.0005" cy="401.6783" r="628.3417" gradientUnits="userSpaceOnUse">
				<stop  offset="0" style="stop-color:#231F20"/>
				<stop  offset="0.3161" style="stop-color:#1F1C1C"/>
				<stop  offset="0.6216" style="stop-color:#141112"/>
				<stop  offset="0.9227" style="stop-color:#000000"/>
				<stop  offset="0.9243" style="stop-color:#000000"/>
			</radialGradient>
			<path class="st0" d="M499.3,66.9c-1.7,0-170.5-3-323.1,71.5c-8,65.4-33.6,346.9,95.3,509.4c113,142.5,194.2,225.3,228.6,258.5
				c46-45.9,129.1-133.4,228.3-258.5c128.9-162.5,103.3-444,95.3-509.4C671.2,63.9,502.4,66.8,500.7,66.9L500,39.3L499.3,66.9z"/>
		</g>
		<radialGradient id="SVGID_2_" cx="507.0164" cy="425.3129" r="522.8678" gradientUnits="userSpaceOnUse">
			<stop  offset="0" style="stop-color:#632A18"/>
			<stop  offset="1" style="stop-color:#CC4732"/>
		</radialGradient>
		<path class="st1" d="M491.1,993.2c-28.9-26.3-140.9-138.7-271.9-303.9C149.6,601.5,110.5,477.6,103,321
			c-5.5-114.4,8.6-203.4,9.2-207.1l3.1-19.3l17.4-9C289.1,4.1,461.2,0,494.1,0c2.8,0,4.7,0,5.9,0c1.1,0,3.1,0,5.8,0
			C538.7,0,711,4.1,867.3,85.5l17.4,9l3.1,19.3c0.6,3.7,14.7,92.7,9.2,207.1c-7.5,156.6-46.6,280.5-116.2,368.3
			C625.1,885.6,510.9,989,506.1,993.3l-7.5,6.7L491.1,993.2z M186.6,145.7c-7.7,67.6-29.6,339.7,93.7,495.1
			C383.7,771.3,459.9,851.2,500,890.6c43.8-44.2,124.5-129.8,219.7-249.8C843,485.4,821.1,213.3,813.4,145.7
			C685.7,85.1,549.3,78.6,510.2,78l0,0.2L500.1,78l-10.3,0.2l0-0.2C450.6,78.6,314.2,85.1,186.6,145.7z"/>
		<radialGradient id="SVGID_3_" cx="506.8209" cy="425.3241" r="508.8964" gradientUnits="userSpaceOnUse">
			<stop  offset="0" style="stop-color:#CC4732"/>
			<stop  offset="0.1852" style="stop-color:#C84631"/>
			<stop  offset="0.3646" style="stop-color:#BC432E"/>
			<stop  offset="0.5417" style="stop-color:#A93D29"/>
			<stop  offset="0.7174" style="stop-color:#8E3623"/>
			<stop  offset="0.8904" style="stop-color:#6B2C1A"/>
			<stop  offset="0.9243" style="stop-color:#632A18"/>
		</radialGradient>
		<path class="st2" d="M876.8,115.7l-2.2-13.8l-12.4-6.5C696.7,9.3,514.5,10.9,500,11.2c-14.3-0.3-196.6-2-362.2,84.2l-12.4,6.5
			l-2.2,13.8c-0.6,3.7-14.5,91.4-9,204.8c7.4,154.2,45.7,276,113.8,361.9C367.6,858.5,479.1,967.1,498.6,985l0,0
			c4.8-4.3,118.4-107.1,273.4-302.6c68.1-85.9,106.4-207.7,113.8-361.9C891.3,207.1,877.4,119.3,876.8,115.7z M728.4,647.8
			c-99.3,125.1-182.3,212.6-228.3,258.5c-34.4-33.2-115.5-116-228.6-258.5c-128.9-162.5-103.3-444-95.3-509.4
			c152.6-74.5,321.3-71.5,323.1-71.5l0.7-27.6l0.7,27.6c1.7,0,170.5-3,323.1,71.5C831.8,203.8,857.3,485.2,728.4,647.8z"/>
	</g>
	<g>
		<radialGradient id="SVGID_4_" cx="499.999" cy="725.0516" r="50.197" gradientUnits="userSpaceOnUse">
			<stop  offset="0" style="stop-color:#FFF48D"/>
			<stop  offset="0.1171" style="stop-color:#FFF189"/>
			<stop  offset="0.2306" style="stop-color:#FEE67D"/>
			<stop  offset="0.3425" style="stop-color:#FDD56A"/>
			<stop  offset="0.4529" style="stop-color:#FCBD4F"/>
			<stop  offset="0.5027" style="stop-color:#FBB040"/>
		</radialGradient>
		<polygon class="st3" points="500,757.3 468.2,774 474.3,738.6 448.6,713.5 484.1,708.3 500,676.1 515.9,708.3 551.4,713.5 
			525.7,738.6 531.8,774 		"/>
		<radialGradient id="SVGID_5_" cx="499.9989" cy="726.2523" r="38.5217" gradientUnits="userSpaceOnUse">
			<stop  offset="0" style="stop-color:#CC4732"/>
			<stop  offset="0.1852" style="stop-color:#C84631"/>
			<stop  offset="0.3646" style="stop-color:#BC432E"/>
			<stop  offset="0.5417" style="stop-color:#A93D29"/>
			<stop  offset="0.7174" style="stop-color:#8E3623"/>
			<stop  offset="0.8904" style="stop-color:#6B2C1A"/>
			<stop  offset="0.9243" style="stop-color:#632A18"/>
		</radialGradient>
		<polygon class="st4" points="500,688.7 512.2,713.4 539.5,717.4 519.7,736.6 524.4,763.8 500,751 475.6,763.8 480.3,736.6 
			460.5,717.4 487.8,713.4 		"/>
	</g>
	<g>
		<radialGradient id="SVGID_6_" cx="598.4868" cy="686.5952" r="30.2561" gradientUnits="userSpaceOnUse">
			<stop  offset="0" style="stop-color:#FFF48D"/>
			<stop  offset="0.1171" style="stop-color:#FFF189"/>
			<stop  offset="0.2306" style="stop-color:#FEE67D"/>
			<stop  offset="0.3425" style="stop-color:#FDD56A"/>
			<stop  offset="0.4529" style="stop-color:#FCBD4F"/>
			<stop  offset="0.5027" style="stop-color:#FBB040"/>
		</radialGradient>
		<polygon class="st5" points="598.5,706 579.3,716.1 583,694.7 567.5,679.6 588.9,676.5 598.5,657.1 608.1,676.5 629.5,679.6 
			614,694.7 617.6,716.1 		"/>
		<radialGradient id="SVGID_7_" cx="598.4867" cy="687.3188" r="23.2189" gradientUnits="userSpaceOnUse">
			<stop  offset="0" style="stop-color:#CC4732"/>
			<stop  offset="0.1852" style="stop-color:#C84631"/>
			<stop  offset="0.3646" style="stop-color:#BC432E"/>
			<stop  offset="0.5417" style="stop-color:#A93D29"/>
			<stop  offset="0.7174" style="stop-color:#8E3623"/>
			<stop  offset="0.8904" style="stop-color:#6B2C1A"/>
			<stop  offset="0.9243" style="stop-color:#632A18"/>
		</radialGradient>
		<polygon class="st6" points="598.5,664.7 605.8,679.6 622.3,682 610.4,693.6 613.2,709.9 598.5,702.2 583.8,709.9 586.6,693.6 
			574.7,682 591.1,679.6 		"/>
	</g>
	<g>
		<radialGradient id="SVGID_8_" cx="401.511" cy="685.8714" r="30.2561" gradientUnits="userSpaceOnUse">
			<stop  offset="0" style="stop-color:#FFF48D"/>
			<stop  offset="0.1171" style="stop-color:#FFF189"/>
			<stop  offset="0.2306" style="stop-color:#FEE67D"/>
			<stop  offset="0.3425" style="stop-color:#FDD56A"/>
			<stop  offset="0.4529" style="stop-color:#FCBD4F"/>
			<stop  offset="0.5027" style="stop-color:#FBB040"/>
		</radialGradient>
		<polygon class="st7" points="401.5,705.3 382.3,715.4 386,694 370.5,678.9 391.9,675.8 401.5,656.4 411.1,675.8 432.5,678.9 
			417,694 420.7,715.4 		"/>
		<radialGradient id="SVGID_9_" cx="401.5109" cy="686.5952" r="23.2189" gradientUnits="userSpaceOnUse">
			<stop  offset="0" style="stop-color:#CC4732"/>
			<stop  offset="0.1852" style="stop-color:#C84631"/>
			<stop  offset="0.3646" style="stop-color:#BC432E"/>
			<stop  offset="0.5417" style="stop-color:#A93D29"/>
			<stop  offset="0.7174" style="stop-color:#8E3623"/>
			<stop  offset="0.8904" style="stop-color:#6B2C1A"/>
			<stop  offset="0.9243" style="stop-color:#632A18"/>
		</radialGradient>
		<polygon class="st8" points="401.5,664 408.9,678.9 425.3,681.3 413.4,692.8 416.2,709.2 401.5,701.5 386.8,709.2 389.6,692.8 
			377.7,681.3 394.2,678.9 		"/>
	</g>
	<g>
		<radialGradient id="SVGID_10_" cx="499.9989" cy="212.3277" r="48.4826" gradientUnits="userSpaceOnUse">
			<stop  offset="0" style="stop-color:#12C7BA"/>
			<stop  offset="1" style="stop-color:#94FFF2"/>
		</radialGradient>
		<polygon class="st9" points="446.9,255.7 497.2,212.3 446.9,169 553.1,169 502.8,212.3 553.1,255.7 		"/>
		<radialGradient id="SVGID_11_" cx="499.9989" cy="211.8633" r="43.6094" gradientUnits="userSpaceOnUse">
			<stop  offset="0" style="stop-color:#94FFF2"/>
			<stop  offset="1" style="stop-color:#12C7BA"/>
		</radialGradient>
		<polygon class="st10" points="548.2,170.8 451.8,170.8 500,212.3 451.8,253.8 548.2,253.8 500,212.3 		"/>
	</g>
	<g>
		<radialGradient id="SVGID_12_" cx="499.9989" cy="402.6905" r="221.4145" gradientUnits="userSpaceOnUse">
			<stop  offset="0" style="stop-color:#FFF48D"/>
			<stop  offset="0.1171" style="stop-color:#FFF189"/>
			<stop  offset="0.2306" style="stop-color:#FEE67D"/>
			<stop  offset="0.3425" style="stop-color:#FDD56A"/>
			<stop  offset="0.4529" style="stop-color:#FCBD4F"/>
			<stop  offset="0.5027" style="stop-color:#FBB040"/>
		</radialGradient>
		<path class="st11" d="M481.3,620.8l-1.7-1.1c-0.2,0-0.4-0.1-0.6-0.1c-22.8-5.2-34.6-19.4-35.2-42.3c-5.2-3.1-9.6-7.7-14.2-12.6
			c-7.4-7.8-15.7-16.5-29.5-21.4c-10.2-3.9-17.5-10.9-21.5-20.5c-6.6-15.7-3.2-35.7,2.6-53.1c-0.3,0-0.7,0-1,0
			c-6.3,0-12.9-0.7-19.5-2.2c-10.8-2-22.1-7.2-26.4-9.3l-23.4-11.6c0,0,25.3-11.6,26.1-11.9c-55.2-8.8-59-44.4-61.5-66.7l-0.1-0.7
			c-1.5-27,8.5-45.8,17.3-62.3c11.9-22.3,22.1-41.6,5.2-81.5l-0.3-0.7c-0.4-1-0.8-1.9-1.2-2.9l-12.1-34.4l30.5,19.9
			c0.5,0.3,45,33.8,39.3,74.9c-1.5,9.7-5.1,19.6-8.5,29.1c-6.4,17.7-12.5,34.5-5.1,46.5c0.2,0.3,0.4,0.6,0.5,0.9
			c3.8-0.8,11.8-4.3,17.9-6.8c11.2-4.8,25.2-10.7,40.7-14.5c8.8-13.5,27-20.7,39.5-24.2l1.7-10.2c0.9,0,1.8,0,2.6,0
			c18.1,0,37.1,5.1,56.6,15.3c24-12.6,43.9-15.3,56.7-15.3l1.9,0l-0.2,8.4l2.1,1.7c1.1,0.3,2.4,0.7,3.8,1.1
			c2.3,0.6,25.7,7.2,36.1,23.2c3.7,0.9,9.7,2.5,20.1,6.2c7.3,2.7,14.1,5.6,20.1,8.1c7.4,3.2,13.9,5.9,18.4,6.9
			c7.5-10.9,3.2-25.5-4.8-48c-2.4-6.7-4.8-13.6-6.8-20.7l-0.2-0.7c-2.5-11.5-2.9-20.8,2.1-34.9c8.1-21.8,27.3-41.2,35.9-46.8
			l31.7-20.8l-13.3,35.5c-0.1,0.4-0.4,1-0.8,2c-10.9,25.6-10.6,42.5-8.5,52.1c1.7,8,6.4,17.3,11.3,27c11.3,22.6,25.5,50.7,16.1,86.4
			c-5,18.9-19.3,40.9-58.1,47.2c2.7,1.3,3.2,1.6,4,2.2l9.1,6.8l-6,9.7c-5.1,8.4-33.2,16.2-51.2,16.2c-0.2,0-0.4,0-0.6,0
			c17,52.8-5.3,69.1-20.3,74.1c-12.1,4.1-20.4,12.8-27.7,20.5c-4.8,5-9.4,9.8-14.7,13c-0.3,8.2-2.3,21.5-12.6,31.4
			c-4.6,4.7-11,8.2-18.5,10l-1.9,2.2H481.3z"/>
		
			<radialGradient id="SVGID_13_" cx="499.9989" cy="412.7708" r="204.4861" fx="499.5398" fy="472.131" gradientUnits="userSpaceOnUse">
			<stop  offset="0" style="stop-color:#CC4732"/>
			<stop  offset="0.1852" style="stop-color:#C84631"/>
			<stop  offset="0.3646" style="stop-color:#BC432E"/>
			<stop  offset="0.5417" style="stop-color:#A93D29"/>
			<stop  offset="0.7174" style="stop-color:#8E3623"/>
			<stop  offset="0.8904" style="stop-color:#6B2C1A"/>
			<stop  offset="0.9243" style="stop-color:#632A18"/>
		</radialGradient>
		<path class="st12" d="M308.1,216.4c4.2,2.7,38.1,32,33.8,62.8c-4,26.1-27.5,58.6-11.9,83.8c2.8,4.5,4.8,7.1,9.2,6.9
			c10.9,0.4,34.9-15.1,63.9-22c3.4-0.9,4.5-0.4,5.7-3c5.9-12.6,26.8-20,40.7-22.9c1.1-0.3,4.8-0.5,3.5-2.8
			c-0.8-1.1-2.3-1.7-11.9-5.2c31.1-0.9,57.5,16.5,58.9,16.9c1.3-0.4,27.5-17.6,58.3-16.9l0.3-0.2c-0.1,0.1-0.2,0.4-0.3,0.6
			c-1.1,0.1-7.6,2.7-8.8,3.3c-1.5,0.7-3.1,1.3-2.5,3c0.7,1.5,2.7,0.6,13.6,4c7.6,2,24.7,8.9,30.3,19.8c2.6,4.9,0.1,0.3,25.3,9.5
			c16.9,6.1,30.8,13.6,40.6,15.6c7.8,1.5,9.2-1.3,11.5-4.3c16.3-22.4-1.1-51-9.2-80c-2.1-9.8-2.4-16.9,1.6-28.2
			c7.1-19.1,24.8-36.5,31-40.6c-1.2,3.3-15.8,33.6-9.8,61.1c6.3,29.1,39.6,61.4,27.5,107.6c-14.5,55.1-98.3,36.6-101.3,37.7
			c-0.2,0.1-0.5,0.2-0.5,0.5c-0.1,0.5,0.2,0.8,0.6,1.1c2.4,1.8,50.1,22.1,51.7,23.3c-0.9,1.5-30.9,15.3-55.5,8.5
			c-0.8-0.2-1.6-0.6-2.5-0.7c-3.3,1-1.1,1.5,4.9,18.2c7.7,23.5,11,51.2-12.3,59.1c-25.9,8.9-36.1,32.9-48.7,36.4
			c-1.1,0.3-2.1,1.3-2.1,2.5c0,3.3,1.3,19-8.8,28.8c-4.1,4.1-9.7,6.5-15.4,7.5c-0.8,0.1-1.5,0.7-2,1.3h-32.8
			c-3.1-2-29.3-1.4-28.8-33.9c0-4.9,1.1-5-3.1-6.5c-12.3-4.4-21.2-26.7-48.8-36.4c-26.1-10-16.9-46.9-5.7-72.6
			c0.5-1.1,1-2.2,0.7-3.4c-0.7-1.3-4-0.1-4.4,0c-10.2,2.6-21.2,2.1-31.5-0.1c-11.4-2.1-23.5-8.3-23.7-8.4
			c43.4-19.6,51.4-21.8,50.9-24.1c-1.8-1.3-11.6,1.1-28.1,1.3c-68.5-0.7-72-33.4-74.7-57.7c-3.2-58,53.9-71.8,21.5-148
			C308.9,218.3,308.4,217.4,308.1,216.4z"/>
	</g>
</g>
</svg>
