<?xml version="1.0" encoding="utf-8"?>
<!-- Generator: Adobe Illustrator 25.2.1, SVG Export Plug-In . SVG Version: 6.00 Build 0)  -->
<svg version="1.1" id="Layer_1" xmlns="http://www.w3.org/2000/svg" xmlns:xlink="http://www.w3.org/1999/xlink" x="0px" y="0px"
	 viewBox="0 0 1056.5 1000" style="enable-background:new 0 0 1056.5 1000;" xml:space="preserve">
<style type="text/css">
	.st0{fill:url(#SVGID_1_);}
	.st1{fill:url(#SVGID_2_);}
	.st2{fill:url(#SVGID_3_);}
	.st3{fill:url(#SVGID_4_);}
	.st4{fill:url(#SVGID_5_);}
	.st5{fill:url(#SVGID_6_);}
	.st6{fill:url(#SVGID_7_);}
	.st7{fill:url(#SVGID_8_);}
	.st8{fill:url(#SVGID_9_);}
	.st9{fill-rule:evenodd;clip-rule:evenodd;fill:url(#path1872-7_1_);}
	.st10{fill-rule:evenodd;clip-rule:evenodd;fill:url(#path2784-4_1_);}
	.st11{fill-rule:evenodd;clip-rule:evenodd;fill:url(#path2790-0_1_);}
	.st12{fill-rule:evenodd;clip-rule:evenodd;fill:url(#path2796-9_1_);}
	.st13{fill-rule:evenodd;clip-rule:evenodd;fill:url(#path2802-4_1_);}
	.st14{fill-rule:evenodd;clip-rule:evenodd;fill:url(#path2808-8_1_);}
	.st15{fill-rule:evenodd;clip-rule:evenodd;fill:url(#path2814-8_1_);}
	.st16{fill-rule:evenodd;clip-rule:evenodd;fill:url(#path2820-2_1_);}
	.st17{fill-rule:evenodd;clip-rule:evenodd;fill:url(#path2826-4_1_);}
	.st18{fill-rule:evenodd;clip-rule:evenodd;fill:url(#path2832-5_1_);}
	.st19{fill-rule:evenodd;clip-rule:evenodd;fill:url(#path2838-5_1_);}
	.st20{fill-rule:evenodd;clip-rule:evenodd;fill:url(#path2844-1_1_);}
	.st21{fill-rule:evenodd;clip-rule:evenodd;fill:url(#path2850-7_1_);}
	.st22{fill-rule:evenodd;clip-rule:evenodd;fill:url(#path2856-1_1_);}
	.st23{fill-rule:evenodd;clip-rule:evenodd;fill:url(#path2862-1_1_);}
	.st24{fill-rule:evenodd;clip-rule:evenodd;fill:url(#path2868-5_1_);}
	.st25{fill-rule:evenodd;clip-rule:evenodd;fill:url(#path2874-2_1_);}
	.st26{fill-rule:evenodd;clip-rule:evenodd;fill:url(#path1872_1_);}
	.st27{fill-rule:evenodd;clip-rule:evenodd;fill:url(#path2784_1_);}
	.st28{fill-rule:evenodd;clip-rule:evenodd;fill:url(#path2790_1_);}
	.st29{fill-rule:evenodd;clip-rule:evenodd;fill:url(#path2796_1_);}
	.st30{fill-rule:evenodd;clip-rule:evenodd;fill:url(#path2802_1_);}
	.st31{fill-rule:evenodd;clip-rule:evenodd;fill:url(#path2808_1_);}
	.st32{fill-rule:evenodd;clip-rule:evenodd;fill:url(#path2814_1_);}
	.st33{fill-rule:evenodd;clip-rule:evenodd;fill:url(#path2820_1_);}
	.st34{fill-rule:evenodd;clip-rule:evenodd;fill:url(#path2826_1_);}
	.st35{fill-rule:evenodd;clip-rule:evenodd;fill:url(#path2832_1_);}
	.st36{fill-rule:evenodd;clip-rule:evenodd;fill:url(#path2838_1_);}
	.st37{fill-rule:evenodd;clip-rule:evenodd;fill:url(#path2844_1_);}
	.st38{fill-rule:evenodd;clip-rule:evenodd;fill:url(#path2850_1_);}
	.st39{fill-rule:evenodd;clip-rule:evenodd;fill:url(#path2856_1_);}
	.st40{fill-rule:evenodd;clip-rule:evenodd;fill:url(#path2862_1_);}
	.st41{fill-rule:evenodd;clip-rule:evenodd;fill:url(#path2868_1_);}
	.st42{fill-rule:evenodd;clip-rule:evenodd;fill:url(#path2874_1_);}
	.st43{fill:url(#path3042_1_);}
	.st44{fill:url(#SVGID_10_);}
	.st45{fill:url(#SVGID_11_);}
	.st46{fill:url(#SVGID_12_);}
	.st47{fill:url(#SVGID_13_);}
	.st48{fill:url(#SVGID_14_);}
	.st49{fill:url(#SVGID_15_);}
	.st50{fill:url(#SVGID_16_);}
	.st51{fill:url(#SVGID_17_);}
	.st52{fill:url(#SVGID_18_);}
	.st53{fill:url(#SVGID_19_);}
</style>
<g>
	<g>
		<radialGradient id="SVGID_1_" cx="528.239" cy="335.5756" r="327.1878" gradientUnits="userSpaceOnUse">
			<stop  offset="0" style="stop-color:#12C7BA"/>
			<stop  offset="1" style="stop-color:#94FFF2"/>
		</radialGradient>
		<path class="st0" d="M500.6,657.9l-2.6-1.7c-0.3-0.1-0.5-0.1-0.8-0.2c-33.7-7.6-51.2-28.6-52-62.5c-7.7-4.6-14.2-11.4-21-18.6
			c-10.9-11.5-23.2-24.4-43.6-31.7c-15-5.7-25.9-16.2-31.8-30.3c-9.7-23.3-4.8-52.7,3.8-78.4c-0.5,0-1,0-1.5,0
			c-9.3,0-19-1.1-28.9-3.3c-16-2.9-32.6-10.6-39-13.8l-34.6-17.1c0,0,37.4-17.1,38.6-17.7c-81.5-13-87.3-65.6-90.8-98.6l-0.1-1
			c-2.2-39.8,12.6-67.6,25.6-92.1c17.5-33,32.6-61.5,7.6-120.4l-0.4-1c-0.6-1.4-1.3-2.8-1.8-4.3l-17.9-50.8L254.6,44
			c0.7,0.4,66.5,49.9,58.1,110.6c-2.2,14.4-7.5,29-12.6,43c-9.5,26.2-18.5,51-7.5,68.7c0.3,0.5,0.6,0.9,0.8,1.3
			c5.7-1.2,17.5-6.3,26.4-10.1c16.6-7.1,37.2-15.8,60.1-21.4c13-20,39.9-30.6,58.3-35.8l2.5-15.1c1.3,0,2.6-0.1,3.9-0.1
			c26.8,0,54.9,7.6,83.7,22.6c35.5-18.6,64.9-22.6,83.7-22.6l2.8,0l-0.3,12.4l3.2,2.5c1.7,0.5,3.5,1,5.6,1.7
			c3.4,0.9,38,10.6,53.3,34.3c5.5,1.3,14.4,3.6,29.7,9.2c10.8,3.9,20.8,8.2,29.6,12c11,4.7,20.5,8.8,27.1,10.3
			c11.2-16.1,4.8-37.6-7-71c-3.5-9.9-7.1-20.2-10.1-30.6l-0.3-1.1c-3.6-16.9-4.3-30.8,3.1-51.6c12-32.2,40.4-60.9,53-69.2l46.8-30.7
			L829,65.7c-0.2,0.6-0.6,1.5-1.2,2.9c-16,37.8-15.7,62.7-12.5,77c2.6,11.9,9.4,25.5,16.7,40c16.8,33.4,37.6,75,23.7,127.6
			c-7.4,27.9-28.6,60.4-85.8,69.8c4,1.9,4.7,2.4,5.8,3.2l13.5,10l-8.8,14.3c-7.6,12.4-49.1,24-75.7,24c-0.3,0-0.5,0-0.8,0
			c25.2,78-7.9,102.1-29.9,109.5c-17.8,6.1-30.1,19-40.9,30.3c-7,7.4-13.8,14.5-21.7,19.2c-0.5,12.1-3.4,31.7-18.6,46.3
			c-6.8,6.9-16.3,12.1-27.3,14.8l-2.8,3.2H500.6z"/>
		
			<radialGradient id="SVGID_2_" cx="528.239" cy="350.4715" r="302.1724" fx="527.5607" fy="438.1889" gradientUnits="userSpaceOnUse">
			<stop  offset="0" style="stop-color:#94FFF2"/>
			<stop  offset="1" style="stop-color:#12C7BA"/>
		</radialGradient>
		<path class="st1" d="M244.7,60.3c6.2,4,56.2,47.3,50,92.8c-5.9,38.5-40.6,86.7-17.5,123.9c4.1,6.7,7.2,10.5,13.6,10.2
			c16.1,0.6,51.6-22.2,94.4-32.5c5.1-1.4,6.7-0.6,8.4-4.5c8.8-18.7,39.6-29.5,60.1-33.9c1.7-0.4,7.1-0.8,5.2-4.1
			c-1.2-1.6-3.4-2.5-17.6-7.7c46-1.3,84.9,24.4,87.1,25c1.9-0.6,40.7-26,86.1-25l0.4-0.3c-0.1,0.2-0.3,0.6-0.4,0.8
			c-1.7,0.2-11.2,4-13,4.8c-2.2,1-4.6,2-3.7,4.5c1,2.2,4.1,1,20.1,6c11.2,3,36.5,13.1,44.8,29.2c3.8,7.2,0.1,0.5,37.4,14
			c25,9,45.5,20.2,60.1,23.1c11.6,2.3,13.7-2,17.1-6.4c24-33-1.7-75.3-13.6-118.2c-3.1-14.5-3.5-25,2.4-41.7
			c10.5-28.2,36.7-54,45.8-60c-1.8,4.9-23.4,49.7-14.4,90.3c9.3,43.1,58.6,90.7,40.6,159c-21.4,81.4-145.3,54.1-149.7,55.7
			c-0.3,0.1-0.8,0.2-0.7,0.7c-0.2,0.7,0.3,1.2,0.9,1.6c3.6,2.7,74,32.7,76.4,34.4c-1.4,2.2-45.7,22.6-82.1,12.5
			c-1.2-0.3-2.4-0.8-3.7-1c-4.8,1.5-1.6,2.2,7.2,27c11.4,34.7,16.3,75.7-18.1,87.3c-38.3,13.1-53.3,48.6-72,53.7
			c-1.7,0.4-3.1,2-3.1,3.8c-0.1,4.9,2,28.1-13,42.5c-6,6.1-14.3,9.6-22.7,11c-1.2,0.2-2.2,1-2.9,1.9H506
			c-4.6-2.9-43.3-2.1-42.5-50.1c0-7.3,1.6-7.4-4.5-9.6c-18.1-6.5-31.3-39.4-72.1-53.9c-38.5-14.7-25-69.3-8.4-107.3
			c0.8-1.6,1.5-3.3,1-5.1c-1.1-1.9-5.9-0.2-6.5,0c-15,3.9-31.3,3.2-46.6-0.2c-16.8-3.1-34.7-12.3-35.1-12.4
			c64.1-29,76-32.2,75.3-35.6c-2.7-2-17.2,1.7-41.5,1.9c-101.2-1-106.4-49.4-110.3-85.2c-4.7-85.7,79.6-106.1,31.8-218.7
			C245.9,63.1,245.2,61.8,244.7,60.3z"/>
	</g>
	<g>
		
			<radialGradient id="SVGID_3_" cx="1956.0413" cy="441.3135" r="327.3384" gradientTransform="matrix(-1 0 0 -1 2484.2803 891.8337)" gradientUnits="userSpaceOnUse">
			<stop  offset="0" style="stop-color:#12C7BA"/>
			<stop  offset="1" style="stop-color:#94FFF2"/>
		</radialGradient>
		<path class="st2" d="M555.9,128.1l2.6,1.7c0.3,0.1,0.5,0.1,0.8,0.2c33.7,7.6,51.2,28.6,52,62.5c7.7,4.6,14.2,11.4,21,18.6
			c10.9,11.5,23.2,24.5,43.6,31.7c15,5.8,25.9,16.2,31.8,30.3c9.7,23.3,4.8,52.8-3.8,78.5c0.5,0,1,0,1.5,0c9.3,0,19,1.1,28.9,3.3
			c16,2.9,32.6,10.6,39,13.8l34.6,17.2c0,0-37.5,17.1-38.7,17.7c81.6,13,87.3,65.6,90.9,98.6l0.1,1c2.2,39.8-12.6,67.6-25.6,92.2
			c-17.5,33-32.7,61.5-7.6,120.5l0.4,1c0.6,1.4,1.3,2.8,1.8,4.3l17.9,50.8L802,742.3c-0.7-0.4-66.5-49.9-58.1-110.7
			c2.2-14.4,7.5-29,12.6-43.1c9.5-26.2,18.5-51,7.5-68.7c-0.3-0.5-0.6-0.9-0.8-1.3c-5.7,1.3-17.5,6.3-26.4,10.1
			c-16.6,7.1-37.2,15.8-60.1,21.4c-13,20-39.9,30.7-58.3,35.8l-2.5,15.1c-1.3,0-2.6,0.1-3.9,0.1c-26.8,0-54.9-7.6-83.7-22.6
			C492.7,597,463.3,601,444.4,601l-2.8,0l0.3-12.4l-3.2-2.5c-1.7-0.5-3.5-1-5.6-1.7c-3.4-0.9-38-10.6-53.3-34.3
			c-5.5-1.3-14.4-3.6-29.8-9.2c-10.8-3.9-20.8-8.2-29.6-12c-11-4.7-20.5-8.8-27.1-10.3c-11.2,16.1-4.8,37.7,7,71
			c3.5,9.9,7.1,20.2,10.1,30.7l0.3,1.1c3.6,16.9,4.3,30.8-3.1,51.6c-12,32.2-40.4,60.9-53,69.2L207.6,773l19.7-52.5
			c0.2-0.6,0.6-1.5,1.2-2.9c16.1-37.8,15.7-62.8,12.5-77.1c-2.6-11.9-9.4-25.5-16.7-40c-16.8-33.4-37.6-75-23.8-127.7
			c7.4-28,28.6-60.5,85.9-69.8c-4-1.9-4.7-2.4-5.8-3.2l-13.5-10l8.8-14.3c7.6-12.4,49.1-24,75.7-24c0.3,0,0.5,0,0.8,0
			c-25.2-78.1,7.9-102.1,29.9-109.5c17.9-6.1,30.1-19,40.9-30.3c7.1-7.4,13.8-14.5,21.7-19.2c0.5-12.1,3.4-31.7,18.6-46.4
			c6.8-6.9,16.3-12.1,27.3-14.8l2.8-3.2H555.9z"/>
		
			<radialGradient id="SVGID_4_" cx="1956.0413" cy="456.2163" r="302.3115" fx="1955.3625" fy="543.9742" gradientTransform="matrix(-1 0 0 -1 2484.2803 891.8337)" gradientUnits="userSpaceOnUse">
			<stop  offset="0" style="stop-color:#94FFF2"/>
			<stop  offset="1" style="stop-color:#12C7BA"/>
		</radialGradient>
		<path class="st3" d="M811.9,725.9c-6.2-4-56.3-47.3-50-92.9c5.9-38.5,40.6-86.7,17.5-123.9c-4.1-6.7-7.2-10.5-13.6-10.2
			c-16.1-0.6-51.6,22.3-94.5,32.5c-5.1,1.4-6.7,0.6-8.4,4.5c-8.8,18.7-39.6,29.5-60.2,33.9c-1.7,0.4-7.2,0.8-5.2,4.1
			c1.2,1.6,3.4,2.5,17.6,7.7c-46,1.3-85-24.4-87.1-25c-1.9,0.6-40.7,26-86.2,25.1l-0.4,0.3c0.1-0.2,0.3-0.6,0.4-0.8
			c1.7-0.2,11.2-4,13.1-4.8c2.2-1,4.6-2,3.7-4.5c-1-2.2-4.1-1-20.1-6c-11.2-3-36.5-13.1-44.8-29.2c-3.8-7.2-0.1-0.5-37.5-14
			c-25-9-45.5-20.2-60.1-23.1c-11.6-2.3-13.7,2-17.1,6.4c-24,33.1,1.7,75.4,13.6,118.2c3.1,14.5,3.5,25-2.4,41.7
			c-10.5,28.2-36.7,54-45.8,60c1.8-4.9,23.4-49.7,14.4-90.3c-9.3-43.1-58.6-90.7-40.6-159.1c21.4-81.4,145.4-54.1,149.8-55.7
			c0.3-0.1,0.8-0.2,0.7-0.7c0.2-0.7-0.3-1.2-0.9-1.6c-3.6-2.7-74.1-32.7-76.4-34.4c1.4-2.2,45.7-22.6,82.1-12.5
			c1.2,0.3,2.4,0.8,3.7,1c4.8-1.5,1.6-2.2-7.2-27c-11.4-34.7-16.3-75.7,18.1-87.3c38.3-13.2,53.4-48.6,72-53.8
			c1.7-0.4,3.1-2,3.1-3.8c0.1-4.9-2-28.1,13-42.5c6-6.1,14.3-9.6,22.7-11c1.2-0.2,2.2-1,2.9-1.9h48.5c4.6,2.9,43.3,2.1,42.6,50.1
			c0,7.3-1.6,7.4,4.5,9.6c18.1,6.5,31.3,39.4,72.2,53.9c38.5,14.7,25,69.4,8.4,107.3c-0.8,1.6-1.5,3.3-1,5.1c1.1,1.9,5.9,0.2,6.6,0
			c15-3.9,31.3-3.2,46.6,0.2c16.8,3.1,34.7,12.3,35.1,12.4c-64.2,29-76,32.3-75.3,35.6c2.7,2,17.2-1.7,41.5-1.9
			c101.2,1,106.5,49.4,110.4,85.3c4.7,85.7-79.6,106.1-31.8,218.8C810.8,723.1,811.4,724.5,811.9,725.9z"/>
	</g>
	<g>
		<g>
			<radialGradient id="SVGID_5_" cx="527.3836" cy="426.3732" r="640.3635" gradientUnits="userSpaceOnUse">
				<stop  offset="0" style="stop-color:#231F20"/>
				<stop  offset="0.3161" style="stop-color:#1F1C1C"/>
				<stop  offset="0.6216" style="stop-color:#141112"/>
				<stop  offset="0.9227" style="stop-color:#000000"/>
				<stop  offset="0.9243" style="stop-color:#000000"/>
			</radialGradient>
			<path class="st4" d="M420.2,141c-20.6,42.3-135.9,207.7-224.5,193c-6.2,152.3,135.6,333.2,127,407.6
				c37.4,48.2,176,173.8,206.1,202.8c40.2-40.1,93.2-49.1,180-158.6c26.4-119.1,136.7-259.5,150.5-437.1
				c-84.7-35.4-311.6-225.9-273.7-244.2l-57.3-50.2L420.2,141z"/>
		</g>
		<radialGradient id="SVGID_6_" cx="528.239" cy="500" r="437.8128" gradientUnits="userSpaceOnUse">
			<stop  offset="0" style="stop-color:#220D3A"/>
			<stop  offset="1" style="stop-color:#7634D6"/>
		</radialGradient>
		<path class="st5" d="M488.1,968.9c-0.3-0.2-29.7-24.5-60.5-53.1c-59.6-55.4-71.5-77.5-75.4-93.2c-2.6-10.4-21.6-29.2-37.1-39.6
			l-21.3-14.3l6.2-24.9c7.6-30.4,5.6-54.1-5.8-70.5c-17.9-25.5-55.5-30-55.9-30.1l-34.9-3.2l2.1-35.2
			c3.3-60.2-38.3-146.4-38.7-147.3l-3.7-7.6l0-8.4v-153l64.9,11.8c3.6,0.7,7.2,1,10.8,1c14,0,27.7-5,38.5-14
			c13.7-11.5,21.6-28.3,21.6-46.2v-23.9L486.2,39.1L528.2,0l42,39l187.3,178.2v23.9c0,17.9,7.9,34.7,21.6,46.2
			c10.8,9,24.5,14,38.5,14c3.6,0,7.2-0.3,10.8-1l64.9-11.8v161.5l-3.7,7.6c-0.4,0.8-42,87.2-38.7,147.3l2,35.1l-35,3.3
			c-0.2,0-37.8,4.6-55.6,30c-11.5,16.4-13.4,40.1-5.8,70.5l6.2,25l-21.4,14.3c-15.4,10.4-34.4,29.1-37,39.5
			c-3.9,15.7-15.8,37.8-75.4,93.2c-30.8,28.6-60.2,52.9-60.5,53.1l-40.1,31.1L488.1,968.9z M422.7,803.8
			c5.3,11.9,50.4,57.5,105.5,103.5c55.1-46,100.2-91.6,105.5-103.5c7.2-27.1,28.7-50.4,47.2-66.2c-6-41.7,1.4-77.6,22-106.7
			c21.3-30,51.9-45.3,75.9-53.1c5.4-59.9,32-123.1,41.6-144.3v-59.2c-0.9,0-1.8,0-2.8,0c-31.1,0-61.3-11-85.3-31
			c-28.3-23.6-45.5-57.9-47.6-94.6L528.2,99.8L371.7,248.8c-2.1,36.7-19.3,71-47.6,94.6c-23.9,20-54.2,31-85.3,31
			c-0.9,0-1.8,0-2.8,0v59.2c9.6,21.3,36.3,84.4,41.6,144.3c24,7.8,54.6,23.1,75.9,53.1c20.6,29.1,28,64.9,22,106.7
			C394,753.4,415.6,776.8,422.7,803.8z"/>
		<radialGradient id="SVGID_7_" cx="528.2386" cy="500.4895" r="426.444" gradientUnits="userSpaceOnUse">
			<stop  offset="0" style="stop-color:#7634D6"/>
			<stop  offset="0.1528" style="stop-color:#7433D2"/>
			<stop  offset="0.3008" style="stop-color:#6E30C6"/>
			<stop  offset="0.447" style="stop-color:#632BB3"/>
			<stop  offset="0.5919" style="stop-color:#542498"/>
			<stop  offset="0.7361" style="stop-color:#411C74"/>
			<stop  offset="0.8778" style="stop-color:#2A114A"/>
			<stop  offset="0.9243" style="stop-color:#220D3A"/>
		</radialGradient>
		<path class="st6" d="M830.2,310c-20.5,3.7-41.3-1.8-57.3-15.1c-16-13.3-25.1-32.9-25.1-53.7v-19.7L563.6,46.2l-35.4-32.9
			l-35.4,32.9L308.6,221.4v19.7c0,20.8-9.2,40.4-25.1,53.7c-16,13.3-36.8,18.9-57.3,15.1l-53.4-9.7v141.3l0,6.2l2.7,5.6
			c0.4,0.9,43.2,89.2,39.7,152.2l-1.6,25.7l25.7,2.4c0.4,0,42.2,4.7,62.9,34.2c13.2,18.8,15.6,45.2,7.3,78.4l-4.5,18.3l15.6,10.5
			c14.9,10,37.4,30.6,41.1,45.3c3.4,13.6,14.7,34.7,72.6,88.4c30.2,28,58.9,51.7,60.1,52.7l34,26.3l34-26.3
			c1.2-1,29.9-24.7,60.1-52.7c57.9-53.8,69.2-74.9,72.6-88.4c3.7-14.6,26.2-35.3,41.1-45.3l15.7-10.5l-4.6-18.3
			c-8.3-33.2-5.8-59.6,7.3-78.4c20.6-29.5,62.4-34.1,62.7-34.2l25.7-2.4l-1.4-25.8c-3.5-62.9,39.2-151.3,39.6-152.1l2.7-5.6V300.3
			L830.2,310z M830.1,435.6c-9.2,20.1-38.3,87.6-42.1,149.6c-22.3,6.3-55.2,20.5-77.1,51.4c-20,28.2-26.5,63.5-19.5,105
			c-16.5,13.5-41.3,37.6-48.4,65.3c-6.3,16.2-64.3,71.5-114.8,113.1c-50.5-41.7-108.5-96.9-114.8-113.1
			c-7.1-27.7-31.9-51.9-48.4-65.3c7-41.5,0.5-76.8-19.5-105c-21.9-30.9-54.8-45-77.1-51.4c-3.8-62-32.9-129.5-42.1-149.6V364
			c33,3.4,65.9-6.7,91.5-28.1c27.3-22.8,43.4-56,44.3-91.5l166.1-158l166.1,158c0.9,35.5,17,68.7,44.3,91.5
			c25.7,21.4,58.6,31.4,91.5,28.1V435.6z"/>
	</g>
	<g>
		<radialGradient id="SVGID_8_" cx="528.2131" cy="519.5254" r="176.7038" gradientUnits="userSpaceOnUse">
			<stop  offset="0" style="stop-color:#FFF48D"/>
			<stop  offset="0.1171" style="stop-color:#FFF189"/>
			<stop  offset="0.2306" style="stop-color:#FEE67D"/>
			<stop  offset="0.3425" style="stop-color:#FDD56A"/>
			<stop  offset="0.4529" style="stop-color:#FCBD4F"/>
			<stop  offset="0.5027" style="stop-color:#FBB040"/>
		</radialGradient>
		<path class="st7" d="M513.3,693.6l-1.4-0.9c-0.1,0-0.3-0.1-0.5-0.1c-18.2-4.1-27.6-15.5-28.1-33.7c-4.2-2.5-7.7-6.2-11.3-10
			c-5.9-6.2-12.5-13.2-23.5-17.1c-8.1-3.1-14-8.7-17.2-16.3c-5.3-12.6-2.6-28.5,2-42.4c-0.3,0-0.5,0-0.8,0c-5,0-10.3-0.6-15.6-1.8
			c-8.6-1.6-17.6-5.7-21.1-7.5l-18.7-9.3c0,0,20.2-9.2,20.9-9.5c-44-7-47.1-35.4-49.1-53.2l0-0.5c-1.2-21.5,6.8-36.5,13.8-49.8
			c9.5-17.8,17.6-33.2,4.1-65l-0.2-0.5c-0.3-0.8-0.7-1.5-1-2.3l-9.7-27.4l24.4,15.9c0.4,0.2,35.9,27,31.4,59.7
			c-1.2,7.8-4,15.6-6.8,23.2c-5.1,14.2-10,27.5-4.1,37.1c0.2,0.3,0.3,0.5,0.4,0.7c3.1-0.7,9.4-3.4,14.3-5.4
			c9-3.8,20.1-8.6,32.5-11.6c7-10.8,21.5-16.5,31.5-19.4l1.3-8.1c0.7,0,1.4,0,2.1,0c14.5,0,29.6,4.1,45.2,12.2
			c19.2-10,35-12.2,45.2-12.2l1.5,0l-0.1,6.7l1.7,1.4c0.9,0.3,1.9,0.5,3,0.9c1.8,0.5,20.5,5.7,28.8,18.5c3,0.7,7.8,2,16.1,5
			c5.9,2.1,11.2,4.4,16,6.5c5.9,2.5,11.1,4.7,14.7,5.5c6-8.7,2.6-20.3-3.8-38.3c-1.9-5.4-3.9-10.9-5.4-16.5l-0.1-0.6
			c-2-9.1-2.3-16.6,1.6-27.9c6.5-17.4,21.8-32.9,28.6-37.4l25.3-16.6l-10.6,28.3c-0.1,0.3-0.3,0.8-0.6,1.6
			c-8.7,20.4-8.5,33.9-6.8,41.6c1.4,6.4,5.1,13.8,9,21.6c9.1,18,20.3,40.5,12.8,68.9c-4,15.1-15.4,32.6-46.4,37.7
			c2.2,1,2.5,1.3,3.2,1.7l7.3,5.4l-4.8,7.7c-4.1,6.7-26.5,13-40.9,13c-0.1,0-0.3,0-0.4,0c13.6,42.1-4.3,55.1-16.2,59.1
			c-9.6,3.3-16.3,10.2-22.1,16.4c-3.8,4-7.5,7.8-11.7,10.4c-0.3,6.5-1.8,17.1-10,25c-3.7,3.8-8.8,6.5-14.7,8l-1.5,1.7H513.3z"/>
		
			<radialGradient id="SVGID_9_" cx="528.2131" cy="527.5702" r="163.1938" fx="527.8467" fy="574.9436" gradientUnits="userSpaceOnUse">
			<stop  offset="0" style="stop-color:#7634D6"/>
			<stop  offset="0.1528" style="stop-color:#7433D2"/>
			<stop  offset="0.3008" style="stop-color:#6E30C6"/>
			<stop  offset="0.447" style="stop-color:#632BB3"/>
			<stop  offset="0.5919" style="stop-color:#542498"/>
			<stop  offset="0.7361" style="stop-color:#411C74"/>
			<stop  offset="0.8778" style="stop-color:#2A114A"/>
			<stop  offset="0.9243" style="stop-color:#220D3A"/>
		</radialGradient>
		<path class="st8" d="M375.1,370.9c3.3,2.2,30.4,25.6,27,50.1c-3.2,20.8-21.9,46.8-9.5,66.9c2.2,3.6,3.9,5.7,7.3,5.5
			c8.7,0.3,27.9-12,51-17.6c2.7-0.7,3.6-0.3,4.5-2.4c4.7-10.1,21.4-15.9,32.5-18.3c0.9-0.2,3.9-0.4,2.8-2.2
			c-0.6-0.9-1.9-1.3-9.5-4.2c24.8-0.7,45.9,13.2,47,13.5c1-0.3,22-14,46.5-13.5l0.2-0.2c-0.1,0.1-0.2,0.3-0.2,0.5
			c-0.9,0.1-6,2.2-7,2.6c-1.2,0.5-2.5,1.1-2,2.4c0.5,1.2,2.2,0.5,10.9,3.2c6,1.6,19.7,7.1,24.2,15.8c2,3.9,0.1,0.3,20.2,7.6
			c13.5,4.9,24.6,10.9,32.4,12.5c6.3,1.2,7.4-1.1,9.2-3.5c13-17.8-0.9-40.7-7.3-63.8c-1.7-7.8-1.9-13.5,1.3-22.5
			c5.7-15.2,19.8-29.2,24.7-32.4c-1,2.6-12.6,26.8-7.8,48.8c5,23.3,31.6,49,21.9,85.9c-11.6,43.9-78.5,29.2-80.9,30.1
			c-0.2,0.1-0.4,0.1-0.4,0.4c-0.1,0.4,0.2,0.6,0.5,0.8c1.9,1.5,40,17.7,41.2,18.6c-0.7,1.2-24.7,12.2-44.3,6.8
			c-0.7-0.2-1.3-0.5-2-0.6c-2.6,0.8-0.9,1.2,3.9,14.6c6.1,18.7,8.8,40.9-9.8,47.1c-20.7,7.1-28.8,26.2-38.9,29
			c-0.9,0.2-1.7,1.1-1.7,2c0,2.7,1.1,15.2-7,23c-3.3,3.3-7.7,5.2-12.3,6c-0.7,0.1-1.2,0.5-1.6,1h-26.2c-2.5-1.6-23.4-1.1-23-27
			c0-3.9,0.8-4-2.4-5.2c-9.8-3.5-16.9-21.3-39-29.1c-20.8-8-13.5-37.5-4.5-57.9c0.4-0.8,0.8-1.8,0.5-2.7c-0.6-1-3.2-0.1-3.5,0
			c-8.1,2.1-16.9,1.7-25.2-0.1c-9.1-1.7-18.7-6.6-18.9-6.7c34.6-15.6,41.1-17.4,40.7-19.2c-1.5-1.1-9.3,0.9-22.4,1
			c-54.7-0.6-57.5-26.7-59.6-46c-2.5-46.3,43-57.3,17.2-118.1C375.7,372.4,375.3,371.6,375.1,370.9z"/>
	</g>
	<g>
		<g id="layer1_14_" transform="translate(91.881 -228.75)">
			<g id="g3332_14_">
				<g id="g3240-1_14_" transform="matrix(-1 0 0 1 755.44 -.88158)">
					<radialGradient id="path1872-7_1_" cx="296.0545" cy="608.4094" r="12.5032" gradientUnits="userSpaceOnUse">
						<stop  offset="0" style="stop-color:#FFF48D"/>
						<stop  offset="0.2154" style="stop-color:#FFF189"/>
						<stop  offset="0.424" style="stop-color:#FEE67D"/>
						<stop  offset="0.6298" style="stop-color:#FDD56A"/>
						<stop  offset="0.8328" style="stop-color:#FCBD4F"/>
						<stop  offset="0.9243" style="stop-color:#FBB040"/>
					</radialGradient>
					<path id="path1872-7_14_" class="st9" d="M312.3,605.4c-12.6-8.7-23-1.1-32.6,7.5C292.1,616.3,305.2,617.8,312.3,605.4z"/>
					<radialGradient id="path2784-4_1_" cx="296.5726" cy="587.1653" r="11.8636" gradientUnits="userSpaceOnUse">
						<stop  offset="0" style="stop-color:#FFF48D"/>
						<stop  offset="0.2154" style="stop-color:#FFF189"/>
						<stop  offset="0.424" style="stop-color:#FEE67D"/>
						<stop  offset="0.6298" style="stop-color:#FDD56A"/>
						<stop  offset="0.8328" style="stop-color:#FCBD4F"/>
						<stop  offset="0.9243" style="stop-color:#FBB040"/>
					</radialGradient>
					<path id="path2784-4_14_" class="st10" d="M309.3,597.9c-0.6-15.3-12.9-19.1-25.5-21.6C288.5,588.2,295.1,599.6,309.3,597.9z"
						/>
					<radialGradient id="path2790-0_1_" cx="273.3597" cy="600.3113" r="12.613" gradientUnits="userSpaceOnUse">
						<stop  offset="0" style="stop-color:#FFF48D"/>
						<stop  offset="0.2154" style="stop-color:#FFF189"/>
						<stop  offset="0.424" style="stop-color:#FEE67D"/>
						<stop  offset="0.6298" style="stop-color:#FDD56A"/>
						<stop  offset="0.8328" style="stop-color:#FCBD4F"/>
						<stop  offset="0.9243" style="stop-color:#FBB040"/>
					</radialGradient>
					<path id="path2790-0_14_" class="st11" d="M289.9,598.5c-11.8-9.7-22.9-3-33.1,4.8C268.8,607.6,281.7,610.3,289.9,598.5z"/>
					<radialGradient id="path2796-9_1_" cx="274.4265" cy="575.4125" r="12.3303" gradientUnits="userSpaceOnUse">
						<stop  offset="0" style="stop-color:#FFF48D"/>
						<stop  offset="0.2154" style="stop-color:#FFF189"/>
						<stop  offset="0.424" style="stop-color:#FEE67D"/>
						<stop  offset="0.6298" style="stop-color:#FDD56A"/>
						<stop  offset="0.8328" style="stop-color:#FCBD4F"/>
						<stop  offset="0.9243" style="stop-color:#FBB040"/>
					</radialGradient>
					<path id="path2796-9_14_" class="st12" d="M279,591.2c7.4-13.4-1.3-23-10.8-31.7C266.1,572.2,265.9,585.4,279,591.2z"/>
					<radialGradient id="path2802-4_1_" cx="252.8449" cy="588.8624" r="12.6219" gradientUnits="userSpaceOnUse">
						<stop  offset="0" style="stop-color:#FFF48D"/>
						<stop  offset="0.2154" style="stop-color:#FFF189"/>
						<stop  offset="0.424" style="stop-color:#FEE67D"/>
						<stop  offset="0.6298" style="stop-color:#FDD56A"/>
						<stop  offset="0.8328" style="stop-color:#FCBD4F"/>
						<stop  offset="0.9243" style="stop-color:#FBB040"/>
					</radialGradient>
					<path id="path2802-4_14_" class="st13" d="M269.4,590.9c-8.7-12.6-21.1-9.2-33.1-4.5C246.6,594,258.3,600,269.4,590.9
						L269.4,590.9z"/>
					<radialGradient id="path2808-8_1_" cx="257.2894" cy="563.0145" r="12.6888" gradientUnits="userSpaceOnUse">
						<stop  offset="0" style="stop-color:#FFF48D"/>
						<stop  offset="0.2154" style="stop-color:#FFF189"/>
						<stop  offset="0.424" style="stop-color:#FEE67D"/>
						<stop  offset="0.6298" style="stop-color:#FDD56A"/>
						<stop  offset="0.8328" style="stop-color:#FCBD4F"/>
						<stop  offset="0.9243" style="stop-color:#FBB040"/>
					</radialGradient>
					<path id="path2808-8_14_" class="st14" d="M257.2,579.7c11.2-10.3,6.1-22.2-0.1-33.5C251,557.6,246.6,570,257.2,579.7
						L257.2,579.7z"/>
					<radialGradient id="path2814-8_1_" cx="235.3436" cy="573.688" r="12.3296" gradientUnits="userSpaceOnUse">
						<stop  offset="0" style="stop-color:#FFF48D"/>
						<stop  offset="0.2154" style="stop-color:#FFF189"/>
						<stop  offset="0.424" style="stop-color:#FEE67D"/>
						<stop  offset="0.6298" style="stop-color:#FDD56A"/>
						<stop  offset="0.8328" style="stop-color:#FCBD4F"/>
						<stop  offset="0.9243" style="stop-color:#FBB040"/>
					</radialGradient>
					<path id="path2814-8_14_" class="st15" d="M251.2,578.5c-6.1-14-19-13-31.7-10.7C228.2,577.1,238.6,585.3,251.2,578.5z"/>
					<radialGradient id="path2820-2_1_" cx="243.6909" cy="548.5054" r="12.569" gradientUnits="userSpaceOnUse">
						<stop  offset="0" style="stop-color:#FFF48D"/>
						<stop  offset="0.2154" style="stop-color:#FFF189"/>
						<stop  offset="0.424" style="stop-color:#FEE67D"/>
						<stop  offset="0.6298" style="stop-color:#FDD56A"/>
						<stop  offset="0.8328" style="stop-color:#FCBD4F"/>
						<stop  offset="0.9243" style="stop-color:#FBB040"/>
					</radialGradient>
					<path id="path2820-2_14_" class="st16" d="M240.9,565c13-8.1,10.1-20.7,6.1-32.9C239,542,232.4,553.4,240.9,565z"/>
					<radialGradient id="path2826-4_1_" cx="221.8837" cy="555.2985" r="12.0075" gradientUnits="userSpaceOnUse">
						<stop  offset="0" style="stop-color:#FFF48D"/>
						<stop  offset="0.2154" style="stop-color:#FFF189"/>
						<stop  offset="0.424" style="stop-color:#FEE67D"/>
						<stop  offset="0.6298" style="stop-color:#FDD56A"/>
						<stop  offset="0.8328" style="stop-color:#FCBD4F"/>
						<stop  offset="0.9243" style="stop-color:#FBB040"/>
					</radialGradient>
					<path id="path2826-4_14_" class="st17" d="M236.4,563.1c-3.4-14.9-16.2-16.4-29.1-16.5C214.2,557.4,222.7,567.3,236.4,563.1z"
						/>
					<radialGradient id="path2832-5_1_" cx="236.937" cy="525.1799" r="12.3855" gradientUnits="userSpaceOnUse">
						<stop  offset="0" style="stop-color:#FFF48D"/>
						<stop  offset="0.2154" style="stop-color:#FFF189"/>
						<stop  offset="0.424" style="stop-color:#FEE67D"/>
						<stop  offset="0.6298" style="stop-color:#FDD56A"/>
						<stop  offset="0.8328" style="stop-color:#FCBD4F"/>
						<stop  offset="0.9243" style="stop-color:#FBB040"/>
					</radialGradient>
					<path id="path2832-5_14_" class="st18" d="M232.6,541.2c13.8-6.5,12.5-19.4,9.8-32C233.3,518.2,225.4,528.7,232.6,541.2z"/>
					<radialGradient id="path2838-5_1_" cx="216.8186" cy="535.6902" r="11.91" gradientUnits="userSpaceOnUse">
						<stop  offset="0" style="stop-color:#FFF48D"/>
						<stop  offset="0.2154" style="stop-color:#FFF189"/>
						<stop  offset="0.424" style="stop-color:#FEE67D"/>
						<stop  offset="0.6298" style="stop-color:#FDD56A"/>
						<stop  offset="0.8328" style="stop-color:#FCBD4F"/>
						<stop  offset="0.9243" style="stop-color:#FBB040"/>
					</radialGradient>
					<path id="path2838-5_14_" class="st19" d="M230.3,545.4c-1.6-15.2-14.2-18.2-26.9-19.9C208.8,537.1,216.2,548.1,230.3,545.4z"
						/>
					<radialGradient id="path2844-1_1_" cx="234.6318" cy="501.7768" r="12.0035" gradientUnits="userSpaceOnUse">
						<stop  offset="0" style="stop-color:#FFF48D"/>
						<stop  offset="0.2154" style="stop-color:#FFF189"/>
						<stop  offset="0.424" style="stop-color:#FEE67D"/>
						<stop  offset="0.6298" style="stop-color:#FDD56A"/>
						<stop  offset="0.8328" style="stop-color:#FCBD4F"/>
						<stop  offset="0.9243" style="stop-color:#FBB040"/>
					</radialGradient>
					<path id="path2844-1_14_" class="st20" d="M226.8,516.3c14.9-3.3,16.5-16.1,16.7-29C232.6,494,222.6,502.6,226.8,516.3z"/>
					<radialGradient id="path2850-7_1_" cx="215.6916" cy="513.1624" r="12.0122" gradientUnits="userSpaceOnUse">
						<stop  offset="0" style="stop-color:#FFF48D"/>
						<stop  offset="0.2154" style="stop-color:#FFF189"/>
						<stop  offset="0.424" style="stop-color:#FEE67D"/>
						<stop  offset="0.6298" style="stop-color:#FDD56A"/>
						<stop  offset="0.8328" style="stop-color:#FCBD4F"/>
						<stop  offset="0.9243" style="stop-color:#FBB040"/>
					</radialGradient>
					<path id="path2850-7_14_" class="st21" d="M223.9,527.5c4.3-14.7-6.2-22.2-17.3-28.6C207.2,511.6,209.8,524.5,223.9,527.5z"/>
					<radialGradient id="path2856-1_1_" cx="244.5167" cy="475.7375" r="11.8381" gradientUnits="userSpaceOnUse">
						<stop  offset="0" style="stop-color:#FFF48D"/>
						<stop  offset="0.2154" style="stop-color:#FFF189"/>
						<stop  offset="0.424" style="stop-color:#FEE67D"/>
						<stop  offset="0.6298" style="stop-color:#FDD56A"/>
						<stop  offset="0.8328" style="stop-color:#FCBD4F"/>
						<stop  offset="0.9243" style="stop-color:#FBB040"/>
					</radialGradient>
					<path id="path2856-1_14_" class="st22" d="M232.6,487.5c15.3,0.8,20.1-11.2,23.8-23.5C244.1,467.6,232.2,473.2,232.6,487.5z"/>
					<radialGradient id="path2862-1_1_" cx="220.3592" cy="487.4967" r="12.561" gradientUnits="userSpaceOnUse">
						<stop  offset="0" style="stop-color:#FFF48D"/>
						<stop  offset="0.2154" style="stop-color:#FFF189"/>
						<stop  offset="0.424" style="stop-color:#FEE67D"/>
						<stop  offset="0.6298" style="stop-color:#FDD56A"/>
						<stop  offset="0.8328" style="stop-color:#FCBD4F"/>
						<stop  offset="0.9243" style="stop-color:#FBB040"/>
					</radialGradient>
					<path id="path2862-1_14_" class="st23" d="M222.8,503.9c9.2-12.2,2-23-6.2-32.9C212.7,483.3,210.7,496.3,222.8,503.9z"/>
					<radialGradient id="path2868-5_1_" cx="249.7504" cy="452.7781" r="11.8775" gradientUnits="userSpaceOnUse">
						<stop  offset="0" style="stop-color:#FFF48D"/>
						<stop  offset="0.2154" style="stop-color:#FFF189"/>
						<stop  offset="0.424" style="stop-color:#FEE67D"/>
						<stop  offset="0.6298" style="stop-color:#FDD56A"/>
						<stop  offset="0.8328" style="stop-color:#FCBD4F"/>
						<stop  offset="0.9243" style="stop-color:#FBB040"/>
					</radialGradient>
					<path id="path2868-5_14_" class="st24" d="M239.3,465.8c15.2-0.9,18.8-13.3,21.1-26C248.6,444.7,237.3,451.6,239.3,465.8z"/>
					<radialGradient id="path2874-2_1_" cx="230.0181" cy="462.2139" r="12.6879" gradientUnits="userSpaceOnUse">
						<stop  offset="0" style="stop-color:#FFF48D"/>
						<stop  offset="0.2154" style="stop-color:#FFF189"/>
						<stop  offset="0.424" style="stop-color:#FEE67D"/>
						<stop  offset="0.6298" style="stop-color:#FDD56A"/>
						<stop  offset="0.8328" style="stop-color:#FCBD4F"/>
						<stop  offset="0.9243" style="stop-color:#FBB040"/>
					</radialGradient>
					<path id="path2874-2_14_" class="st25" d="M229.6,478.9c11.5-10.1,6.6-22.1,0.6-33.4C223.9,456.7,219.3,469,229.6,478.9z"/>
				</g>
				<g id="g3240_14_">
					<radialGradient id="path1872_1_" cx="411.4655" cy="607.7484" r="12.5032" gradientUnits="userSpaceOnUse">
						<stop  offset="0" style="stop-color:#FFF48D"/>
						<stop  offset="0.2154" style="stop-color:#FFF189"/>
						<stop  offset="0.424" style="stop-color:#FEE67D"/>
						<stop  offset="0.6298" style="stop-color:#FDD56A"/>
						<stop  offset="0.8328" style="stop-color:#FCBD4F"/>
						<stop  offset="0.9243" style="stop-color:#FBB040"/>
					</radialGradient>
					<path id="path1872_14_" class="st26" d="M427.8,604.7c-12.6-8.7-23-1.1-32.6,7.5C407.5,615.6,420.6,617.1,427.8,604.7z"/>
					<radialGradient id="path2784_1_" cx="411.9836" cy="586.5044" r="11.8636" gradientUnits="userSpaceOnUse">
						<stop  offset="0" style="stop-color:#FFF48D"/>
						<stop  offset="0.2154" style="stop-color:#FFF189"/>
						<stop  offset="0.424" style="stop-color:#FEE67D"/>
						<stop  offset="0.6298" style="stop-color:#FDD56A"/>
						<stop  offset="0.8328" style="stop-color:#FCBD4F"/>
						<stop  offset="0.9243" style="stop-color:#FBB040"/>
					</radialGradient>
					<path id="path2784_14_" class="st27" d="M424.7,597.2c-0.6-15.3-12.9-19.1-25.5-21.6C403.9,587.5,410.5,598.9,424.7,597.2z"/>
					<radialGradient id="path2790_1_" cx="388.7708" cy="599.6505" r="12.613" gradientUnits="userSpaceOnUse">
						<stop  offset="0" style="stop-color:#FFF48D"/>
						<stop  offset="0.2154" style="stop-color:#FFF189"/>
						<stop  offset="0.424" style="stop-color:#FEE67D"/>
						<stop  offset="0.6298" style="stop-color:#FDD56A"/>
						<stop  offset="0.8328" style="stop-color:#FCBD4F"/>
						<stop  offset="0.9243" style="stop-color:#FBB040"/>
					</radialGradient>
					<path id="path2790_14_" class="st28" d="M405.3,597.8c-11.8-9.7-22.9-3-33.1,4.8C384.2,607,397.1,609.6,405.3,597.8z"/>
					<radialGradient id="path2796_1_" cx="389.8375" cy="574.7516" r="12.3303" gradientUnits="userSpaceOnUse">
						<stop  offset="0" style="stop-color:#FFF48D"/>
						<stop  offset="0.2154" style="stop-color:#FFF189"/>
						<stop  offset="0.424" style="stop-color:#FEE67D"/>
						<stop  offset="0.6298" style="stop-color:#FDD56A"/>
						<stop  offset="0.8328" style="stop-color:#FCBD4F"/>
						<stop  offset="0.9243" style="stop-color:#FBB040"/>
					</radialGradient>
					<path id="path2796_14_" class="st29" d="M394.4,590.6c7.4-13.4-1.3-23-10.8-31.7C381.5,571.5,381.3,584.7,394.4,590.6z"/>
					<radialGradient id="path2802_1_" cx="368.256" cy="588.2015" r="12.6219" gradientUnits="userSpaceOnUse">
						<stop  offset="0" style="stop-color:#FFF48D"/>
						<stop  offset="0.2154" style="stop-color:#FFF189"/>
						<stop  offset="0.424" style="stop-color:#FEE67D"/>
						<stop  offset="0.6298" style="stop-color:#FDD56A"/>
						<stop  offset="0.8328" style="stop-color:#FCBD4F"/>
						<stop  offset="0.9243" style="stop-color:#FBB040"/>
					</radialGradient>
					<path id="path2802_14_" class="st30" d="M384.8,590.3c-8.7-12.6-21.1-9.2-33.1-4.5C362,593.3,373.7,599.4,384.8,590.3
						L384.8,590.3z"/>
					<radialGradient id="path2808_1_" cx="372.7005" cy="562.3536" r="12.6888" gradientUnits="userSpaceOnUse">
						<stop  offset="0" style="stop-color:#FFF48D"/>
						<stop  offset="0.2154" style="stop-color:#FFF189"/>
						<stop  offset="0.424" style="stop-color:#FEE67D"/>
						<stop  offset="0.6298" style="stop-color:#FDD56A"/>
						<stop  offset="0.8328" style="stop-color:#FCBD4F"/>
						<stop  offset="0.9243" style="stop-color:#FBB040"/>
					</radialGradient>
					<path id="path2808_14_" class="st31" d="M372.6,579.1c11.2-10.3,6.1-22.2-0.1-33.5C366.4,556.9,362,569.3,372.6,579.1
						L372.6,579.1z"/>
					<radialGradient id="path2814_1_" cx="350.7547" cy="573.027" r="12.3296" gradientUnits="userSpaceOnUse">
						<stop  offset="0" style="stop-color:#FFF48D"/>
						<stop  offset="0.2154" style="stop-color:#FFF189"/>
						<stop  offset="0.424" style="stop-color:#FEE67D"/>
						<stop  offset="0.6298" style="stop-color:#FDD56A"/>
						<stop  offset="0.8328" style="stop-color:#FCBD4F"/>
						<stop  offset="0.9243" style="stop-color:#FBB040"/>
					</radialGradient>
					<path id="path2814_14_" class="st32" d="M366.6,577.8c-6.1-14-19-13-31.7-10.7C343.6,576.4,354,584.6,366.6,577.8z"/>
					<radialGradient id="path2820_1_" cx="359.102" cy="547.8445" r="12.569" gradientUnits="userSpaceOnUse">
						<stop  offset="0" style="stop-color:#FFF48D"/>
						<stop  offset="0.2154" style="stop-color:#FFF189"/>
						<stop  offset="0.424" style="stop-color:#FEE67D"/>
						<stop  offset="0.6298" style="stop-color:#FDD56A"/>
						<stop  offset="0.8328" style="stop-color:#FCBD4F"/>
						<stop  offset="0.9243" style="stop-color:#FBB040"/>
					</radialGradient>
					<path id="path2820_14_" class="st33" d="M356.4,564.3c13-8.1,10.1-20.7,6.1-32.9C354.4,541.4,347.8,552.8,356.4,564.3z"/>
					<radialGradient id="path2826_1_" cx="337.2947" cy="554.6376" r="12.0075" gradientUnits="userSpaceOnUse">
						<stop  offset="0" style="stop-color:#FFF48D"/>
						<stop  offset="0.2154" style="stop-color:#FFF189"/>
						<stop  offset="0.424" style="stop-color:#FEE67D"/>
						<stop  offset="0.6298" style="stop-color:#FDD56A"/>
						<stop  offset="0.8328" style="stop-color:#FCBD4F"/>
						<stop  offset="0.9243" style="stop-color:#FBB040"/>
					</radialGradient>
					<path id="path2826_14_" class="st34" d="M351.8,562.4c-3.4-14.9-16.2-16.4-29.1-16.5C329.6,556.7,338.1,566.7,351.8,562.4z"/>
					<radialGradient id="path2832_1_" cx="352.3481" cy="524.5189" r="12.3855" gradientUnits="userSpaceOnUse">
						<stop  offset="0" style="stop-color:#FFF48D"/>
						<stop  offset="0.2154" style="stop-color:#FFF189"/>
						<stop  offset="0.424" style="stop-color:#FEE67D"/>
						<stop  offset="0.6298" style="stop-color:#FDD56A"/>
						<stop  offset="0.8328" style="stop-color:#FCBD4F"/>
						<stop  offset="0.9243" style="stop-color:#FBB040"/>
					</radialGradient>
					<path id="path2832_14_" class="st35" d="M348,540.5c13.8-6.5,12.5-19.4,9.8-32C348.7,517.5,340.8,528.1,348,540.5z"/>
					<radialGradient id="path2838_1_" cx="332.2297" cy="535.0293" r="11.91" gradientUnits="userSpaceOnUse">
						<stop  offset="0" style="stop-color:#FFF48D"/>
						<stop  offset="0.2154" style="stop-color:#FFF189"/>
						<stop  offset="0.424" style="stop-color:#FEE67D"/>
						<stop  offset="0.6298" style="stop-color:#FDD56A"/>
						<stop  offset="0.8328" style="stop-color:#FCBD4F"/>
						<stop  offset="0.9243" style="stop-color:#FBB040"/>
					</radialGradient>
					<path id="path2838_14_" class="st36" d="M345.7,544.8c-1.6-15.2-14.2-18.2-26.9-19.9C324.2,536.5,331.6,547.4,345.7,544.8z"/>
					<radialGradient id="path2844_1_" cx="350.0429" cy="501.1158" r="12.0035" gradientUnits="userSpaceOnUse">
						<stop  offset="0" style="stop-color:#FFF48D"/>
						<stop  offset="0.2154" style="stop-color:#FFF189"/>
						<stop  offset="0.424" style="stop-color:#FEE67D"/>
						<stop  offset="0.6298" style="stop-color:#FDD56A"/>
						<stop  offset="0.8328" style="stop-color:#FCBD4F"/>
						<stop  offset="0.9243" style="stop-color:#FBB040"/>
					</radialGradient>
					<path id="path2844_14_" class="st37" d="M342.2,515.6c14.9-3.3,16.5-16.1,16.7-29C348,493.4,338,501.9,342.2,515.6z"/>
					<radialGradient id="path2850_1_" cx="331.1027" cy="512.5014" r="12.0122" gradientUnits="userSpaceOnUse">
						<stop  offset="0" style="stop-color:#FFF48D"/>
						<stop  offset="0.2154" style="stop-color:#FFF189"/>
						<stop  offset="0.424" style="stop-color:#FEE67D"/>
						<stop  offset="0.6298" style="stop-color:#FDD56A"/>
						<stop  offset="0.8328" style="stop-color:#FCBD4F"/>
						<stop  offset="0.9243" style="stop-color:#FBB040"/>
					</radialGradient>
					<path id="path2850_14_" class="st38" d="M339.3,526.8c4.3-14.7-6.2-22.2-17.3-28.6C322.6,511,325.2,523.9,339.3,526.8z"/>
					<radialGradient id="path2856_1_" cx="359.9278" cy="475.0766" r="11.8381" gradientUnits="userSpaceOnUse">
						<stop  offset="0" style="stop-color:#FFF48D"/>
						<stop  offset="0.2154" style="stop-color:#FFF189"/>
						<stop  offset="0.424" style="stop-color:#FEE67D"/>
						<stop  offset="0.6298" style="stop-color:#FDD56A"/>
						<stop  offset="0.8328" style="stop-color:#FCBD4F"/>
						<stop  offset="0.9243" style="stop-color:#FBB040"/>
					</radialGradient>
					<path id="path2856_14_" class="st39" d="M348,486.8c15.3,0.8,20.1-11.2,23.8-23.5C359.5,466.9,347.6,472.5,348,486.8z"/>
					<radialGradient id="path2862_1_" cx="335.7703" cy="486.8357" r="12.561" gradientUnits="userSpaceOnUse">
						<stop  offset="0" style="stop-color:#FFF48D"/>
						<stop  offset="0.2154" style="stop-color:#FFF189"/>
						<stop  offset="0.424" style="stop-color:#FEE67D"/>
						<stop  offset="0.6298" style="stop-color:#FDD56A"/>
						<stop  offset="0.8328" style="stop-color:#FCBD4F"/>
						<stop  offset="0.9243" style="stop-color:#FBB040"/>
					</radialGradient>
					<path id="path2862_14_" class="st40" d="M338.2,503.3c9.2-12.2,2-23-6.2-32.9C328.2,482.6,326.1,495.6,338.2,503.3z"/>
					<radialGradient id="path2868_1_" cx="365.1614" cy="452.1172" r="11.8775" gradientUnits="userSpaceOnUse">
						<stop  offset="0" style="stop-color:#FFF48D"/>
						<stop  offset="0.2154" style="stop-color:#FFF189"/>
						<stop  offset="0.424" style="stop-color:#FEE67D"/>
						<stop  offset="0.6298" style="stop-color:#FDD56A"/>
						<stop  offset="0.8328" style="stop-color:#FCBD4F"/>
						<stop  offset="0.9243" style="stop-color:#FBB040"/>
					</radialGradient>
					<path id="path2868_14_" class="st41" d="M354.7,465.1c15.2-0.9,18.8-13.3,21.1-26C364,444.1,352.8,450.9,354.7,465.1z"/>
					<radialGradient id="path2874_1_" cx="345.4292" cy="461.553" r="12.6879" gradientUnits="userSpaceOnUse">
						<stop  offset="0" style="stop-color:#FFF48D"/>
						<stop  offset="0.2154" style="stop-color:#FFF189"/>
						<stop  offset="0.424" style="stop-color:#FEE67D"/>
						<stop  offset="0.6298" style="stop-color:#FDD56A"/>
						<stop  offset="0.8328" style="stop-color:#FCBD4F"/>
						<stop  offset="0.9243" style="stop-color:#FBB040"/>
					</radialGradient>
					<path id="path2874_14_" class="st42" d="M345,478.3c11.5-10.1,6.6-22.1,0.6-33.4C339.3,456,334.7,468.3,345,478.3z"/>
				</g>
				<radialGradient id="path3042_1_" cx="435.383" cy="601.6227" r="4.4246" gradientUnits="userSpaceOnUse">
					<stop  offset="0" style="stop-color:#FFF48D"/>
					<stop  offset="0.2154" style="stop-color:#FFF189"/>
					<stop  offset="0.424" style="stop-color:#FEE67D"/>
					<stop  offset="0.6298" style="stop-color:#FDD56A"/>
					<stop  offset="0.8328" style="stop-color:#FCBD4F"/>
					<stop  offset="0.9243" style="stop-color:#FBB040"/>
				</radialGradient>
				<path id="path3042_14_" class="st43" d="M439.8,601.6c0,2.4-2,4.4-4.4,4.4c-2.4,0-4.4-2-4.4-4.4s2-4.4,4.4-4.4
					C437.8,597.2,439.8,599.2,439.8,601.6L439.8,601.6z"/>
			</g>
		</g>
		<g>
			<g>
				<radialGradient id="SVGID_10_" cx="527.4911" cy="276.9541" r="60.3755" gradientUnits="userSpaceOnUse">
					<stop  offset="0.7299" style="stop-color:#1E1D48"/>
					<stop  offset="1" style="stop-color:#4949AD"/>
				</radialGradient>
				<circle class="st44" cx="527.5" cy="277" r="60.4"/>
				<radialGradient id="SVGID_11_" cx="527.4911" cy="276.9541" r="56.7182" gradientUnits="userSpaceOnUse">
					<stop  offset="0" style="stop-color:#4949AD"/>
					<stop  offset="1" style="stop-color:#1E1D48"/>
				</radialGradient>
				<circle class="st45" cx="527.5" cy="277" r="56.7"/>
			</g>
			<g>
				<radialGradient id="SVGID_12_" cx="528.5099" cy="277.9334" r="33.5984" gradientUnits="userSpaceOnUse">
					<stop  offset="0" style="stop-color:#12C7BA"/>
					<stop  offset="1" style="stop-color:#94FFF2"/>
				</radialGradient>
				<polygon class="st46" points="491.7,308 526.6,277.9 491.7,247.9 565.3,247.9 530.5,277.9 565.3,308 				"/>
				<radialGradient id="SVGID_13_" cx="528.5099" cy="277.6117" r="30.2213" gradientUnits="userSpaceOnUse">
					<stop  offset="0" style="stop-color:#94FFF2"/>
					<stop  offset="1" style="stop-color:#12C7BA"/>
				</radialGradient>
				<polygon class="st47" points="561.9,249.2 495.1,249.2 528.5,277.9 495.1,306.7 561.9,306.7 528.5,277.9 				"/>
			</g>
		</g>
	</g>
	<g>
		<radialGradient id="SVGID_14_" cx="610.3708" cy="725.5899" r="26.522" gradientUnits="userSpaceOnUse">
			<stop  offset="0" style="stop-color:#FFF48D"/>
			<stop  offset="0.1171" style="stop-color:#FFF189"/>
			<stop  offset="0.2306" style="stop-color:#FEE67D"/>
			<stop  offset="0.3425" style="stop-color:#FDD56A"/>
			<stop  offset="0.4529" style="stop-color:#FCBD4F"/>
			<stop  offset="0.5027" style="stop-color:#FBB040"/>
		</radialGradient>
		<polygon class="st48" points="610.4,742.6 593.6,751.4 596.8,732.7 583.2,719.5 602,716.8 610.4,699.7 618.8,716.8 637.5,719.5 
			624,732.7 627.2,751.4 		"/>
		<radialGradient id="SVGID_15_" cx="610.3708" cy="726.2243" r="20.3533" gradientUnits="userSpaceOnUse">
			<stop  offset="0" style="stop-color:#94FFF2"/>
			<stop  offset="1" style="stop-color:#12C7BA"/>
		</radialGradient>
		<polygon class="st49" points="610.4,706.4 616.8,719.4 631.2,721.5 620.8,731.7 623.3,746.1 610.4,739.3 597.5,746.1 599.9,731.7 
			589.5,721.5 603.9,719.4 		"/>
	</g>
	<g>
		<radialGradient id="SVGID_16_" cx="446.3792" cy="726.2243" r="26.522" gradientUnits="userSpaceOnUse">
			<stop  offset="0" style="stop-color:#FFF48D"/>
			<stop  offset="0.1171" style="stop-color:#FFF189"/>
			<stop  offset="0.2306" style="stop-color:#FEE67D"/>
			<stop  offset="0.3425" style="stop-color:#FDD56A"/>
			<stop  offset="0.4529" style="stop-color:#FCBD4F"/>
			<stop  offset="0.5027" style="stop-color:#FBB040"/>
		</radialGradient>
		<polygon class="st50" points="446.4,743.2 429.6,752.1 432.8,733.4 419.2,720.1 438,717.4 446.4,700.4 454.8,717.4 473.6,720.1 
			460,733.4 463.2,752.1 		"/>
		<radialGradient id="SVGID_17_" cx="446.3791" cy="726.8587" r="20.3533" gradientUnits="userSpaceOnUse">
			<stop  offset="0" style="stop-color:#94FFF2"/>
			<stop  offset="1" style="stop-color:#12C7BA"/>
		</radialGradient>
		<polygon class="st51" points="446.4,707 452.8,720.1 467.2,722.2 456.8,732.3 459.3,746.7 446.4,739.9 433.5,746.7 436,732.3 
			425.5,722.2 439.9,720.1 		"/>
	</g>
	<g>
		<radialGradient id="SVGID_18_" cx="527.3065" cy="769.0255" r="50.138" gradientUnits="userSpaceOnUse">
			<stop  offset="0" style="stop-color:#FFF48D"/>
			<stop  offset="0.1171" style="stop-color:#FFF189"/>
			<stop  offset="0.2306" style="stop-color:#FEE67D"/>
			<stop  offset="0.3425" style="stop-color:#FDD56A"/>
			<stop  offset="0.4529" style="stop-color:#FCBD4F"/>
			<stop  offset="0.5027" style="stop-color:#FBB040"/>
		</radialGradient>
		<polygon class="st52" points="527.3,801.2 495.6,817.9 501.6,782.5 475.9,757.5 511.4,752.3 527.3,720.2 543.2,752.3 578.7,757.5 
			553,782.5 559.1,817.9 		"/>
		<radialGradient id="SVGID_19_" cx="527.3064" cy="770.2248" r="38.4765" gradientUnits="userSpaceOnUse">
			<stop  offset="0" style="stop-color:#94FFF2"/>
			<stop  offset="1" style="stop-color:#12C7BA"/>
		</radialGradient>
		<polygon class="st53" points="527.3,732.7 539.5,757.4 566.7,761.4 547,780.6 551.7,807.7 527.3,794.9 502.9,807.7 507.6,780.6 
			487.9,761.4 515.1,757.4 		"/>
	</g>
</g>
</svg>
