<?xml version="1.0" encoding="utf-8"?>
<!-- Generator: Adobe Illustrator 25.2.1, SVG Export Plug-In . SVG Version: 6.00 Build 0)  -->
<svg version="1.1" id="Layer_1" xmlns="http://www.w3.org/2000/svg" xmlns:xlink="http://www.w3.org/1999/xlink" x="0px" y="0px"
	 viewBox="0 0 1000 1000" style="enable-background:new 0 0 1000 1000;" xml:space="preserve">
<style type="text/css">
	.st0{fill:url(#SVGID_1_);}
	.st1{fill:url(#SVGID_2_);}
	.st2{fill:url(#SVGID_3_);}
	.st3{fill:url(#SVGID_4_);}
	.st4{fill:url(#SVGID_5_);}
	.st5{fill-rule:evenodd;clip-rule:evenodd;fill:url(#path1872-7_1_);}
	.st6{fill-rule:evenodd;clip-rule:evenodd;fill:url(#path2784-4_1_);}
	.st7{fill-rule:evenodd;clip-rule:evenodd;fill:url(#path2790-0_1_);}
	.st8{fill-rule:evenodd;clip-rule:evenodd;fill:url(#path2796-9_1_);}
	.st9{fill-rule:evenodd;clip-rule:evenodd;fill:url(#path2802-4_1_);}
	.st10{fill-rule:evenodd;clip-rule:evenodd;fill:url(#path2808-8_1_);}
	.st11{fill-rule:evenodd;clip-rule:evenodd;fill:url(#path2814-8_1_);}
	.st12{fill-rule:evenodd;clip-rule:evenodd;fill:url(#path2820-2_1_);}
	.st13{fill-rule:evenodd;clip-rule:evenodd;fill:url(#path2826-4_1_);}
	.st14{fill-rule:evenodd;clip-rule:evenodd;fill:url(#path2832-5_1_);}
	.st15{fill-rule:evenodd;clip-rule:evenodd;fill:url(#path2838-5_1_);}
	.st16{fill-rule:evenodd;clip-rule:evenodd;fill:url(#path2844-1_1_);}
	.st17{fill-rule:evenodd;clip-rule:evenodd;fill:url(#path2850-7_1_);}
	.st18{fill-rule:evenodd;clip-rule:evenodd;fill:url(#path2856-1_1_);}
	.st19{fill-rule:evenodd;clip-rule:evenodd;fill:url(#path2862-1_1_);}
	.st20{fill-rule:evenodd;clip-rule:evenodd;fill:url(#path2868-5_1_);}
	.st21{fill-rule:evenodd;clip-rule:evenodd;fill:url(#path2874-2_1_);}
	.st22{fill-rule:evenodd;clip-rule:evenodd;fill:url(#path1872_1_);}
	.st23{fill-rule:evenodd;clip-rule:evenodd;fill:url(#path2784_1_);}
	.st24{fill-rule:evenodd;clip-rule:evenodd;fill:url(#path2790_1_);}
	.st25{fill-rule:evenodd;clip-rule:evenodd;fill:url(#path2796_1_);}
	.st26{fill-rule:evenodd;clip-rule:evenodd;fill:url(#path2802_1_);}
	.st27{fill-rule:evenodd;clip-rule:evenodd;fill:url(#path2808_1_);}
	.st28{fill-rule:evenodd;clip-rule:evenodd;fill:url(#path2814_1_);}
	.st29{fill-rule:evenodd;clip-rule:evenodd;fill:url(#path2820_1_);}
	.st30{fill-rule:evenodd;clip-rule:evenodd;fill:url(#path2826_1_);}
	.st31{fill-rule:evenodd;clip-rule:evenodd;fill:url(#path2832_1_);}
	.st32{fill-rule:evenodd;clip-rule:evenodd;fill:url(#path2838_1_);}
	.st33{fill-rule:evenodd;clip-rule:evenodd;fill:url(#path2844_1_);}
	.st34{fill-rule:evenodd;clip-rule:evenodd;fill:url(#path2850_1_);}
	.st35{fill-rule:evenodd;clip-rule:evenodd;fill:url(#path2856_1_);}
	.st36{fill-rule:evenodd;clip-rule:evenodd;fill:url(#path2862_1_);}
	.st37{fill-rule:evenodd;clip-rule:evenodd;fill:url(#path2868_1_);}
	.st38{fill-rule:evenodd;clip-rule:evenodd;fill:url(#path2874_1_);}
	.st39{fill:url(#path3042_1_);}
	.st40{fill:url(#SVGID_6_);}
	.st41{fill:url(#SVGID_7_);}
	.st42{fill:url(#SVGID_8_);}
	.st43{fill:url(#SVGID_9_);}
	.st44{fill:url(#SVGID_10_);}
	.st45{fill:url(#SVGID_11_);}
</style>
<g>
	<g>
		<g>
			<radialGradient id="SVGID_1_" cx="500" cy="506.4054" r="533.4576" gradientUnits="userSpaceOnUse">
				<stop  offset="0" style="stop-color:#231F20"/>
				<stop  offset="0.3161" style="stop-color:#1F1C1C"/>
				<stop  offset="0.6216" style="stop-color:#141112"/>
				<stop  offset="0.9227" style="stop-color:#000000"/>
				<stop  offset="0.9243" style="stop-color:#000000"/>
			</radialGradient>
			<path class="st0" d="M344.9,188.4c-1.4,0-39.5,41.9-102.8,125.7c47.8,78-32.2,346.5,70.5,476c90.1,113.6,160.5,132.6,187.9,159.1
				c36.6-36.6,85-44.8,164-144.5c102.7-129.5,74-379.5,93.4-490.6c-115.2-213.4-256-57-221.5-73.7l-82.7-9L344.9,188.4z"/>
		</g>
		<radialGradient id="SVGID_2_" cx="500" cy="567.4822" r="374.4341" gradientUnits="userSpaceOnUse">
			<stop  offset="0" style="stop-color:#FBB040"/>
			<stop  offset="1" style="stop-color:#FFF48D"/>
		</radialGradient>
		<path class="st1" d="M468.2,979.5C343.5,894.1,252.9,766.9,213,621.3l-18.5-67.5l17.9-11.6c3.6-3.4,27.1-28.7,27.8-95.7
			c0.4-42.1-10.5-56.4-21.1-70.3c-10.5-13.7-24.8-32.5-17.6-64l0.1-0.4c20.8-86.4,135.1-157.8,140-160.8l26.3-16.2l17.2,25.7
			c8,11.9,22.8,22.4,43.8,31c22.4,9.2,46.1,13.9,70.4,13.9c24.3,0,48-4.7,70.4-13.8c21.1-8.6,35.8-19.1,43.8-31l17.3-25.7l26.3,16.2
			c4.9,3,119.2,74.4,140,160.7l0.1,0.3c7.2,31.5-7.2,50.3-17.6,64c-10.6,13.9-21.5,28.2-21.1,70.3c0.6,67,24.2,92.3,27.8,95.7
			l19.2,12.5l-7.6,22l-12.2,44.6c-39.9,145.6-130.5,272.8-255.1,358.1l-31.2,20.6L468.2,979.5z M275,604.3
			c35.3,128.9,114.9,241.8,224.3,318.5c109.4-76.7,188.9-189.5,224.3-318.5l7.5-27.5c-14.7-19.1-36.3-59-37-129.7
			c-0.6-64.1,20.3-91.7,34.2-109.9c1.9-2.5,5.7-7.4,6.4-9.1c0-0.3-0.1-0.8-0.3-1.5c-10.5-43.2-65.4-88-89.5-105.8
			c-52.4,45-139.5,52-143.4,52.3l-2.4,0.1l-2.3-0.1c-3.9-0.3-91-7.3-143.4-52.3c-24.1,17.9-79,62.6-89.5,106c-0.1,0.6-0.2,1-0.3,1.3
			c0.7,1.7,4.5,6.7,6.4,9.1c13.9,18.2,34.8,45.7,34.2,109.9c-0.7,70.6-22.2,110.6-37,129.7L275,604.3z"/>
		<radialGradient id="SVGID_3_" cx="500" cy="568.1829" r="363.6245" gradientUnits="userSpaceOnUse">
			<stop  offset="0" style="stop-color:#FFF48D"/>
			<stop  offset="0.2154" style="stop-color:#FFF189"/>
			<stop  offset="0.424" style="stop-color:#FEE67D"/>
			<stop  offset="0.6298" style="stop-color:#FDD56A"/>
			<stop  offset="0.8328" style="stop-color:#FCBD4F"/>
			<stop  offset="0.9243" style="stop-color:#FBB040"/>
		</radialGradient>
		<path class="st2" d="M781,549.3c-2.8-2.4-30.5-28.8-31.2-102.6c-0.4-45.1,11.9-61.4,22.9-75.7c9.9-13,22.3-29.2,16-56.6l-0.1-0.3
			c-20-82.8-131.3-152.3-136-155.2L633.6,147l-12.5,18.6c-10.1,15.1-28.2,26.2-47.8,34.3c-47.2,19.3-100.3,19.3-147.5,0
			c-19.6-8-37.7-19.2-47.8-34.3L365.5,147l-19.1,11.8c-4.7,2.9-116.1,72.4-136,155.2l-0.1,0.3c-6.2,27.4,6.1,43.6,16,56.6
			c10.9,14.3,23.3,30.6,22.9,75.7c-0.7,73.8-28.4,100.2-31.2,102.6l-13.1,8.5l16.8,61.3c39.4,143.6,128.7,269,251.6,353.1l26.2,17.3
			l26.2-17.3C648.6,888,737.9,762.6,777.3,619l12.3-44.8l5.5-15.8L781,549.3z M741.1,574.8l-8.7,31.9
			c-36.4,132.9-119.1,249-232.8,326.9c-113.7-77.9-196.4-194-232.8-326.9l-8.7-31.9c14.8-17.6,37.1-56,37.8-127.7
			c0.6-61.1-19.3-87.2-32.4-104.4c-8.7-11.4-8.9-12.5-7.7-17.9c10.9-44.7,65.2-91.4,98.7-115.3c49.2,47.3,139.1,54.6,143.3,54.9
			l1.7,0.1l1.7-0.1c4.2-0.3,94.2-7.6,143.4-54.9c33.5,23.9,87.9,70.6,98.7,115.3c1.2,5.4,1,6.5-7.7,17.9
			c-13.1,17.2-33,43.3-32.4,104.4C704,518.8,726.3,557.2,741.1,574.8z"/>
		<g>
			<radialGradient id="SVGID_4_" cx="500.4481" cy="175.0499" r="177.7117" gradientUnits="userSpaceOnUse">
				<stop  offset="0" style="stop-color:#FFF48D"/>
				<stop  offset="0.1171" style="stop-color:#FFF189"/>
				<stop  offset="0.2306" style="stop-color:#FEE67D"/>
				<stop  offset="0.3425" style="stop-color:#FDD56A"/>
				<stop  offset="0.4529" style="stop-color:#FCBD4F"/>
				<stop  offset="0.5027" style="stop-color:#FBB040"/>
			</radialGradient>
			<path class="st3" d="M485.4,350.1l-1.4-0.9c-0.1,0-0.3-0.1-0.5-0.1c-18.3-4.1-27.8-15.5-28.2-33.9c-4.2-2.5-7.7-6.2-11.4-10.1
				c-5.9-6.2-12.6-13.3-23.7-17.2c-8.2-3.1-14.1-8.8-17.3-16.4c-5.3-12.6-2.6-28.6,2.1-42.6c-0.3,0-0.5,0-0.8,0
				c-5.1,0-10.3-0.6-15.7-1.8c-8.7-1.6-17.7-5.8-21.2-7.5l-18.8-9.3c0,0,20.3-9.3,21-9.6c-44.3-7-47.4-35.6-49.3-53.5l0-0.5
				c-1.2-21.6,6.8-36.7,13.9-50c9.5-17.9,17.7-33.4,4.1-65.4l-0.2-0.5c-0.3-0.8-0.7-1.5-1-2.3l-9.7-27.6l24.5,16
				c0.4,0.2,36.1,27.1,31.6,60.1c-1.2,7.8-4.1,15.7-6.8,23.4c-5.2,14.2-10,27.7-4.1,37.3c0.2,0.3,0.3,0.5,0.4,0.7
				c3.1-0.7,9.5-3.4,14.3-5.5c9-3.8,20.2-8.6,32.6-11.6c7.1-10.9,21.6-16.6,31.7-19.5l1.4-8.2c0.7,0,1.4,0,2.1,0
				c14.5,0,29.8,4.1,45.4,12.3c19.3-10.1,35.2-12.3,45.5-12.3l1.5,0l-0.1,6.7l1.7,1.4c0.9,0.3,1.9,0.6,3,0.9
				c1.8,0.5,20.6,5.8,29,18.6c3,0.7,7.8,2,16.2,5c5.9,2.1,11.3,4.5,16.1,6.5c6,2.6,11.1,4.8,14.7,5.6c6.1-8.7,2.6-20.4-3.8-38.6
				c-1.9-5.4-3.9-10.9-5.5-16.6l-0.1-0.6c-2-9.2-2.3-16.7,1.7-28c6.5-17.5,21.9-33.1,28.8-37.6L674.5,0l-10.7,28.5
				c-0.1,0.3-0.3,0.8-0.6,1.6c-8.7,20.5-8.5,34.1-6.8,41.8c1.4,6.4,5.1,13.9,9.1,21.7c9.1,18.1,20.4,40.7,12.9,69.3
				c-4,15.2-15.5,32.8-46.6,37.9c2.2,1,2.5,1.3,3.2,1.8l7.3,5.4l-4.8,7.8c-4.1,6.7-26.7,13-41.1,13c-0.1,0-0.3,0-0.4,0
				c13.7,42.4-4.3,55.4-16.3,59.5c-9.7,3.3-16.4,10.3-22.2,16.5c-3.8,4-7.5,7.9-11.8,10.4c-0.3,6.5-1.8,17.2-10.1,25.2
				c-3.7,3.8-8.8,6.6-14.8,8l-1.5,1.7H485.4z"/>
			
				<radialGradient id="SVGID_5_" cx="500.4481" cy="183.1406" r="164.1246" fx="500.0797" fy="230.7842" gradientUnits="userSpaceOnUse">
				<stop  offset="0" style="stop-color:#EFEFEF"/>
				<stop  offset="0.2041" style="stop-color:#EBEBEB"/>
				<stop  offset="0.4018" style="stop-color:#DFDFDF"/>
				<stop  offset="0.5969" style="stop-color:#CCCCCC"/>
				<stop  offset="0.7892" style="stop-color:#B1B1B1"/>
				<stop  offset="0.9243" style="stop-color:#999999"/>
			</radialGradient>
			<path class="st4" d="M346.4,25.5c3.4,2.2,30.5,25.7,27.1,50.4c-3.2,20.9-22,47.1-9.5,67.3c2.2,3.6,3.9,5.7,7.4,5.6
				c8.7,0.3,28-12.1,51.3-17.7c2.8-0.7,3.6-0.3,4.6-2.4c4.8-10.1,21.5-16,32.7-18.4c0.9-0.2,3.9-0.4,2.8-2.2
				c-0.6-0.9-1.9-1.3-9.6-4.2c25-0.7,46.1,13.3,47.3,13.6c1-0.3,22.1-14.1,46.8-13.6l0.2-0.2c-0.1,0.1-0.2,0.3-0.2,0.5
				c-0.9,0.1-6.1,2.2-7.1,2.6c-1.2,0.5-2.5,1.1-2,2.4c0.5,1.2,2.2,0.5,10.9,3.2c6.1,1.6,19.8,7.1,24.3,15.9c2,3.9,0.1,0.3,20.3,7.6
				c13.6,4.9,24.7,10.9,32.6,12.6c6.3,1.2,7.4-1.1,9.3-3.5c13-17.9-0.9-40.9-7.4-64.2c-1.7-7.9-1.9-13.6,1.3-22.7
				c5.7-15.3,19.9-29.3,24.9-32.6c-1,2.6-12.7,27-7.8,49c5.1,23.4,31.8,49.3,22,86.4c-11.6,44.2-78.9,29.4-81.3,30.3
				c-0.2,0.1-0.4,0.1-0.4,0.4c-0.1,0.4,0.2,0.7,0.5,0.9c1.9,1.5,40.2,17.8,41.5,18.7c-0.7,1.2-24.8,12.3-44.6,6.8
				c-0.7-0.2-1.3-0.5-2-0.6c-2.6,0.8-0.9,1.2,3.9,14.6c6.2,18.8,8.8,41.1-9.8,47.4c-20.8,7.1-29,26.4-39.1,29.2
				c-0.9,0.2-1.7,1.1-1.7,2c0,2.7,1.1,15.3-7.1,23.1c-3.3,3.3-7.8,5.2-12.3,6c-0.7,0.1-1.2,0.5-1.6,1h-26.3
				c-2.5-1.6-23.5-1.1-23.1-27.2c0-4,0.8-4-2.5-5.2c-9.8-3.5-17-21.4-39.2-29.3c-20.9-8-13.6-37.7-4.6-58.3c0.4-0.8,0.8-1.8,0.6-2.8
				c-0.6-1-3.2-0.1-3.6,0c-8.1,2.1-17,1.7-25.3-0.1c-9.1-1.7-18.9-6.7-19-6.8c34.8-15.7,41.3-17.5,40.9-19.3
				c-1.5-1.1-9.3,0.9-22.5,1c-55-0.6-57.8-26.8-59.9-46.3c-2.5-46.5,43.2-57.6,17.2-118.8C347.1,27.1,346.7,26.3,346.4,25.5z"/>
		</g>
	</g>
	<g>
		<g id="layer1_12_" transform="translate(91.881 -228.75)">
			<g id="g3332_12_">
				<g id="g3240-1_12_" transform="matrix(-1 0 0 1 755.44 -.88158)">
					<radialGradient id="path1872-7_1_" cx="317.6667" cy="840.6226" r="15.824" gradientUnits="userSpaceOnUse">
						<stop  offset="0" style="stop-color:#FFF48D"/>
						<stop  offset="0.2154" style="stop-color:#FFF189"/>
						<stop  offset="0.424" style="stop-color:#FEE67D"/>
						<stop  offset="0.6298" style="stop-color:#FDD56A"/>
						<stop  offset="0.8328" style="stop-color:#FCBD4F"/>
						<stop  offset="0.9243" style="stop-color:#FBB040"/>
					</radialGradient>
					<path id="path1872-7_12_" class="st5" d="M338.3,836.8c-15.9-11-29.1-1.3-41.2,9.5C312.7,850.6,329.2,852.5,338.3,836.8z"/>
					<radialGradient id="path2784-4_1_" cx="318.3224" cy="813.7363" r="15.0145" gradientUnits="userSpaceOnUse">
						<stop  offset="0" style="stop-color:#FFF48D"/>
						<stop  offset="0.2154" style="stop-color:#FFF189"/>
						<stop  offset="0.424" style="stop-color:#FEE67D"/>
						<stop  offset="0.6298" style="stop-color:#FDD56A"/>
						<stop  offset="0.8328" style="stop-color:#FCBD4F"/>
						<stop  offset="0.9243" style="stop-color:#FBB040"/>
					</radialGradient>
					<path id="path2784-4_12_" class="st6" d="M334.5,827.3c-0.7-19.3-16.3-24.2-32.3-27.4C308.1,815,316.4,829.4,334.5,827.3z"/>
					<radialGradient id="path2790-0_1_" cx="288.9444" cy="830.3738" r="15.963" gradientUnits="userSpaceOnUse">
						<stop  offset="0" style="stop-color:#FFF48D"/>
						<stop  offset="0.2154" style="stop-color:#FFF189"/>
						<stop  offset="0.424" style="stop-color:#FEE67D"/>
						<stop  offset="0.6298" style="stop-color:#FDD56A"/>
						<stop  offset="0.8328" style="stop-color:#FCBD4F"/>
						<stop  offset="0.9243" style="stop-color:#FBB040"/>
					</radialGradient>
					<path id="path2790-0_12_" class="st7" d="M309.9,828.1c-14.9-12.3-28.9-3.8-41.9,6C283.2,839.6,299.5,843,309.9,828.1z"/>
					<radialGradient id="path2796-9_1_" cx="290.2944" cy="798.862" r="15.6051" gradientUnits="userSpaceOnUse">
						<stop  offset="0" style="stop-color:#FFF48D"/>
						<stop  offset="0.2154" style="stop-color:#FFF189"/>
						<stop  offset="0.424" style="stop-color:#FEE67D"/>
						<stop  offset="0.6298" style="stop-color:#FDD56A"/>
						<stop  offset="0.8328" style="stop-color:#FCBD4F"/>
						<stop  offset="0.9243" style="stop-color:#FBB040"/>
					</radialGradient>
					<path id="path2796-9_12_" class="st8" d="M296,818.9c9.3-16.9-1.6-29.1-13.6-40.1C279.7,794.8,279.5,811.5,296,818.9z"/>
					<radialGradient id="path2802-4_1_" cx="262.981" cy="815.8842" r="15.9742" gradientUnits="userSpaceOnUse">
						<stop  offset="0" style="stop-color:#FFF48D"/>
						<stop  offset="0.2154" style="stop-color:#FFF189"/>
						<stop  offset="0.424" style="stop-color:#FEE67D"/>
						<stop  offset="0.6298" style="stop-color:#FDD56A"/>
						<stop  offset="0.8328" style="stop-color:#FCBD4F"/>
						<stop  offset="0.9243" style="stop-color:#FBB040"/>
					</radialGradient>
					<path id="path2802-4_12_" class="st9" d="M284,818.5c-11-15.9-26.8-11.6-41.9-5.7C255.1,822.3,269.9,830,284,818.5L284,818.5z"
						/>
					<radialGradient id="path2808-8_1_" cx="268.6059" cy="783.1712" r="16.0589" gradientUnits="userSpaceOnUse">
						<stop  offset="0" style="stop-color:#FFF48D"/>
						<stop  offset="0.2154" style="stop-color:#FFF189"/>
						<stop  offset="0.424" style="stop-color:#FEE67D"/>
						<stop  offset="0.6298" style="stop-color:#FDD56A"/>
						<stop  offset="0.8328" style="stop-color:#FCBD4F"/>
						<stop  offset="0.9243" style="stop-color:#FBB040"/>
					</radialGradient>
					<path id="path2808-8_12_" class="st10" d="M268.4,804.3c14.2-13.1,7.8-28.1-0.2-42.3C260.7,776.3,255.1,792,268.4,804.3
						L268.4,804.3z"/>
					<radialGradient id="path2814-8_1_" cx="240.8314" cy="796.6794" r="15.6043" gradientUnits="userSpaceOnUse">
						<stop  offset="0" style="stop-color:#FFF48D"/>
						<stop  offset="0.2154" style="stop-color:#FFF189"/>
						<stop  offset="0.424" style="stop-color:#FEE67D"/>
						<stop  offset="0.6298" style="stop-color:#FDD56A"/>
						<stop  offset="0.8328" style="stop-color:#FCBD4F"/>
						<stop  offset="0.9243" style="stop-color:#FBB040"/>
					</radialGradient>
					<path id="path2814-8_12_" class="st11" d="M260.9,802.7c-7.8-17.7-24.1-16.5-40.1-13.6C231.8,801,244.9,811.3,260.9,802.7z"/>
					<radialGradient id="path2820-2_1_" cx="251.3957" cy="764.8085" r="15.9073" gradientUnits="userSpaceOnUse">
						<stop  offset="0" style="stop-color:#FFF48D"/>
						<stop  offset="0.2154" style="stop-color:#FFF189"/>
						<stop  offset="0.424" style="stop-color:#FEE67D"/>
						<stop  offset="0.6298" style="stop-color:#FDD56A"/>
						<stop  offset="0.8328" style="stop-color:#FCBD4F"/>
						<stop  offset="0.9243" style="stop-color:#FBB040"/>
					</radialGradient>
					<path id="path2820-2_12_" class="st12" d="M247.9,785.6c16.4-10.2,12.8-26.2,7.7-41.6C245.5,756.6,237.1,771,247.9,785.6z"/>
					<radialGradient id="path2826-4_1_" cx="223.7966" cy="773.4059" r="15.1966" gradientUnits="userSpaceOnUse">
						<stop  offset="0" style="stop-color:#FFF48D"/>
						<stop  offset="0.2154" style="stop-color:#FFF189"/>
						<stop  offset="0.424" style="stop-color:#FEE67D"/>
						<stop  offset="0.6298" style="stop-color:#FDD56A"/>
						<stop  offset="0.8328" style="stop-color:#FCBD4F"/>
						<stop  offset="0.9243" style="stop-color:#FBB040"/>
					</radialGradient>
					<path id="path2826-4_12_" class="st13" d="M242.2,783.2c-4.3-18.9-20.5-20.7-36.8-20.9C214,776,224.9,788.6,242.2,783.2z"/>
					<radialGradient id="path2832-5_1_" cx="242.848" cy="735.2879" r="15.675" gradientUnits="userSpaceOnUse">
						<stop  offset="0" style="stop-color:#FFF48D"/>
						<stop  offset="0.2154" style="stop-color:#FFF189"/>
						<stop  offset="0.424" style="stop-color:#FEE67D"/>
						<stop  offset="0.6298" style="stop-color:#FDD56A"/>
						<stop  offset="0.8328" style="stop-color:#FCBD4F"/>
						<stop  offset="0.9243" style="stop-color:#FBB040"/>
					</radialGradient>
					<path id="path2832-5_12_" class="st14" d="M237.3,755.5c17.5-8.3,15.8-24.5,12.4-40.5C238.2,726.4,228.3,739.8,237.3,755.5z"/>
					<radialGradient id="path2838-5_1_" cx="217.3863" cy="748.5898" r="15.0732" gradientUnits="userSpaceOnUse">
						<stop  offset="0" style="stop-color:#FFF48D"/>
						<stop  offset="0.2154" style="stop-color:#FFF189"/>
						<stop  offset="0.424" style="stop-color:#FEE67D"/>
						<stop  offset="0.6298" style="stop-color:#FDD56A"/>
						<stop  offset="0.8328" style="stop-color:#FCBD4F"/>
						<stop  offset="0.9243" style="stop-color:#FBB040"/>
					</radialGradient>
					<path id="path2838-5_12_" class="st15" d="M234.4,760.9c-2-19.2-17.9-23-34.1-25.2C207.3,750.4,216.6,764.2,234.4,760.9z"/>
					<radialGradient id="path2844-1_1_" cx="239.9306" cy="705.6691" r="15.1916" gradientUnits="userSpaceOnUse">
						<stop  offset="0" style="stop-color:#FFF48D"/>
						<stop  offset="0.2154" style="stop-color:#FFF189"/>
						<stop  offset="0.424" style="stop-color:#FEE67D"/>
						<stop  offset="0.6298" style="stop-color:#FDD56A"/>
						<stop  offset="0.8328" style="stop-color:#FCBD4F"/>
						<stop  offset="0.9243" style="stop-color:#FBB040"/>
					</radialGradient>
					<path id="path2844-1_12_" class="st16" d="M230,724c18.9-4.2,20.8-20.4,21.1-36.7C237.4,695.9,224.7,706.7,230,724z"/>
					<radialGradient id="path2850-7_1_" cx="215.96" cy="720.0786" r="15.2026" gradientUnits="userSpaceOnUse">
						<stop  offset="0" style="stop-color:#FFF48D"/>
						<stop  offset="0.2154" style="stop-color:#FFF189"/>
						<stop  offset="0.424" style="stop-color:#FEE67D"/>
						<stop  offset="0.6298" style="stop-color:#FDD56A"/>
						<stop  offset="0.8328" style="stop-color:#FCBD4F"/>
						<stop  offset="0.9243" style="stop-color:#FBB040"/>
					</radialGradient>
					<path id="path2850-7_12_" class="st17" d="M226.3,738.2c5.5-18.5-7.8-28.1-21.9-36.2C205.2,718.1,208.5,734.5,226.3,738.2z"/>
					<radialGradient id="path2856-1_1_" cx="252.4409" cy="672.714" r="14.9822" gradientUnits="userSpaceOnUse">
						<stop  offset="0" style="stop-color:#FFF48D"/>
						<stop  offset="0.2154" style="stop-color:#FFF189"/>
						<stop  offset="0.424" style="stop-color:#FEE67D"/>
						<stop  offset="0.6298" style="stop-color:#FDD56A"/>
						<stop  offset="0.8328" style="stop-color:#FCBD4F"/>
						<stop  offset="0.9243" style="stop-color:#FBB040"/>
					</radialGradient>
					<path id="path2856-1_12_" class="st18" d="M237.4,687.6c19.3,1,25.5-14.2,30.1-29.8C252,662.4,236.9,669.4,237.4,687.6z"/>
					<radialGradient id="path2862-1_1_" cx="221.8672" cy="687.5963" r="15.8971" gradientUnits="userSpaceOnUse">
						<stop  offset="0" style="stop-color:#FFF48D"/>
						<stop  offset="0.2154" style="stop-color:#FFF189"/>
						<stop  offset="0.424" style="stop-color:#FEE67D"/>
						<stop  offset="0.6298" style="stop-color:#FDD56A"/>
						<stop  offset="0.8328" style="stop-color:#FCBD4F"/>
						<stop  offset="0.9243" style="stop-color:#FBB040"/>
					</radialGradient>
					<path id="path2862-1_12_" class="st19" d="M225,708.4c11.6-15.5,2.5-29.1-7.9-41.6C212.2,682.2,209.6,698.7,225,708.4z"/>
					<radialGradient id="path2868-5_1_" cx="259.0645" cy="643.6567" r="15.0321" gradientUnits="userSpaceOnUse">
						<stop  offset="0" style="stop-color:#FFF48D"/>
						<stop  offset="0.2154" style="stop-color:#FFF189"/>
						<stop  offset="0.424" style="stop-color:#FEE67D"/>
						<stop  offset="0.6298" style="stop-color:#FDD56A"/>
						<stop  offset="0.8328" style="stop-color:#FCBD4F"/>
						<stop  offset="0.9243" style="stop-color:#FBB040"/>
					</radialGradient>
					<path id="path2868-5_12_" class="st20" d="M245.9,660.1c19.3-1.1,23.8-16.8,26.7-32.9C257.6,633.5,243.4,642.1,245.9,660.1z"/>
					<radialGradient id="path2874-2_1_" cx="234.0915" cy="655.5986" r="16.0577" gradientUnits="userSpaceOnUse">
						<stop  offset="0" style="stop-color:#FFF48D"/>
						<stop  offset="0.2154" style="stop-color:#FFF189"/>
						<stop  offset="0.424" style="stop-color:#FEE67D"/>
						<stop  offset="0.6298" style="stop-color:#FDD56A"/>
						<stop  offset="0.8328" style="stop-color:#FCBD4F"/>
						<stop  offset="0.9243" style="stop-color:#FBB040"/>
					</radialGradient>
					<path id="path2874-2_12_" class="st21" d="M233.5,676.8c14.5-12.8,8.4-27.9,0.7-42.3C226.4,648.6,220.5,664.1,233.5,676.8z"/>
				</g>
				<g id="g3240_12_">
					<radialGradient id="path1872_1_" cx="377.1261" cy="840.0203" r="15.824" gradientUnits="userSpaceOnUse">
						<stop  offset="0" style="stop-color:#FFF48D"/>
						<stop  offset="0.2154" style="stop-color:#FFF189"/>
						<stop  offset="0.424" style="stop-color:#FEE67D"/>
						<stop  offset="0.6298" style="stop-color:#FDD56A"/>
						<stop  offset="0.8328" style="stop-color:#FCBD4F"/>
						<stop  offset="0.9243" style="stop-color:#FBB040"/>
					</radialGradient>
					<path id="path1872_12_" class="st22" d="M397.7,836.2c-15.9-11-29.1-1.3-41.2,9.5C372.1,850,388.7,851.9,397.7,836.2z"/>
					<radialGradient id="path2784_1_" cx="377.7818" cy="813.134" r="15.0145" gradientUnits="userSpaceOnUse">
						<stop  offset="0" style="stop-color:#FFF48D"/>
						<stop  offset="0.2154" style="stop-color:#FFF189"/>
						<stop  offset="0.424" style="stop-color:#FEE67D"/>
						<stop  offset="0.6298" style="stop-color:#FDD56A"/>
						<stop  offset="0.8328" style="stop-color:#FCBD4F"/>
						<stop  offset="0.9243" style="stop-color:#FBB040"/>
					</radialGradient>
					<path id="path2784_12_" class="st23" d="M393.9,826.7c-0.7-19.3-16.3-24.2-32.3-27.4C367.6,814.4,375.9,828.8,393.9,826.7z"/>
					<radialGradient id="path2790_1_" cx="348.4037" cy="829.7715" r="15.963" gradientUnits="userSpaceOnUse">
						<stop  offset="0" style="stop-color:#FFF48D"/>
						<stop  offset="0.2154" style="stop-color:#FFF189"/>
						<stop  offset="0.424" style="stop-color:#FEE67D"/>
						<stop  offset="0.6298" style="stop-color:#FDD56A"/>
						<stop  offset="0.8328" style="stop-color:#FCBD4F"/>
						<stop  offset="0.9243" style="stop-color:#FBB040"/>
					</radialGradient>
					<path id="path2790_12_" class="st24" d="M369.4,827.5c-14.9-12.3-28.9-3.8-41.9,6C342.7,839,359,842.4,369.4,827.5z"/>
					<radialGradient id="path2796_1_" cx="349.7538" cy="798.2596" r="15.6051" gradientUnits="userSpaceOnUse">
						<stop  offset="0" style="stop-color:#FFF48D"/>
						<stop  offset="0.2154" style="stop-color:#FFF189"/>
						<stop  offset="0.424" style="stop-color:#FEE67D"/>
						<stop  offset="0.6298" style="stop-color:#FDD56A"/>
						<stop  offset="0.8328" style="stop-color:#FCBD4F"/>
						<stop  offset="0.9243" style="stop-color:#FBB040"/>
					</radialGradient>
					<path id="path2796_12_" class="st25" d="M355.5,818.3c9.3-16.9-1.6-29.1-13.6-40.1C339.2,794.2,339,810.9,355.5,818.3z"/>
					<radialGradient id="path2802_1_" cx="322.4403" cy="815.2818" r="15.9742" gradientUnits="userSpaceOnUse">
						<stop  offset="0" style="stop-color:#FFF48D"/>
						<stop  offset="0.2154" style="stop-color:#FFF189"/>
						<stop  offset="0.424" style="stop-color:#FEE67D"/>
						<stop  offset="0.6298" style="stop-color:#FDD56A"/>
						<stop  offset="0.8328" style="stop-color:#FCBD4F"/>
						<stop  offset="0.9243" style="stop-color:#FBB040"/>
					</radialGradient>
					<path id="path2802_12_" class="st26" d="M343.4,817.9c-11-15.9-26.8-11.6-41.9-5.7C314.6,821.7,329.4,829.4,343.4,817.9
						L343.4,817.9z"/>
					<radialGradient id="path2808_1_" cx="328.0652" cy="782.5689" r="16.0589" gradientUnits="userSpaceOnUse">
						<stop  offset="0" style="stop-color:#FFF48D"/>
						<stop  offset="0.2154" style="stop-color:#FFF189"/>
						<stop  offset="0.424" style="stop-color:#FEE67D"/>
						<stop  offset="0.6298" style="stop-color:#FDD56A"/>
						<stop  offset="0.8328" style="stop-color:#FCBD4F"/>
						<stop  offset="0.9243" style="stop-color:#FBB040"/>
					</radialGradient>
					<path id="path2808_12_" class="st27" d="M327.9,803.7c14.2-13.1,7.8-28.1-0.2-42.3C320.1,775.7,314.6,791.4,327.9,803.7
						L327.9,803.7z"/>
					<radialGradient id="path2814_1_" cx="300.2907" cy="796.0771" r="15.6043" gradientUnits="userSpaceOnUse">
						<stop  offset="0" style="stop-color:#FFF48D"/>
						<stop  offset="0.2154" style="stop-color:#FFF189"/>
						<stop  offset="0.424" style="stop-color:#FEE67D"/>
						<stop  offset="0.6298" style="stop-color:#FDD56A"/>
						<stop  offset="0.8328" style="stop-color:#FCBD4F"/>
						<stop  offset="0.9243" style="stop-color:#FBB040"/>
					</radialGradient>
					<path id="path2814_12_" class="st28" d="M320.3,802.1c-7.8-17.7-24.1-16.5-40.1-13.6C291.3,800.4,304.4,810.7,320.3,802.1z"/>
					<radialGradient id="path2820_1_" cx="310.855" cy="764.2062" r="15.9073" gradientUnits="userSpaceOnUse">
						<stop  offset="0" style="stop-color:#FFF48D"/>
						<stop  offset="0.2154" style="stop-color:#FFF189"/>
						<stop  offset="0.424" style="stop-color:#FEE67D"/>
						<stop  offset="0.6298" style="stop-color:#FDD56A"/>
						<stop  offset="0.8328" style="stop-color:#FCBD4F"/>
						<stop  offset="0.9243" style="stop-color:#FBB040"/>
					</radialGradient>
					<path id="path2820_12_" class="st29" d="M307.4,785c16.4-10.2,12.8-26.2,7.7-41.6C304.9,756,296.6,770.4,307.4,785z"/>
					<radialGradient id="path2826_1_" cx="283.2559" cy="772.8035" r="15.1966" gradientUnits="userSpaceOnUse">
						<stop  offset="0" style="stop-color:#FFF48D"/>
						<stop  offset="0.2154" style="stop-color:#FFF189"/>
						<stop  offset="0.424" style="stop-color:#FEE67D"/>
						<stop  offset="0.6298" style="stop-color:#FDD56A"/>
						<stop  offset="0.8328" style="stop-color:#FCBD4F"/>
						<stop  offset="0.9243" style="stop-color:#FBB040"/>
					</radialGradient>
					<path id="path2826_12_" class="st30" d="M301.7,782.6c-4.3-18.9-20.5-20.7-36.8-20.9C273.5,775.4,284.3,788,301.7,782.6z"/>
					<radialGradient id="path2832_1_" cx="302.3073" cy="734.6856" r="15.675" gradientUnits="userSpaceOnUse">
						<stop  offset="0" style="stop-color:#FFF48D"/>
						<stop  offset="0.2154" style="stop-color:#FFF189"/>
						<stop  offset="0.424" style="stop-color:#FEE67D"/>
						<stop  offset="0.6298" style="stop-color:#FDD56A"/>
						<stop  offset="0.8328" style="stop-color:#FCBD4F"/>
						<stop  offset="0.9243" style="stop-color:#FBB040"/>
					</radialGradient>
					<path id="path2832_12_" class="st31" d="M296.8,754.9c17.5-8.3,15.8-24.5,12.4-40.5C297.7,725.8,287.7,739.2,296.8,754.9z"/>
					<radialGradient id="path2838_1_" cx="276.8456" cy="747.9874" r="15.0732" gradientUnits="userSpaceOnUse">
						<stop  offset="0" style="stop-color:#FFF48D"/>
						<stop  offset="0.2154" style="stop-color:#FFF189"/>
						<stop  offset="0.424" style="stop-color:#FEE67D"/>
						<stop  offset="0.6298" style="stop-color:#FDD56A"/>
						<stop  offset="0.8328" style="stop-color:#FCBD4F"/>
						<stop  offset="0.9243" style="stop-color:#FBB040"/>
					</radialGradient>
					<path id="path2838_12_" class="st32" d="M293.9,760.3c-2-19.2-17.9-23-34.1-25.2C266.7,749.8,276,763.6,293.9,760.3z"/>
					<radialGradient id="path2844_1_" cx="299.3899" cy="705.0668" r="15.1916" gradientUnits="userSpaceOnUse">
						<stop  offset="0" style="stop-color:#FFF48D"/>
						<stop  offset="0.2154" style="stop-color:#FFF189"/>
						<stop  offset="0.424" style="stop-color:#FEE67D"/>
						<stop  offset="0.6298" style="stop-color:#FDD56A"/>
						<stop  offset="0.8328" style="stop-color:#FCBD4F"/>
						<stop  offset="0.9243" style="stop-color:#FBB040"/>
					</radialGradient>
					<path id="path2844_12_" class="st33" d="M289.4,723.4c18.9-4.2,20.8-20.4,21.1-36.7C296.8,695.3,284.1,706.1,289.4,723.4z"/>
					<radialGradient id="path2850_1_" cx="275.4193" cy="719.4763" r="15.2026" gradientUnits="userSpaceOnUse">
						<stop  offset="0" style="stop-color:#FFF48D"/>
						<stop  offset="0.2154" style="stop-color:#FFF189"/>
						<stop  offset="0.424" style="stop-color:#FEE67D"/>
						<stop  offset="0.6298" style="stop-color:#FDD56A"/>
						<stop  offset="0.8328" style="stop-color:#FCBD4F"/>
						<stop  offset="0.9243" style="stop-color:#FBB040"/>
					</radialGradient>
					<path id="path2850_12_" class="st34" d="M285.7,737.6c5.5-18.5-7.8-28.1-21.9-36.2C264.7,717.5,268,733.9,285.7,737.6z"/>
					<radialGradient id="path2856_1_" cx="311.9002" cy="672.1116" r="14.9822" gradientUnits="userSpaceOnUse">
						<stop  offset="0" style="stop-color:#FFF48D"/>
						<stop  offset="0.2154" style="stop-color:#FFF189"/>
						<stop  offset="0.424" style="stop-color:#FEE67D"/>
						<stop  offset="0.6298" style="stop-color:#FDD56A"/>
						<stop  offset="0.8328" style="stop-color:#FCBD4F"/>
						<stop  offset="0.9243" style="stop-color:#FBB040"/>
					</radialGradient>
					<path id="path2856_12_" class="st35" d="M296.9,687c19.3,1,25.5-14.2,30.1-29.8C311.4,661.8,296.3,668.8,296.9,687z"/>
					<radialGradient id="path2862_1_" cx="281.3266" cy="686.994" r="15.8971" gradientUnits="userSpaceOnUse">
						<stop  offset="0" style="stop-color:#FFF48D"/>
						<stop  offset="0.2154" style="stop-color:#FFF189"/>
						<stop  offset="0.424" style="stop-color:#FEE67D"/>
						<stop  offset="0.6298" style="stop-color:#FDD56A"/>
						<stop  offset="0.8328" style="stop-color:#FCBD4F"/>
						<stop  offset="0.9243" style="stop-color:#FBB040"/>
					</radialGradient>
					<path id="path2862_12_" class="st36" d="M284.4,707.8c11.6-15.5,2.5-29.1-7.9-41.6C271.7,681.6,269.1,698.1,284.4,707.8z"/>
					<radialGradient id="path2868_1_" cx="318.5238" cy="643.0543" r="15.0321" gradientUnits="userSpaceOnUse">
						<stop  offset="0" style="stop-color:#FFF48D"/>
						<stop  offset="0.2154" style="stop-color:#FFF189"/>
						<stop  offset="0.424" style="stop-color:#FEE67D"/>
						<stop  offset="0.6298" style="stop-color:#FDD56A"/>
						<stop  offset="0.8328" style="stop-color:#FCBD4F"/>
						<stop  offset="0.9243" style="stop-color:#FBB040"/>
					</radialGradient>
					<path id="path2868_12_" class="st37" d="M305.3,659.5c19.3-1.1,23.8-16.8,26.7-32.9C317.1,632.9,302.8,641.5,305.3,659.5z"/>
					<radialGradient id="path2874_1_" cx="293.5509" cy="654.9962" r="16.0577" gradientUnits="userSpaceOnUse">
						<stop  offset="0" style="stop-color:#FFF48D"/>
						<stop  offset="0.2154" style="stop-color:#FFF189"/>
						<stop  offset="0.424" style="stop-color:#FEE67D"/>
						<stop  offset="0.6298" style="stop-color:#FDD56A"/>
						<stop  offset="0.8328" style="stop-color:#FCBD4F"/>
						<stop  offset="0.9243" style="stop-color:#FBB040"/>
					</radialGradient>
					<path id="path2874_12_" class="st38" d="M293,676.2c14.5-12.8,8.4-27.9,0.7-42.3C285.8,648,279.9,663.5,293,676.2z"/>
				</g>
				<radialGradient id="path3042_1_" cx="407.3958" cy="832.2676" r="5.5998" gradientUnits="userSpaceOnUse">
					<stop  offset="0" style="stop-color:#FFF48D"/>
					<stop  offset="0.2154" style="stop-color:#FFF189"/>
					<stop  offset="0.424" style="stop-color:#FEE67D"/>
					<stop  offset="0.6298" style="stop-color:#FDD56A"/>
					<stop  offset="0.8328" style="stop-color:#FCBD4F"/>
					<stop  offset="0.9243" style="stop-color:#FBB040"/>
				</radialGradient>
				<path id="path3042_12_" class="st39" d="M413,832.3c0,3.1-2.5,5.6-5.6,5.6s-5.6-2.5-5.6-5.6c0-3.1,2.5-5.6,5.6-5.6
					S413,829.2,413,832.3L413,832.3z"/>
			</g>
		</g>
		<g>
			<g>
				<radialGradient id="SVGID_6_" cx="499.5642" cy="482.1237" r="76.4108" gradientUnits="userSpaceOnUse">
					<stop  offset="0.7299" style="stop-color:#1E1D48"/>
					<stop  offset="1" style="stop-color:#4949AD"/>
				</radialGradient>
				<circle class="st40" cx="499.6" cy="482.1" r="76.4"/>
				<radialGradient id="SVGID_7_" cx="499.5642" cy="482.1237" r="71.7822" gradientUnits="userSpaceOnUse">
					<stop  offset="0" style="stop-color:#4949AD"/>
					<stop  offset="1" style="stop-color:#1E1D48"/>
				</radialGradient>
				<circle class="st41" cx="499.6" cy="482.1" r="71.8"/>
			</g>
			<g>
				<radialGradient id="SVGID_8_" cx="500.8537" cy="483.3631" r="42.522" gradientUnits="userSpaceOnUse">
					<stop  offset="0" style="stop-color:#12C7BA"/>
					<stop  offset="1" style="stop-color:#94FFF2"/>
				</radialGradient>
				<polygon class="st42" points="454.3,521.4 498.4,483.4 454.3,445.3 547.4,445.3 503.3,483.4 547.4,521.4 				"/>
				<radialGradient id="SVGID_9_" cx="500.8537" cy="482.9558" r="38.2479" gradientUnits="userSpaceOnUse">
					<stop  offset="0" style="stop-color:#94FFF2"/>
					<stop  offset="1" style="stop-color:#12C7BA"/>
				</radialGradient>
				<polygon class="st43" points="543.1,447 458.6,447 500.8,483.4 458.6,519.8 543.1,519.8 500.9,483.4 				"/>
			</g>
		</g>
	</g>
	<g>
		<radialGradient id="SVGID_10_" cx="500.399" cy="739.7587" r="54.2907" gradientUnits="userSpaceOnUse">
			<stop  offset="0" style="stop-color:#FFF48D"/>
			<stop  offset="0.1171" style="stop-color:#FFF189"/>
			<stop  offset="0.2306" style="stop-color:#FEE67D"/>
			<stop  offset="0.3425" style="stop-color:#FDD56A"/>
			<stop  offset="0.4529" style="stop-color:#FCBD4F"/>
			<stop  offset="0.5027" style="stop-color:#FBB040"/>
		</radialGradient>
		<polygon class="st44" points="500.4,774.6 466,792.7 472.6,754.4 444.8,727.3 483.2,721.7 500.4,686.8 517.6,721.7 556,727.3 
			528.2,754.4 534.8,792.7 		"/>
		<radialGradient id="SVGID_11_" cx="500.3988" cy="741.0574" r="41.6632" gradientUnits="userSpaceOnUse">
			<stop  offset="0" style="stop-color:#EFEFEF"/>
			<stop  offset="0.2041" style="stop-color:#EBEBEB"/>
			<stop  offset="0.4018" style="stop-color:#DFDFDF"/>
			<stop  offset="0.5969" style="stop-color:#CCCCCC"/>
			<stop  offset="0.7892" style="stop-color:#B1B1B1"/>
			<stop  offset="0.9243" style="stop-color:#999999"/>
		</radialGradient>
		<polygon class="st45" points="500.4,700.5 513.6,727.2 543.1,731.5 521.7,752.3 526.8,781.7 500.4,767.8 474,781.7 479.1,752.3 
			457.7,731.5 487.2,727.2 		"/>
	</g>
</g>
</svg>
