<?xml version="1.0" encoding="utf-8"?>
<!-- Generator: Adobe Illustrator 25.2.3, SVG Export Plug-In . SVG Version: 6.00 Build 0)  -->
<svg version="1.1" id="Layer_1" xmlns="http://www.w3.org/2000/svg" xmlns:xlink="http://www.w3.org/1999/xlink" x="0px" y="0px"
	 viewBox="0 0 1000 1000" style="enable-background:new 0 0 1000 1000;" xml:space="preserve">
<style type="text/css">
	.st0{fill:#12C7BA;}
</style>
<g transform="matrix(1,0,0,-1,37.966102,1343.4237)">
	<path class="st0" d="M462,414.9c-9.7,0-17.9,3.3-24.6,10L89.3,760.8c-3.7,3-8.8,7.8-15.3,14.5c-6.5,6.7-16.8,18.9-31,36.6
		S16.2,847.7,5,866.3s-21.1,41.1-29.9,67.5s-13.1,52.1-13.1,77c0,81.8,23.6,145.8,70.9,192s112.5,69.2,195.9,69.2
		c23.1,0,46.6-4,70.6-12s46.3-18.8,67-32.4c20.6-13.6,38.4-26.3,53.3-38.2c14.9-11.9,29-24.6,42.4-37.9c13.4,13.4,27.5,26,42.4,37.9
		s32.6,24.6,53.3,38.2c20.6,13.6,43,24.4,67,32.4s47.5,12,70.6,12c83.3,0,148.6-23.1,195.9-69.2c47.2-46.1,70.9-110.1,70.9-192
		c0-82.2-42.6-165.9-127.8-251.1L486.6,424.9C479.9,418.2,471.7,414.9,462,414.9"/>
</g>
</svg>
