<?xml version="1.0" encoding="utf-8"?>
<!-- Generator: Adobe Illustrator 25.2.1, SVG Export Plug-In . SVG Version: 6.00 Build 0)  -->
<svg version="1.1" id="Layer_1" xmlns="http://www.w3.org/2000/svg" xmlns:xlink="http://www.w3.org/1999/xlink" x="0px" y="0px"
	 viewBox="0 0 1056.5 1000" style="enable-background:new 0 0 1056.5 1000;" xml:space="preserve">
<style type="text/css">
	.st0{fill:url(#SVGID_1_);}
	.st1{fill:url(#SVGID_2_);}
	.st2{fill:url(#SVGID_3_);}
	.st3{fill:url(#SVGID_4_);}
	.st4{fill:url(#SVGID_5_);}
	.st5{fill-rule:evenodd;clip-rule:evenodd;fill:url(#path1872-7_1_);}
	.st6{fill-rule:evenodd;clip-rule:evenodd;fill:url(#path2784-4_1_);}
	.st7{fill-rule:evenodd;clip-rule:evenodd;fill:url(#path2790-0_1_);}
	.st8{fill-rule:evenodd;clip-rule:evenodd;fill:url(#path2796-9_1_);}
	.st9{fill-rule:evenodd;clip-rule:evenodd;fill:url(#path2802-4_1_);}
	.st10{fill-rule:evenodd;clip-rule:evenodd;fill:url(#path2808-8_1_);}
	.st11{fill-rule:evenodd;clip-rule:evenodd;fill:url(#path2814-8_1_);}
	.st12{fill-rule:evenodd;clip-rule:evenodd;fill:url(#path2820-2_1_);}
	.st13{fill-rule:evenodd;clip-rule:evenodd;fill:url(#path2826-4_1_);}
	.st14{fill-rule:evenodd;clip-rule:evenodd;fill:url(#path2832-5_1_);}
	.st15{fill-rule:evenodd;clip-rule:evenodd;fill:url(#path2838-5_1_);}
	.st16{fill-rule:evenodd;clip-rule:evenodd;fill:url(#path2844-1_1_);}
	.st17{fill-rule:evenodd;clip-rule:evenodd;fill:url(#path2850-7_1_);}
	.st18{fill-rule:evenodd;clip-rule:evenodd;fill:url(#path2856-1_1_);}
	.st19{fill-rule:evenodd;clip-rule:evenodd;fill:url(#path2862-1_1_);}
	.st20{fill-rule:evenodd;clip-rule:evenodd;fill:url(#path2868-5_1_);}
	.st21{fill-rule:evenodd;clip-rule:evenodd;fill:url(#path2874-2_1_);}
	.st22{fill-rule:evenodd;clip-rule:evenodd;fill:url(#path1872_1_);}
	.st23{fill-rule:evenodd;clip-rule:evenodd;fill:url(#path2784_1_);}
	.st24{fill-rule:evenodd;clip-rule:evenodd;fill:url(#path2790_1_);}
	.st25{fill-rule:evenodd;clip-rule:evenodd;fill:url(#path2796_1_);}
	.st26{fill-rule:evenodd;clip-rule:evenodd;fill:url(#path2802_1_);}
	.st27{fill-rule:evenodd;clip-rule:evenodd;fill:url(#path2808_1_);}
	.st28{fill-rule:evenodd;clip-rule:evenodd;fill:url(#path2814_1_);}
	.st29{fill-rule:evenodd;clip-rule:evenodd;fill:url(#path2820_1_);}
	.st30{fill-rule:evenodd;clip-rule:evenodd;fill:url(#path2826_1_);}
	.st31{fill-rule:evenodd;clip-rule:evenodd;fill:url(#path2832_1_);}
	.st32{fill-rule:evenodd;clip-rule:evenodd;fill:url(#path2838_1_);}
	.st33{fill-rule:evenodd;clip-rule:evenodd;fill:url(#path2844_1_);}
	.st34{fill-rule:evenodd;clip-rule:evenodd;fill:url(#path2850_1_);}
	.st35{fill-rule:evenodd;clip-rule:evenodd;fill:url(#path2856_1_);}
	.st36{fill-rule:evenodd;clip-rule:evenodd;fill:url(#path2862_1_);}
	.st37{fill-rule:evenodd;clip-rule:evenodd;fill:url(#path2868_1_);}
	.st38{fill-rule:evenodd;clip-rule:evenodd;fill:url(#path2874_1_);}
	.st39{fill:url(#path3042_1_);}
	.st40{fill:url(#SVGID_6_);}
	.st41{fill:url(#SVGID_7_);}
	.st42{fill:url(#SVGID_8_);}
	.st43{fill:url(#SVGID_9_);}
	.st44{fill:url(#SVGID_10_);}
	.st45{fill:url(#SVGID_11_);}
	.st46{fill:url(#SVGID_12_);}
	.st47{fill:url(#SVGID_13_);}
</style>
<g>
	<g>
		<g>
			<radialGradient id="SVGID_1_" cx="527.3836" cy="426.3732" r="640.3635" gradientUnits="userSpaceOnUse">
				<stop  offset="0" style="stop-color:#231F20"/>
				<stop  offset="0.3161" style="stop-color:#1F1C1C"/>
				<stop  offset="0.6216" style="stop-color:#141112"/>
				<stop  offset="0.9227" style="stop-color:#000000"/>
				<stop  offset="0.9243" style="stop-color:#000000"/>
			</radialGradient>
			<path class="st0" d="M420.2,141c-20.6,42.3-135.9,207.7-224.5,193c-6.2,152.3,135.6,333.2,127,407.6
				c37.4,48.2,176,173.8,206.1,202.8c40.2-40.1,93.2-49.1,180-158.6c26.4-119.1,136.7-259.5,150.5-437.1
				c-84.7-35.4-311.6-225.9-273.7-244.2l-57.3-50.2L420.2,141z"/>
		</g>
		<radialGradient id="SVGID_2_" cx="528.239" cy="500" r="437.8128" gradientUnits="userSpaceOnUse">
			<stop  offset="0" style="stop-color:#220D3A"/>
			<stop  offset="1" style="stop-color:#7634D6"/>
		</radialGradient>
		<path class="st1" d="M488.1,968.9c-0.3-0.2-29.7-24.5-60.5-53.1c-59.6-55.4-71.5-77.5-75.4-93.2c-2.6-10.4-21.6-29.2-37.1-39.6
			l-21.3-14.3l6.2-24.9c7.6-30.4,5.6-54.1-5.8-70.5c-17.9-25.5-55.5-30-55.9-30.1l-34.9-3.2l2.1-35.2
			c3.3-60.2-38.3-146.4-38.7-147.3l-3.7-7.6l0-8.4v-153l64.9,11.8c3.6,0.7,7.2,1,10.8,1c14,0,27.7-5,38.5-14
			c13.7-11.5,21.6-28.3,21.6-46.2v-23.9L486.2,39.1L528.2,0l42,39l187.3,178.2v23.9c0,17.9,7.9,34.7,21.6,46.2
			c10.8,9,24.5,14,38.5,14c3.6,0,7.2-0.3,10.8-1l64.9-11.8v161.5l-3.7,7.6c-0.4,0.8-42,87.2-38.7,147.3l2,35.1l-35,3.3
			c-0.2,0-37.8,4.6-55.6,30c-11.5,16.4-13.4,40.1-5.8,70.5l6.2,25l-21.4,14.3c-15.4,10.4-34.4,29.1-37,39.5
			c-3.9,15.7-15.8,37.8-75.4,93.2c-30.8,28.6-60.2,52.9-60.5,53.1l-40.1,31.1L488.1,968.9z M422.7,803.8
			c5.3,11.9,50.4,57.5,105.5,103.5c55.1-46,100.2-91.6,105.5-103.5c7.2-27.1,28.7-50.4,47.2-66.2c-6-41.7,1.4-77.6,22-106.7
			c21.3-30,51.9-45.3,75.9-53.1c5.4-59.9,32-123.1,41.6-144.3v-59.2c-0.9,0-1.8,0-2.8,0c-31.1,0-61.3-11-85.3-31
			c-28.3-23.6-45.5-57.9-47.6-94.6L528.2,99.8L371.7,248.8c-2.1,36.7-19.3,71-47.6,94.6c-23.9,20-54.2,31-85.3,31
			c-0.9,0-1.8,0-2.8,0v59.2c9.6,21.3,36.3,84.4,41.6,144.3c24,7.8,54.6,23.1,75.9,53.1c20.6,29.1,28,64.9,22,106.7
			C394,753.4,415.6,776.8,422.7,803.8z"/>
		<radialGradient id="SVGID_3_" cx="528.2386" cy="500.4895" r="426.444" gradientUnits="userSpaceOnUse">
			<stop  offset="0" style="stop-color:#7634D6"/>
			<stop  offset="0.1528" style="stop-color:#7433D2"/>
			<stop  offset="0.3008" style="stop-color:#6E30C6"/>
			<stop  offset="0.447" style="stop-color:#632BB3"/>
			<stop  offset="0.5919" style="stop-color:#542498"/>
			<stop  offset="0.7361" style="stop-color:#411C74"/>
			<stop  offset="0.8778" style="stop-color:#2A114A"/>
			<stop  offset="0.9243" style="stop-color:#220D3A"/>
		</radialGradient>
		<path class="st2" d="M830.2,310c-20.5,3.7-41.3-1.8-57.3-15.1c-16-13.3-25.1-32.9-25.1-53.7v-19.7L563.6,46.2l-35.4-32.9
			l-35.4,32.9L308.6,221.4v19.7c0,20.8-9.2,40.4-25.1,53.7c-16,13.3-36.8,18.9-57.3,15.1l-53.4-9.7v141.3l0,6.2l2.7,5.6
			c0.4,0.9,43.2,89.2,39.7,152.2l-1.6,25.7l25.7,2.4c0.4,0,42.2,4.7,62.9,34.2c13.2,18.8,15.6,45.2,7.3,78.4l-4.5,18.3l15.6,10.5
			c14.9,10,37.4,30.6,41.1,45.3c3.4,13.6,14.7,34.7,72.6,88.4c30.2,28,58.9,51.7,60.1,52.7l34,26.3l34-26.3
			c1.2-1,29.9-24.7,60.1-52.7c57.9-53.8,69.2-74.9,72.6-88.4c3.7-14.6,26.2-35.3,41.1-45.3l15.7-10.5l-4.6-18.3
			c-8.3-33.2-5.8-59.6,7.3-78.4c20.6-29.5,62.4-34.1,62.7-34.2l25.7-2.4l-1.4-25.8c-3.5-62.9,39.2-151.3,39.6-152.1l2.7-5.6V300.3
			L830.2,310z M830.1,435.6c-9.2,20.1-38.3,87.6-42.1,149.6c-22.3,6.3-55.2,20.5-77.1,51.4c-20,28.2-26.5,63.5-19.5,105
			c-16.5,13.5-41.3,37.6-48.4,65.3c-6.3,16.2-64.3,71.5-114.8,113.1c-50.5-41.7-108.5-96.9-114.8-113.1
			c-7.1-27.7-31.9-51.9-48.4-65.3c7-41.5,0.5-76.8-19.5-105c-21.9-30.9-54.8-45-77.1-51.4c-3.8-62-32.9-129.5-42.1-149.6V364
			c33,3.4,65.9-6.7,91.5-28.1c27.3-22.8,43.4-56,44.3-91.5l166.1-158l166.1,158c0.9,35.5,17,68.7,44.3,91.5
			c25.7,21.4,58.6,31.4,91.5,28.1V435.6z"/>
	</g>
	<g>
		<radialGradient id="SVGID_4_" cx="528.2131" cy="511.2717" r="176.7038" gradientUnits="userSpaceOnUse">
			<stop  offset="0" style="stop-color:#FFF48D"/>
			<stop  offset="0.1171" style="stop-color:#FFF189"/>
			<stop  offset="0.2306" style="stop-color:#FEE67D"/>
			<stop  offset="0.3425" style="stop-color:#FDD56A"/>
			<stop  offset="0.4529" style="stop-color:#FCBD4F"/>
			<stop  offset="0.5027" style="stop-color:#FBB040"/>
		</radialGradient>
		<path class="st3" d="M513.3,685.3l-1.4-0.9c-0.1,0-0.3-0.1-0.5-0.1c-18.2-4.1-27.6-15.5-28.1-33.7c-4.2-2.5-7.7-6.2-11.3-10
			c-5.9-6.2-12.5-13.2-23.5-17.1c-8.1-3.1-14-8.7-17.2-16.3c-5.3-12.6-2.6-28.5,2-42.4c-0.3,0-0.5,0-0.8,0c-5,0-10.3-0.6-15.6-1.8
			c-8.6-1.6-17.6-5.7-21.1-7.5l-18.7-9.3c0,0,20.2-9.2,20.9-9.5c-44-7-47.1-35.4-49.1-53.2l0-0.5c-1.2-21.5,6.8-36.5,13.8-49.8
			c9.5-17.8,17.6-33.2,4.1-65l-0.2-0.5c-0.3-0.8-0.7-1.5-1-2.3l-9.7-27.4l24.4,15.9c0.4,0.2,35.9,27,31.4,59.7
			c-1.2,7.8-4,15.6-6.8,23.2c-5.1,14.2-10,27.5-4.1,37.1c0.2,0.3,0.3,0.5,0.4,0.7c3.1-0.7,9.4-3.4,14.3-5.4
			c9-3.8,20.1-8.6,32.5-11.6c7-10.8,21.5-16.5,31.5-19.4l1.3-8.1c0.7,0,1.4,0,2.1,0c14.5,0,29.6,4.1,45.2,12.2
			c19.2-10,35-12.2,45.2-12.2l1.5,0l-0.1,6.7l1.7,1.4c0.9,0.3,1.9,0.5,3,0.9c1.8,0.5,20.5,5.7,28.8,18.5c3,0.7,7.8,2,16.1,5
			c5.9,2.1,11.2,4.4,16,6.5c5.9,2.5,11.1,4.7,14.7,5.5c6-8.7,2.6-20.3-3.8-38.3c-1.9-5.4-3.9-10.9-5.4-16.5l-0.1-0.6
			c-2-9.1-2.3-16.6,1.6-27.9c6.5-17.4,21.8-32.9,28.6-37.4l25.3-16.6l-10.6,28.3c-0.1,0.3-0.3,0.8-0.6,1.6
			c-8.7,20.4-8.5,33.9-6.8,41.6c1.4,6.4,5.1,13.8,9,21.6c9.1,18,20.3,40.5,12.8,68.9c-4,15.1-15.4,32.6-46.4,37.7
			c2.2,1,2.5,1.3,3.2,1.7l7.3,5.4l-4.8,7.7c-4.1,6.7-26.5,13-40.9,13c-0.1,0-0.3,0-0.4,0c13.6,42.1-4.3,55.1-16.2,59.1
			c-9.6,3.3-16.3,10.2-22.1,16.4c-3.8,4-7.5,7.8-11.7,10.4c-0.3,6.5-1.8,17.1-10,25c-3.7,3.8-8.8,6.5-14.7,8l-1.5,1.7H513.3z"/>
		
			<radialGradient id="SVGID_5_" cx="528.2131" cy="519.3165" r="163.1938" fx="527.8467" fy="566.6899" gradientUnits="userSpaceOnUse">
			<stop  offset="0" style="stop-color:#7634D6"/>
			<stop  offset="0.1528" style="stop-color:#7433D2"/>
			<stop  offset="0.3008" style="stop-color:#6E30C6"/>
			<stop  offset="0.447" style="stop-color:#632BB3"/>
			<stop  offset="0.5919" style="stop-color:#542498"/>
			<stop  offset="0.7361" style="stop-color:#411C74"/>
			<stop  offset="0.8778" style="stop-color:#2A114A"/>
			<stop  offset="0.9243" style="stop-color:#220D3A"/>
		</radialGradient>
		<path class="st4" d="M375.1,362.6c3.3,2.2,30.4,25.6,27,50.1c-3.2,20.8-21.9,46.8-9.5,66.9c2.2,3.6,3.9,5.7,7.3,5.5
			c8.7,0.3,27.9-12,51-17.6c2.7-0.7,3.6-0.3,4.5-2.4c4.7-10.1,21.4-15.9,32.5-18.3c0.9-0.2,3.9-0.4,2.8-2.2
			c-0.6-0.9-1.9-1.3-9.5-4.2c24.8-0.7,45.9,13.2,47,13.5c1-0.3,22-14,46.5-13.5l0.2-0.2c-0.1,0.1-0.2,0.3-0.2,0.5
			c-0.9,0.1-6,2.2-7,2.6c-1.2,0.5-2.5,1.1-2,2.4c0.5,1.2,2.2,0.5,10.9,3.2c6,1.6,19.7,7.1,24.2,15.8c2,3.9,0.1,0.3,20.2,7.6
			c13.5,4.9,24.6,10.9,32.4,12.5c6.3,1.2,7.4-1.1,9.2-3.5c13-17.8-0.9-40.7-7.3-63.8c-1.7-7.8-1.9-13.5,1.3-22.5
			c5.7-15.2,19.8-29.2,24.7-32.4c-1,2.6-12.6,26.8-7.8,48.8c5,23.3,31.6,49,21.9,85.9c-11.6,43.9-78.5,29.2-80.9,30.1
			c-0.2,0.1-0.4,0.1-0.4,0.4c-0.1,0.4,0.2,0.6,0.5,0.8c1.9,1.5,40,17.7,41.2,18.6c-0.7,1.2-24.7,12.2-44.3,6.8
			c-0.7-0.2-1.3-0.5-2-0.6c-2.6,0.8-0.9,1.2,3.9,14.6c6.1,18.7,8.8,40.9-9.8,47.1c-20.7,7.1-28.8,26.2-38.9,29
			c-0.9,0.2-1.7,1.1-1.7,2c0,2.7,1.1,15.2-7,23c-3.3,3.3-7.7,5.2-12.3,6c-0.7,0.1-1.2,0.5-1.6,1h-26.2c-2.5-1.6-23.4-1.1-23-27
			c0-3.9,0.8-4-2.4-5.2c-9.8-3.5-16.9-21.3-39-29.1c-20.8-8-13.5-37.5-4.5-57.9c0.4-0.8,0.8-1.8,0.5-2.7c-0.6-1-3.2-0.1-3.5,0
			c-8.1,2.1-16.9,1.7-25.2-0.1c-9.1-1.7-18.7-6.6-18.9-6.7c34.6-15.6,41.1-17.4,40.7-19.2c-1.5-1.1-9.3,0.9-22.4,1
			c-54.7-0.6-57.5-26.7-59.6-46c-2.5-46.3,43-57.3,17.2-118.1C375.7,364.1,375.3,363.4,375.1,362.6z"/>
	</g>
	<g>
		<g id="layer1_15_" transform="translate(91.881 -228.75)">
			<g id="g3332_15_">
				<g id="g3240-1_15_" transform="matrix(-1 0 0 1 755.44 -.88158)">
					<radialGradient id="path1872-7_1_" cx="296.0545" cy="600.1556" r="12.5032" gradientUnits="userSpaceOnUse">
						<stop  offset="0" style="stop-color:#FFF48D"/>
						<stop  offset="0.2154" style="stop-color:#FFF189"/>
						<stop  offset="0.424" style="stop-color:#FEE67D"/>
						<stop  offset="0.6298" style="stop-color:#FDD56A"/>
						<stop  offset="0.8328" style="stop-color:#FCBD4F"/>
						<stop  offset="0.9243" style="stop-color:#FBB040"/>
					</radialGradient>
					<path id="path1872-7_15_" class="st5" d="M312.3,597.1c-12.6-8.7-23-1.1-32.6,7.5C292.1,608,305.2,609.5,312.3,597.1z"/>
					<radialGradient id="path2784-4_1_" cx="296.5726" cy="578.9116" r="11.8636" gradientUnits="userSpaceOnUse">
						<stop  offset="0" style="stop-color:#FFF48D"/>
						<stop  offset="0.2154" style="stop-color:#FFF189"/>
						<stop  offset="0.424" style="stop-color:#FEE67D"/>
						<stop  offset="0.6298" style="stop-color:#FDD56A"/>
						<stop  offset="0.8328" style="stop-color:#FCBD4F"/>
						<stop  offset="0.9243" style="stop-color:#FBB040"/>
					</radialGradient>
					<path id="path2784-4_15_" class="st6" d="M309.3,589.7c-0.6-15.3-12.9-19.1-25.5-21.6C288.5,579.9,295.1,591.3,309.3,589.7z"/>
					<radialGradient id="path2790-0_1_" cx="273.3597" cy="592.0577" r="12.613" gradientUnits="userSpaceOnUse">
						<stop  offset="0" style="stop-color:#FFF48D"/>
						<stop  offset="0.2154" style="stop-color:#FFF189"/>
						<stop  offset="0.424" style="stop-color:#FEE67D"/>
						<stop  offset="0.6298" style="stop-color:#FDD56A"/>
						<stop  offset="0.8328" style="stop-color:#FCBD4F"/>
						<stop  offset="0.9243" style="stop-color:#FBB040"/>
					</radialGradient>
					<path id="path2790-0_15_" class="st7" d="M289.9,590.2c-11.8-9.7-22.9-3-33.1,4.8C268.8,599.4,281.7,602,289.9,590.2z"/>
					<radialGradient id="path2796-9_1_" cx="274.4265" cy="567.1588" r="12.3303" gradientUnits="userSpaceOnUse">
						<stop  offset="0" style="stop-color:#FFF48D"/>
						<stop  offset="0.2154" style="stop-color:#FFF189"/>
						<stop  offset="0.424" style="stop-color:#FEE67D"/>
						<stop  offset="0.6298" style="stop-color:#FDD56A"/>
						<stop  offset="0.8328" style="stop-color:#FCBD4F"/>
						<stop  offset="0.9243" style="stop-color:#FBB040"/>
					</radialGradient>
					<path id="path2796-9_15_" class="st8" d="M279,583c7.4-13.4-1.3-23-10.8-31.7C266.1,563.9,265.9,577.1,279,583z"/>
					<radialGradient id="path2802-4_1_" cx="252.8449" cy="580.6088" r="12.6219" gradientUnits="userSpaceOnUse">
						<stop  offset="0" style="stop-color:#FFF48D"/>
						<stop  offset="0.2154" style="stop-color:#FFF189"/>
						<stop  offset="0.424" style="stop-color:#FEE67D"/>
						<stop  offset="0.6298" style="stop-color:#FDD56A"/>
						<stop  offset="0.8328" style="stop-color:#FCBD4F"/>
						<stop  offset="0.9243" style="stop-color:#FBB040"/>
					</radialGradient>
					<path id="path2802-4_15_" class="st9" d="M269.4,582.7c-8.7-12.6-21.1-9.2-33.1-4.5C246.6,585.7,258.3,591.8,269.4,582.7
						L269.4,582.7z"/>
					<radialGradient id="path2808-8_1_" cx="257.2894" cy="554.7609" r="12.6888" gradientUnits="userSpaceOnUse">
						<stop  offset="0" style="stop-color:#FFF48D"/>
						<stop  offset="0.2154" style="stop-color:#FFF189"/>
						<stop  offset="0.424" style="stop-color:#FEE67D"/>
						<stop  offset="0.6298" style="stop-color:#FDD56A"/>
						<stop  offset="0.8328" style="stop-color:#FCBD4F"/>
						<stop  offset="0.9243" style="stop-color:#FBB040"/>
					</radialGradient>
					<path id="path2808-8_15_" class="st10" d="M257.2,571.5c11.2-10.3,6.1-22.2-0.1-33.5C251,549.3,246.6,561.7,257.2,571.5
						L257.2,571.5z"/>
					<radialGradient id="path2814-8_1_" cx="235.3436" cy="565.4343" r="12.3296" gradientUnits="userSpaceOnUse">
						<stop  offset="0" style="stop-color:#FFF48D"/>
						<stop  offset="0.2154" style="stop-color:#FFF189"/>
						<stop  offset="0.424" style="stop-color:#FEE67D"/>
						<stop  offset="0.6298" style="stop-color:#FDD56A"/>
						<stop  offset="0.8328" style="stop-color:#FCBD4F"/>
						<stop  offset="0.9243" style="stop-color:#FBB040"/>
					</radialGradient>
					<path id="path2814-8_15_" class="st11" d="M251.2,570.2c-6.1-14-19-13-31.7-10.7C228.2,568.8,238.6,577,251.2,570.2z"/>
					<radialGradient id="path2820-2_1_" cx="243.6909" cy="540.2517" r="12.569" gradientUnits="userSpaceOnUse">
						<stop  offset="0" style="stop-color:#FFF48D"/>
						<stop  offset="0.2154" style="stop-color:#FFF189"/>
						<stop  offset="0.424" style="stop-color:#FEE67D"/>
						<stop  offset="0.6298" style="stop-color:#FDD56A"/>
						<stop  offset="0.8328" style="stop-color:#FCBD4F"/>
						<stop  offset="0.9243" style="stop-color:#FBB040"/>
					</radialGradient>
					<path id="path2820-2_15_" class="st12" d="M240.9,556.7c13-8.1,10.1-20.7,6.1-32.9C239,533.8,232.4,545.2,240.9,556.7z"/>
					<radialGradient id="path2826-4_1_" cx="221.8837" cy="547.0448" r="12.0075" gradientUnits="userSpaceOnUse">
						<stop  offset="0" style="stop-color:#FFF48D"/>
						<stop  offset="0.2154" style="stop-color:#FFF189"/>
						<stop  offset="0.424" style="stop-color:#FEE67D"/>
						<stop  offset="0.6298" style="stop-color:#FDD56A"/>
						<stop  offset="0.8328" style="stop-color:#FCBD4F"/>
						<stop  offset="0.9243" style="stop-color:#FBB040"/>
					</radialGradient>
					<path id="path2826-4_15_" class="st13" d="M236.4,554.8c-3.4-14.9-16.2-16.4-29.1-16.5C214.2,549.1,222.7,559.1,236.4,554.8z"
						/>
					<radialGradient id="path2832-5_1_" cx="236.937" cy="516.9262" r="12.3855" gradientUnits="userSpaceOnUse">
						<stop  offset="0" style="stop-color:#FFF48D"/>
						<stop  offset="0.2154" style="stop-color:#FFF189"/>
						<stop  offset="0.424" style="stop-color:#FEE67D"/>
						<stop  offset="0.6298" style="stop-color:#FDD56A"/>
						<stop  offset="0.8328" style="stop-color:#FCBD4F"/>
						<stop  offset="0.9243" style="stop-color:#FBB040"/>
					</radialGradient>
					<path id="path2832-5_15_" class="st14" d="M232.6,532.9c13.8-6.5,12.5-19.4,9.8-32C233.3,509.9,225.4,520.5,232.6,532.9z"/>
					<radialGradient id="path2838-5_1_" cx="216.8186" cy="527.4365" r="11.91" gradientUnits="userSpaceOnUse">
						<stop  offset="0" style="stop-color:#FFF48D"/>
						<stop  offset="0.2154" style="stop-color:#FFF189"/>
						<stop  offset="0.424" style="stop-color:#FEE67D"/>
						<stop  offset="0.6298" style="stop-color:#FDD56A"/>
						<stop  offset="0.8328" style="stop-color:#FCBD4F"/>
						<stop  offset="0.9243" style="stop-color:#FBB040"/>
					</radialGradient>
					<path id="path2838-5_15_" class="st15" d="M230.3,537.2c-1.6-15.2-14.2-18.2-26.9-19.9C208.8,528.9,216.2,539.8,230.3,537.2z"
						/>
					<radialGradient id="path2844-1_1_" cx="234.6318" cy="493.5231" r="12.0035" gradientUnits="userSpaceOnUse">
						<stop  offset="0" style="stop-color:#FFF48D"/>
						<stop  offset="0.2154" style="stop-color:#FFF189"/>
						<stop  offset="0.424" style="stop-color:#FEE67D"/>
						<stop  offset="0.6298" style="stop-color:#FDD56A"/>
						<stop  offset="0.8328" style="stop-color:#FCBD4F"/>
						<stop  offset="0.9243" style="stop-color:#FBB040"/>
					</radialGradient>
					<path id="path2844-1_15_" class="st16" d="M226.8,508c14.9-3.3,16.5-16.1,16.7-29C232.6,485.8,222.6,494.3,226.8,508z"/>
					<radialGradient id="path2850-7_1_" cx="215.6916" cy="504.9087" r="12.0122" gradientUnits="userSpaceOnUse">
						<stop  offset="0" style="stop-color:#FFF48D"/>
						<stop  offset="0.2154" style="stop-color:#FFF189"/>
						<stop  offset="0.424" style="stop-color:#FEE67D"/>
						<stop  offset="0.6298" style="stop-color:#FDD56A"/>
						<stop  offset="0.8328" style="stop-color:#FCBD4F"/>
						<stop  offset="0.9243" style="stop-color:#FBB040"/>
					</radialGradient>
					<path id="path2850-7_15_" class="st17" d="M223.9,519.2c4.3-14.7-6.2-22.2-17.3-28.6C207.2,503.4,209.8,516.3,223.9,519.2z"/>
					<radialGradient id="path2856-1_1_" cx="244.5167" cy="467.4838" r="11.8381" gradientUnits="userSpaceOnUse">
						<stop  offset="0" style="stop-color:#FFF48D"/>
						<stop  offset="0.2154" style="stop-color:#FFF189"/>
						<stop  offset="0.424" style="stop-color:#FEE67D"/>
						<stop  offset="0.6298" style="stop-color:#FDD56A"/>
						<stop  offset="0.8328" style="stop-color:#FCBD4F"/>
						<stop  offset="0.9243" style="stop-color:#FBB040"/>
					</radialGradient>
					<path id="path2856-1_15_" class="st18" d="M232.6,479.2c15.3,0.8,20.1-11.2,23.8-23.5C244.1,459.3,232.2,464.9,232.6,479.2z"/>
					<radialGradient id="path2862-1_1_" cx="220.3592" cy="479.243" r="12.561" gradientUnits="userSpaceOnUse">
						<stop  offset="0" style="stop-color:#FFF48D"/>
						<stop  offset="0.2154" style="stop-color:#FFF189"/>
						<stop  offset="0.424" style="stop-color:#FEE67D"/>
						<stop  offset="0.6298" style="stop-color:#FDD56A"/>
						<stop  offset="0.8328" style="stop-color:#FCBD4F"/>
						<stop  offset="0.9243" style="stop-color:#FBB040"/>
					</radialGradient>
					<path id="path2862-1_15_" class="st19" d="M222.8,495.7c9.2-12.2,2-23-6.2-32.9C212.7,475,210.7,488,222.8,495.7z"/>
					<radialGradient id="path2868-5_1_" cx="249.7504" cy="444.5244" r="11.8775" gradientUnits="userSpaceOnUse">
						<stop  offset="0" style="stop-color:#FFF48D"/>
						<stop  offset="0.2154" style="stop-color:#FFF189"/>
						<stop  offset="0.424" style="stop-color:#FEE67D"/>
						<stop  offset="0.6298" style="stop-color:#FDD56A"/>
						<stop  offset="0.8328" style="stop-color:#FCBD4F"/>
						<stop  offset="0.9243" style="stop-color:#FBB040"/>
					</radialGradient>
					<path id="path2868-5_15_" class="st20" d="M239.3,457.5c15.2-0.9,18.8-13.3,21.1-26C248.6,436.5,237.3,443.3,239.3,457.5z"/>
					<radialGradient id="path2874-2_1_" cx="230.0181" cy="453.9602" r="12.6879" gradientUnits="userSpaceOnUse">
						<stop  offset="0" style="stop-color:#FFF48D"/>
						<stop  offset="0.2154" style="stop-color:#FFF189"/>
						<stop  offset="0.424" style="stop-color:#FEE67D"/>
						<stop  offset="0.6298" style="stop-color:#FDD56A"/>
						<stop  offset="0.8328" style="stop-color:#FCBD4F"/>
						<stop  offset="0.9243" style="stop-color:#FBB040"/>
					</radialGradient>
					<path id="path2874-2_15_" class="st21" d="M229.6,470.7c11.5-10.1,6.6-22.1,0.6-33.4C223.9,448.4,219.3,460.7,229.6,470.7z"/>
				</g>
				<g id="g3240_15_">
					<radialGradient id="path1872_1_" cx="411.4655" cy="599.4948" r="12.5032" gradientUnits="userSpaceOnUse">
						<stop  offset="0" style="stop-color:#FFF48D"/>
						<stop  offset="0.2154" style="stop-color:#FFF189"/>
						<stop  offset="0.424" style="stop-color:#FEE67D"/>
						<stop  offset="0.6298" style="stop-color:#FDD56A"/>
						<stop  offset="0.8328" style="stop-color:#FCBD4F"/>
						<stop  offset="0.9243" style="stop-color:#FBB040"/>
					</radialGradient>
					<path id="path1872_15_" class="st22" d="M427.8,596.4c-12.6-8.7-23-1.1-32.6,7.5C407.5,607.3,420.6,608.9,427.8,596.4z"/>
					<radialGradient id="path2784_1_" cx="411.9836" cy="578.2507" r="11.8636" gradientUnits="userSpaceOnUse">
						<stop  offset="0" style="stop-color:#FFF48D"/>
						<stop  offset="0.2154" style="stop-color:#FFF189"/>
						<stop  offset="0.424" style="stop-color:#FEE67D"/>
						<stop  offset="0.6298" style="stop-color:#FDD56A"/>
						<stop  offset="0.8328" style="stop-color:#FCBD4F"/>
						<stop  offset="0.9243" style="stop-color:#FBB040"/>
					</radialGradient>
					<path id="path2784_15_" class="st23" d="M424.7,589c-0.6-15.3-12.9-19.1-25.5-21.6C403.9,579.3,410.5,590.7,424.7,589z"/>
					<radialGradient id="path2790_1_" cx="388.7708" cy="591.3967" r="12.613" gradientUnits="userSpaceOnUse">
						<stop  offset="0" style="stop-color:#FFF48D"/>
						<stop  offset="0.2154" style="stop-color:#FFF189"/>
						<stop  offset="0.424" style="stop-color:#FEE67D"/>
						<stop  offset="0.6298" style="stop-color:#FDD56A"/>
						<stop  offset="0.8328" style="stop-color:#FCBD4F"/>
						<stop  offset="0.9243" style="stop-color:#FBB040"/>
					</radialGradient>
					<path id="path2790_15_" class="st24" d="M405.3,589.6c-11.8-9.7-22.9-3-33.1,4.8C384.2,598.7,397.1,601.3,405.3,589.6z"/>
					<radialGradient id="path2796_1_" cx="389.8375" cy="566.4979" r="12.3303" gradientUnits="userSpaceOnUse">
						<stop  offset="0" style="stop-color:#FFF48D"/>
						<stop  offset="0.2154" style="stop-color:#FFF189"/>
						<stop  offset="0.424" style="stop-color:#FEE67D"/>
						<stop  offset="0.6298" style="stop-color:#FDD56A"/>
						<stop  offset="0.8328" style="stop-color:#FCBD4F"/>
						<stop  offset="0.9243" style="stop-color:#FBB040"/>
					</radialGradient>
					<path id="path2796_15_" class="st25" d="M394.4,582.3c7.4-13.4-1.3-23-10.8-31.7C381.5,563.3,381.3,576.4,394.4,582.3z"/>
					<radialGradient id="path2802_1_" cx="368.256" cy="579.9478" r="12.6219" gradientUnits="userSpaceOnUse">
						<stop  offset="0" style="stop-color:#FFF48D"/>
						<stop  offset="0.2154" style="stop-color:#FFF189"/>
						<stop  offset="0.424" style="stop-color:#FEE67D"/>
						<stop  offset="0.6298" style="stop-color:#FDD56A"/>
						<stop  offset="0.8328" style="stop-color:#FCBD4F"/>
						<stop  offset="0.9243" style="stop-color:#FBB040"/>
					</radialGradient>
					<path id="path2802_15_" class="st26" d="M384.8,582c-8.7-12.6-21.1-9.2-33.1-4.5C362,585,373.7,591.1,384.8,582L384.8,582z"/>
					<radialGradient id="path2808_1_" cx="372.7005" cy="554.0999" r="12.6888" gradientUnits="userSpaceOnUse">
						<stop  offset="0" style="stop-color:#FFF48D"/>
						<stop  offset="0.2154" style="stop-color:#FFF189"/>
						<stop  offset="0.424" style="stop-color:#FEE67D"/>
						<stop  offset="0.6298" style="stop-color:#FDD56A"/>
						<stop  offset="0.8328" style="stop-color:#FCBD4F"/>
						<stop  offset="0.9243" style="stop-color:#FBB040"/>
					</radialGradient>
					<path id="path2808_15_" class="st27" d="M372.6,570.8c11.2-10.3,6.1-22.2-0.1-33.5C366.4,548.7,362,561.1,372.6,570.8
						L372.6,570.8z"/>
					<radialGradient id="path2814_1_" cx="350.7547" cy="564.7734" r="12.3296" gradientUnits="userSpaceOnUse">
						<stop  offset="0" style="stop-color:#FFF48D"/>
						<stop  offset="0.2154" style="stop-color:#FFF189"/>
						<stop  offset="0.424" style="stop-color:#FEE67D"/>
						<stop  offset="0.6298" style="stop-color:#FDD56A"/>
						<stop  offset="0.8328" style="stop-color:#FCBD4F"/>
						<stop  offset="0.9243" style="stop-color:#FBB040"/>
					</radialGradient>
					<path id="path2814_15_" class="st28" d="M366.6,569.6c-6.1-14-19-13-31.7-10.7C343.6,568.2,354,576.3,366.6,569.6z"/>
					<radialGradient id="path2820_1_" cx="359.102" cy="539.5908" r="12.569" gradientUnits="userSpaceOnUse">
						<stop  offset="0" style="stop-color:#FFF48D"/>
						<stop  offset="0.2154" style="stop-color:#FFF189"/>
						<stop  offset="0.424" style="stop-color:#FEE67D"/>
						<stop  offset="0.6298" style="stop-color:#FDD56A"/>
						<stop  offset="0.8328" style="stop-color:#FCBD4F"/>
						<stop  offset="0.9243" style="stop-color:#FBB040"/>
					</radialGradient>
					<path id="path2820_15_" class="st29" d="M356.4,556c13-8.1,10.1-20.7,6.1-32.9C354.4,533.1,347.8,544.5,356.4,556z"/>
					<radialGradient id="path2826_1_" cx="337.2947" cy="546.3839" r="12.0075" gradientUnits="userSpaceOnUse">
						<stop  offset="0" style="stop-color:#FFF48D"/>
						<stop  offset="0.2154" style="stop-color:#FFF189"/>
						<stop  offset="0.424" style="stop-color:#FEE67D"/>
						<stop  offset="0.6298" style="stop-color:#FDD56A"/>
						<stop  offset="0.8328" style="stop-color:#FCBD4F"/>
						<stop  offset="0.9243" style="stop-color:#FBB040"/>
					</radialGradient>
					<path id="path2826_15_" class="st30" d="M351.8,554.1c-3.4-14.9-16.2-16.4-29.1-16.5C329.6,548.4,338.1,558.4,351.8,554.1z"/>
					<radialGradient id="path2832_1_" cx="352.3481" cy="516.2653" r="12.3855" gradientUnits="userSpaceOnUse">
						<stop  offset="0" style="stop-color:#FFF48D"/>
						<stop  offset="0.2154" style="stop-color:#FFF189"/>
						<stop  offset="0.424" style="stop-color:#FEE67D"/>
						<stop  offset="0.6298" style="stop-color:#FDD56A"/>
						<stop  offset="0.8328" style="stop-color:#FCBD4F"/>
						<stop  offset="0.9243" style="stop-color:#FBB040"/>
					</radialGradient>
					<path id="path2832_15_" class="st31" d="M348,532.3c13.8-6.5,12.5-19.4,9.8-32C348.7,509.3,340.8,519.8,348,532.3z"/>
					<radialGradient id="path2838_1_" cx="332.2297" cy="526.7756" r="11.91" gradientUnits="userSpaceOnUse">
						<stop  offset="0" style="stop-color:#FFF48D"/>
						<stop  offset="0.2154" style="stop-color:#FFF189"/>
						<stop  offset="0.424" style="stop-color:#FEE67D"/>
						<stop  offset="0.6298" style="stop-color:#FDD56A"/>
						<stop  offset="0.8328" style="stop-color:#FCBD4F"/>
						<stop  offset="0.9243" style="stop-color:#FBB040"/>
					</radialGradient>
					<path id="path2838_15_" class="st32" d="M345.7,536.5c-1.6-15.2-14.2-18.2-26.9-19.9C324.2,528.2,331.6,539.1,345.7,536.5z"/>
					<radialGradient id="path2844_1_" cx="350.0429" cy="492.8622" r="12.0035" gradientUnits="userSpaceOnUse">
						<stop  offset="0" style="stop-color:#FFF48D"/>
						<stop  offset="0.2154" style="stop-color:#FFF189"/>
						<stop  offset="0.424" style="stop-color:#FEE67D"/>
						<stop  offset="0.6298" style="stop-color:#FDD56A"/>
						<stop  offset="0.8328" style="stop-color:#FCBD4F"/>
						<stop  offset="0.9243" style="stop-color:#FBB040"/>
					</radialGradient>
					<path id="path2844_15_" class="st33" d="M342.2,507.4c14.9-3.3,16.5-16.1,16.7-29C348,485.1,338,493.6,342.2,507.4z"/>
					<radialGradient id="path2850_1_" cx="331.1027" cy="504.2477" r="12.0122" gradientUnits="userSpaceOnUse">
						<stop  offset="0" style="stop-color:#FFF48D"/>
						<stop  offset="0.2154" style="stop-color:#FFF189"/>
						<stop  offset="0.424" style="stop-color:#FEE67D"/>
						<stop  offset="0.6298" style="stop-color:#FDD56A"/>
						<stop  offset="0.8328" style="stop-color:#FCBD4F"/>
						<stop  offset="0.9243" style="stop-color:#FBB040"/>
					</radialGradient>
					<path id="path2850_15_" class="st34" d="M339.3,518.6c4.3-14.7-6.2-22.2-17.3-28.6C322.6,502.7,325.2,515.6,339.3,518.6z"/>
					<radialGradient id="path2856_1_" cx="359.9278" cy="466.8229" r="11.8381" gradientUnits="userSpaceOnUse">
						<stop  offset="0" style="stop-color:#FFF48D"/>
						<stop  offset="0.2154" style="stop-color:#FFF189"/>
						<stop  offset="0.424" style="stop-color:#FEE67D"/>
						<stop  offset="0.6298" style="stop-color:#FDD56A"/>
						<stop  offset="0.8328" style="stop-color:#FCBD4F"/>
						<stop  offset="0.9243" style="stop-color:#FBB040"/>
					</radialGradient>
					<path id="path2856_15_" class="st35" d="M348,478.6c15.3,0.8,20.1-11.2,23.8-23.5C359.5,458.7,347.6,464.2,348,478.6z"/>
					<radialGradient id="path2862_1_" cx="335.7703" cy="478.582" r="12.561" gradientUnits="userSpaceOnUse">
						<stop  offset="0" style="stop-color:#FFF48D"/>
						<stop  offset="0.2154" style="stop-color:#FFF189"/>
						<stop  offset="0.424" style="stop-color:#FEE67D"/>
						<stop  offset="0.6298" style="stop-color:#FDD56A"/>
						<stop  offset="0.8328" style="stop-color:#FCBD4F"/>
						<stop  offset="0.9243" style="stop-color:#FBB040"/>
					</radialGradient>
					<path id="path2862_15_" class="st36" d="M338.2,495c9.2-12.2,2-23-6.2-32.9C328.2,474.3,326.1,487.3,338.2,495z"/>
					<radialGradient id="path2868_1_" cx="365.1614" cy="443.8635" r="11.8775" gradientUnits="userSpaceOnUse">
						<stop  offset="0" style="stop-color:#FFF48D"/>
						<stop  offset="0.2154" style="stop-color:#FFF189"/>
						<stop  offset="0.424" style="stop-color:#FEE67D"/>
						<stop  offset="0.6298" style="stop-color:#FDD56A"/>
						<stop  offset="0.8328" style="stop-color:#FCBD4F"/>
						<stop  offset="0.9243" style="stop-color:#FBB040"/>
					</radialGradient>
					<path id="path2868_15_" class="st37" d="M354.7,456.8c15.2-0.9,18.8-13.3,21.1-26C364,435.8,352.8,442.6,354.7,456.8z"/>
					<radialGradient id="path2874_1_" cx="345.4292" cy="453.2993" r="12.6879" gradientUnits="userSpaceOnUse">
						<stop  offset="0" style="stop-color:#FFF48D"/>
						<stop  offset="0.2154" style="stop-color:#FFF189"/>
						<stop  offset="0.424" style="stop-color:#FEE67D"/>
						<stop  offset="0.6298" style="stop-color:#FDD56A"/>
						<stop  offset="0.8328" style="stop-color:#FCBD4F"/>
						<stop  offset="0.9243" style="stop-color:#FBB040"/>
					</radialGradient>
					<path id="path2874_15_" class="st38" d="M345,470c11.5-10.1,6.6-22.1,0.6-33.4C339.3,447.7,334.7,460.1,345,470z"/>
				</g>
				<radialGradient id="path3042_1_" cx="435.383" cy="593.369" r="4.4246" gradientUnits="userSpaceOnUse">
					<stop  offset="0" style="stop-color:#FFF48D"/>
					<stop  offset="0.2154" style="stop-color:#FFF189"/>
					<stop  offset="0.424" style="stop-color:#FEE67D"/>
					<stop  offset="0.6298" style="stop-color:#FDD56A"/>
					<stop  offset="0.8328" style="stop-color:#FCBD4F"/>
					<stop  offset="0.9243" style="stop-color:#FBB040"/>
				</radialGradient>
				<path id="path3042_15_" class="st39" d="M439.8,593.4c0,2.4-2,4.4-4.4,4.4c-2.4,0-4.4-2-4.4-4.4c0-2.4,2-4.4,4.4-4.4
					C437.8,588.9,439.8,590.9,439.8,593.4L439.8,593.4z"/>
			</g>
		</g>
		<g>
			<g>
				<radialGradient id="SVGID_6_" cx="527.4911" cy="268.7004" r="60.3755" gradientUnits="userSpaceOnUse">
					<stop  offset="0.7299" style="stop-color:#1E1D48"/>
					<stop  offset="1" style="stop-color:#4949AD"/>
				</radialGradient>
				<circle class="st40" cx="527.5" cy="268.7" r="60.4"/>
				<radialGradient id="SVGID_7_" cx="527.4911" cy="268.7004" r="56.7182" gradientUnits="userSpaceOnUse">
					<stop  offset="0" style="stop-color:#4949AD"/>
					<stop  offset="1" style="stop-color:#1E1D48"/>
				</radialGradient>
				<circle class="st41" cx="527.5" cy="268.7" r="56.7"/>
			</g>
			<g>
				<radialGradient id="SVGID_8_" cx="528.5099" cy="269.6797" r="33.5984" gradientUnits="userSpaceOnUse">
					<stop  offset="0" style="stop-color:#12C7BA"/>
					<stop  offset="1" style="stop-color:#94FFF2"/>
				</radialGradient>
				<polygon class="st42" points="491.7,299.7 526.6,269.7 491.7,239.6 565.3,239.6 530.5,269.7 565.3,299.7 				"/>
				<radialGradient id="SVGID_9_" cx="528.5099" cy="269.358" r="30.2213" gradientUnits="userSpaceOnUse">
					<stop  offset="0" style="stop-color:#94FFF2"/>
					<stop  offset="1" style="stop-color:#12C7BA"/>
				</radialGradient>
				<polygon class="st43" points="561.9,240.9 495.1,240.9 528.5,269.7 495.1,298.4 561.9,298.4 528.5,269.7 				"/>
			</g>
		</g>
	</g>
	<g>
		<radialGradient id="SVGID_10_" cx="527.3065" cy="744.1281" r="41.7612" gradientUnits="userSpaceOnUse">
			<stop  offset="0" style="stop-color:#FFF48D"/>
			<stop  offset="0.1171" style="stop-color:#FFF189"/>
			<stop  offset="0.2306" style="stop-color:#FEE67D"/>
			<stop  offset="0.3425" style="stop-color:#FDD56A"/>
			<stop  offset="0.4529" style="stop-color:#FCBD4F"/>
			<stop  offset="0.5027" style="stop-color:#FBB040"/>
		</radialGradient>
		<polygon class="st44" points="527.3,770.9 500.9,784.8 505.9,755.4 484.5,734.5 514.1,730.2 527.3,703.4 540.5,730.2 570.1,734.5 
			548.7,755.4 553.8,784.8 		"/>
		<radialGradient id="SVGID_11_" cx="527.3064" cy="745.127" r="32.048" gradientUnits="userSpaceOnUse">
			<stop  offset="0" style="stop-color:#94FFF2"/>
			<stop  offset="1" style="stop-color:#12C7BA"/>
		</radialGradient>
		<polygon class="st45" points="527.3,713.9 537.5,734.5 560.1,737.8 543.7,753.8 547.6,776.4 527.3,765.7 507,776.4 510.9,753.8 
			494.5,737.8 517.2,734.5 		"/>
	</g>
	<g>
		<radialGradient id="SVGID_12_" cx="527.3065" cy="820.4993" r="27.1816" gradientUnits="userSpaceOnUse">
			<stop  offset="0" style="stop-color:#FFF48D"/>
			<stop  offset="0.1171" style="stop-color:#FFF189"/>
			<stop  offset="0.2306" style="stop-color:#FEE67D"/>
			<stop  offset="0.3425" style="stop-color:#FDD56A"/>
			<stop  offset="0.4529" style="stop-color:#FCBD4F"/>
			<stop  offset="0.5027" style="stop-color:#FBB040"/>
		</radialGradient>
		<polygon class="st46" points="527.3,837.9 510.1,847 513.4,827.8 499.5,814.2 518.7,811.4 527.3,794 535.9,811.4 555.2,814.2 
			541.2,827.8 544.5,847 		"/>
		<radialGradient id="SVGID_13_" cx="527.3065" cy="821.1495" r="20.8595" gradientUnits="userSpaceOnUse">
			<stop  offset="0" style="stop-color:#94FFF2"/>
			<stop  offset="1" style="stop-color:#12C7BA"/>
		</radialGradient>
		<polygon class="st47" points="527.3,800.8 533.9,814.2 548.7,816.4 538,826.8 540.5,841.5 527.3,834.5 514.1,841.5 516.6,826.8 
			505.9,816.4 520.7,814.2 		"/>
	</g>
</g>
</svg>
