<?xml version="1.0" encoding="utf-8"?>
<!-- Generator: Adobe Illustrator 25.2.1, SVG Export Plug-In . SVG Version: 6.00 Build 0)  -->
<svg version="1.1" id="Layer_1" xmlns="http://www.w3.org/2000/svg" xmlns:xlink="http://www.w3.org/1999/xlink" x="0px" y="0px"
	 viewBox="0 0 1000 1000" style="enable-background:new 0 0 1000 1000;" xml:space="preserve">
<style type="text/css">
	.st0{fill:url(#SVGID_1_);}
	.st1{fill:url(#SVGID_2_);}
	.st2{fill:url(#SVGID_3_);}
	.st3{fill:url(#SVGID_4_);}
	.st4{fill:url(#SVGID_5_);}
	.st5{fill:url(#SVGID_6_);}
	.st6{fill:url(#SVGID_7_);}
	.st7{fill:url(#SVGID_8_);}
	.st8{fill:url(#SVGID_9_);}
</style>
<g>
	<g>
		<g>
			<radialGradient id="SVGID_1_" cx="499.9994" cy="388.091" r="628.9272" gradientUnits="userSpaceOnUse">
				<stop  offset="0" style="stop-color:#231F20"/>
				<stop  offset="0.3161" style="stop-color:#1F1C1C"/>
				<stop  offset="0.6216" style="stop-color:#141112"/>
				<stop  offset="0.9227" style="stop-color:#000000"/>
				<stop  offset="0.9243" style="stop-color:#000000"/>
			</radialGradient>
			<path class="st0" d="M499.4,34.7c-1.6,0-80.2,5.1-289.1,192.7c-7.2,58.5-30.1,310.4,85.3,455.9
				c101.2,127.5,173.8,201.6,204.5,231.3c41.1-41.1,115.5-119.3,204.3-231.3c115.3-145.4,92.5-397.3,85.3-455.9
				c-136.5-66.6,33.2-76.7-289.1-192.7L500,10L499.4,34.7z"/>
		</g>
		<radialGradient id="SVGID_2_" cx="500" cy="500" r="434.1551" gradientUnits="userSpaceOnUse">
			<stop  offset="0" style="stop-color:#999999"/>
			<stop  offset="0.615" style="stop-color:#EFEFEF"/>
			<stop  offset="0.9542" style="stop-color:#EBEBEB"/>
			<stop  offset="1" style="stop-color:#EAEAEA"/>
		</radialGradient>
		<path class="st1" d="M489.3,988c-13.9-15.7-27.3-32.1-39.8-48.9l-86.8-116.9c-115-154.8-179.4-304.8-202.5-472.1l-16.6-120.5
			l50.5-27.4c13.4-7.3,22.9-20,25.9-35c7.5-36.9,34.4-67.1,70.1-78.8l28.2-9.3c10-3.3,18.8-10.4,24.7-20
			c16-26.1,43.5-44.5,75.3-50.5l14.3-2.6C454.9,2,477.5,0,500,0c22.5,0,45.1,2,67.3,6.1L583.1,9c30.6,5.8,57.5,24.2,74,50.6
			c5.9,9.4,15,16.5,25.5,20l27.2,8.9c35.7,11.7,62.6,41.9,70.1,78.8c3,15,12.5,27.7,25.9,35l50.5,27.4l-16.6,120.5
			c-23.1,167.3-87.4,317.3-202.5,472.1L550.4,939c-12.5,16.8-25.9,33.3-39.8,48.9l-10.7,12L489.3,988z M231.9,340.2
			c21.7,156.9,79.9,292.3,188.9,438.9L500,885.8l79.3-106.7c109-146.6,167.2-282,188.9-438.9l9.8-70.9l-6.5-3.5
			c-32.4-17.6-55.1-48.4-62.4-84.5c-2.2-11.2-10.6-20.5-21.8-24.1l-27.2-8.9c-26.5-8.7-49.2-26.5-64-50.1
			c-6-9.5-15.4-16.1-25.8-18.1L500,66.7l-69.7,13.2c-10.7,2-20.2,8.5-26,17.8c-15,23.8-37.7,41.7-63.8,50.3l-27.7,9.1
			c-11.1,3.6-19.5,13-21.8,24.5c-7.5,36.1-30.2,66.8-62.3,84.2l-6.5,3.5L231.9,340.2z"/>
		<radialGradient id="SVGID_3_" cx="499.9994" cy="497.4732" r="422.5261" gradientUnits="userSpaceOnUse">
			<stop  offset="0" style="stop-color:#EFEFEF"/>
			<stop  offset="0.2041" style="stop-color:#EBEBEB"/>
			<stop  offset="0.4018" style="stop-color:#DFDFDF"/>
			<stop  offset="0.5969" style="stop-color:#CCCCCC"/>
			<stop  offset="0.7892" style="stop-color:#B1B1B1"/>
			<stop  offset="0.9243" style="stop-color:#999999"/>
		</radialGradient>
		<path class="st2" d="M801.1,211c-16-8.7-27.3-23.9-30.9-41.7c-6.8-33.4-31.1-60.7-63.5-71.3L679.5,89
			c-12.8-4.2-23.7-12.8-30.8-24.2c-15-24-39.5-40.8-67.3-46l-15.9-2.9c-43.3-7.9-87.6-7.9-130.9,0l-14.3,2.6
			c-28.2,5.4-53.6,21.5-68.6,45.9c-7,11.3-17.4,20.1-30.1,24.2l-28.2,9.3c-32.4,10.6-56.7,38-63.5,71.3
			c-3.6,17.8-14.9,33.1-30.9,41.7l-44.5,24.1l15.7,113.7C194.6,526,264,672.6,370.7,816.2l86.8,116.9c12.4,16.6,25.5,32.7,39.2,48.3
			l3.2,3.6l3.2-3.6c13.8-15.5,26.8-31.6,39.2-48.3l86.8-116.9C736,672.6,805.4,526,829.8,348.7l15.7-113.7L801.1,211z M778,341.6
			C754.7,510.2,688.8,648.4,587.3,785L500,902.5L412.7,785C311.2,648.4,245.3,510.2,222,341.6l-10.7-77.8l12.6-6.8
			c29.6-16.1,50.4-44.5,57.3-77.5c3.1-14.9,14-27.1,28.5-31.9l27.7-9.1c24.3-8,44.9-24.5,58.5-46.1c7.3-11.6,19.2-19.7,32.6-22.2
			L500,56.6l72,13.7c13.5,2.6,25.1,10.9,32.4,22.5c13.6,21.6,34.4,37.9,58.7,45.9l27.2,8.9c14.4,4.7,25.5,16.8,28.4,31.7
			c6.6,33.2,27.6,61.6,57.3,77.7l12.6,6.8L778,341.6z"/>
	</g>
	<g>
		<radialGradient id="SVGID_4_" cx="504.9795" cy="238.366" r="47.3807" gradientUnits="userSpaceOnUse">
			<stop  offset="0" style="stop-color:#12C7BA"/>
			<stop  offset="1" style="stop-color:#94FFF2"/>
		</radialGradient>
		<polygon class="st3" points="453.1,280.7 502.2,238.4 453.1,196 556.9,196 507.7,238.4 556.9,280.7 		"/>
		<radialGradient id="SVGID_5_" cx="504.9795" cy="237.9122" r="42.6182" gradientUnits="userSpaceOnUse">
			<stop  offset="0" style="stop-color:#94FFF2"/>
			<stop  offset="1" style="stop-color:#12C7BA"/>
		</radialGradient>
		<polygon class="st4" points="552,197.8 457.9,197.8 505,238.4 457.9,278.9 552,278.9 505,238.4 		"/>
	</g>
	<g>
		<radialGradient id="SVGID_6_" cx="503.9312" cy="423.7033" r="177.3433" gradientUnits="userSpaceOnUse">
			<stop  offset="0" style="stop-color:#FFF48D"/>
			<stop  offset="0.1171" style="stop-color:#FFF189"/>
			<stop  offset="0.2306" style="stop-color:#FEE67D"/>
			<stop  offset="0.3425" style="stop-color:#FDD56A"/>
			<stop  offset="0.4529" style="stop-color:#FCBD4F"/>
			<stop  offset="0.5027" style="stop-color:#FBB040"/>
		</radialGradient>
		<path class="st5" d="M489,598.4l-1.4-0.9c-0.1,0-0.3-0.1-0.5-0.1c-18.3-4.1-27.7-15.5-28.2-33.9c-4.2-2.5-7.7-6.2-11.4-10.1
			c-5.9-6.2-12.6-13.2-23.6-17.2c-8.2-3.1-14-8.8-17.2-16.4c-5.3-12.6-2.6-28.6,2.1-42.5c-0.3,0-0.5,0-0.8,0
			c-5.1,0-10.3-0.6-15.6-1.8c-8.7-1.6-17.7-5.8-21.1-7.5l-18.8-9.3c0,0,20.3-9.3,20.9-9.6c-44.2-7-47.3-35.5-49.2-53.4l0-0.5
			c-1.2-21.6,6.8-36.6,13.9-49.9c9.5-17.9,17.7-33.3,4.1-65.3l-0.2-0.5c-0.3-0.8-0.7-1.5-1-2.3l-9.7-27.5l24.4,15.9
			c0.4,0.2,36,27.1,31.5,60c-1.2,7.8-4.1,15.7-6.8,23.3c-5.2,14.2-10,27.6-4.1,37.2c0.2,0.3,0.3,0.5,0.4,0.7
			c3.1-0.7,9.5-3.4,14.3-5.5c9-3.8,20.2-8.6,32.6-11.6c7-10.9,21.6-16.6,31.6-19.4l1.3-8.2c0.7,0,1.4,0,2.1,0
			c14.5,0,29.8,4.1,45.3,12.2c19.2-10.1,35.2-12.2,45.4-12.2l1.5,0l-0.1,6.7l1.7,1.4c0.9,0.3,1.9,0.6,3,0.9
			c1.8,0.5,20.6,5.8,28.9,18.6c3,0.7,7.8,2,16.1,5c5.9,2.1,11.3,4.4,16.1,6.5c5.9,2.5,11.1,4.8,14.7,5.6c6-8.7,2.6-20.4-3.8-38.5
			c-1.9-5.4-3.9-10.9-5.5-16.6l-0.1-0.6c-2-9.2-2.3-16.7,1.7-28c6.5-17.5,21.9-33,28.7-37.5l25.4-16.6l-10.7,28.4
			c-0.1,0.3-0.3,0.8-0.6,1.6c-8.7,20.5-8.5,34-6.8,41.8c1.4,6.4,5.1,13.8,9,21.7c9.1,18.1,20.4,40.6,12.9,69.2
			c-4,15.1-15.5,32.8-46.5,37.8c2.2,1,2.5,1.3,3.2,1.7l7.3,5.4l-4.8,7.7c-4.1,6.7-26.6,13-41,13c-0.1,0-0.3,0-0.4,0
			c13.6,42.3-4.3,55.3-16.2,59.3c-9.7,3.3-16.3,10.3-22.2,16.4c-3.8,4-7.5,7.8-11.8,10.4c-0.3,6.5-1.8,17.2-10.1,25.1
			c-3.7,3.8-8.8,6.6-14.8,8l-1.5,1.7H489z"/>
		
			<radialGradient id="SVGID_7_" cx="503.9312" cy="431.7772" r="163.7843" fx="503.5634" fy="479.3221" gradientUnits="userSpaceOnUse">
			<stop  offset="0" style="stop-color:#EFEFEF"/>
			<stop  offset="0.2041" style="stop-color:#EBEBEB"/>
			<stop  offset="0.4018" style="stop-color:#DFDFDF"/>
			<stop  offset="0.5969" style="stop-color:#CCCCCC"/>
			<stop  offset="0.7892" style="stop-color:#B1B1B1"/>
			<stop  offset="0.9243" style="stop-color:#999999"/>
		</radialGradient>
		<path class="st6" d="M350.2,274.5c3.3,2.2,30.5,25.6,27.1,50.3c-3.2,20.9-22,47-9.5,67.1c2.2,3.6,3.9,5.7,7.4,5.5
			c8.7,0.3,28-12.1,51.2-17.6c2.8-0.7,3.6-0.3,4.5-2.4c4.8-10.1,21.5-16,32.6-18.4c0.9-0.2,3.9-0.4,2.8-2.2
			c-0.6-0.9-1.9-1.3-9.5-4.2c24.9-0.7,46,13.2,47.2,13.6c1-0.3,22.1-14.1,46.7-13.6l0.2-0.2c-0.1,0.1-0.2,0.3-0.2,0.5
			c-0.9,0.1-6.1,2.2-7.1,2.6c-1.2,0.5-2.5,1.1-2,2.4c0.5,1.2,2.2,0.5,10.9,3.2c6.1,1.6,19.8,7.1,24.3,15.8c2,3.9,0.1,0.3,20.3,7.6
			c13.5,4.9,24.7,10.9,32.6,12.5c6.3,1.2,7.4-1.1,9.2-3.5c13-17.9-0.9-40.8-7.4-64.1c-1.7-7.9-1.9-13.5,1.3-22.6
			c5.7-15.3,19.9-29.3,24.8-32.5c-1,2.6-12.7,26.9-7.8,48.9c5.1,23.3,31.8,49.2,22,86.2c-11.6,44.1-78.8,29.3-81.1,30.2
			c-0.2,0.1-0.4,0.1-0.4,0.4c-0.1,0.4,0.2,0.7,0.5,0.8c1.9,1.5,40.1,17.7,41.4,18.7c-0.7,1.2-24.8,12.2-44.5,6.8
			c-0.7-0.2-1.3-0.5-2-0.6c-2.6,0.8-0.9,1.2,3.9,14.6c6.2,18.8,8.8,41-9.8,47.3c-20.8,7.1-28.9,26.3-39,29.1c-0.9,0.2-1.7,1.1-1.7,2
			c0,2.7,1.1,15.2-7,23c-3.3,3.3-7.8,5.2-12.3,6c-0.7,0.1-1.2,0.5-1.6,1h-26.2c-2.5-1.6-23.5-1.1-23.1-27.1c0-4,0.8-4-2.5-5.2
			c-9.8-3.5-17-21.4-39.1-29.2c-20.9-8-13.6-37.6-4.5-58.2c0.4-0.8,0.8-1.8,0.5-2.8c-0.6-1-3.2-0.1-3.5,0c-8.1,2.1-17,1.7-25.2-0.1
			c-9.1-1.7-18.8-6.7-19-6.7c34.8-15.7,41.2-17.5,40.8-19.3c-1.5-1.1-9.3,0.9-22.5,1c-54.8-0.6-57.7-26.8-59.8-46.2
			c-2.5-46.4,43.1-57.5,17.2-118.5C350.9,276,350.5,275.3,350.2,274.5z"/>
	</g>
	<g>
		<radialGradient id="SVGID_8_" cx="499.9994" cy="698.6984" r="44.9182" gradientUnits="userSpaceOnUse">
			<stop  offset="0" style="stop-color:#FFF48D"/>
			<stop  offset="0.1171" style="stop-color:#FFF189"/>
			<stop  offset="0.2306" style="stop-color:#FEE67D"/>
			<stop  offset="0.3425" style="stop-color:#FDD56A"/>
			<stop  offset="0.4529" style="stop-color:#FCBD4F"/>
			<stop  offset="0.5027" style="stop-color:#FBB040"/>
		</radialGradient>
		<polygon class="st7" points="500,727.5 471.6,742.5 477,710.8 454,688.4 485.8,683.7 500,654.9 514.2,683.7 546,688.4 523,710.8 
			528.4,742.5 		"/>
		<radialGradient id="SVGID_9_" cx="499.9993" cy="699.7728" r="34.4707" gradientUnits="userSpaceOnUse">
			<stop  offset="0" style="stop-color:#EFEFEF"/>
			<stop  offset="0.2041" style="stop-color:#EBEBEB"/>
			<stop  offset="0.4018" style="stop-color:#DFDFDF"/>
			<stop  offset="0.5969" style="stop-color:#CCCCCC"/>
			<stop  offset="0.7892" style="stop-color:#B1B1B1"/>
			<stop  offset="0.9243" style="stop-color:#999999"/>
		</radialGradient>
		<polygon class="st8" points="500,666.2 510.9,688.3 535.3,691.8 517.7,709.1 521.8,733.4 500,721.9 478.2,733.4 482.3,709.1 
			464.7,691.8 489.1,688.3 		"/>
	</g>
</g>
</svg>
