<?xml version="1.0" encoding="utf-8"?>
<!-- Generator: Adobe Illustrator 25.4.1, SVG Export Plug-In . SVG Version: 6.00 Build 0)  -->
<svg version="1.1" id="Layer_1" xmlns="http://www.w3.org/2000/svg" xmlns:xlink="http://www.w3.org/1999/xlink" x="0px" y="0px"
	 viewBox="0 0 2576.5 1000" style="enable-background:new 0 0 2576.5 1000;" xml:space="preserve">
<style type="text/css">
	.st0{display:none;}
	.st1{opacity:0.43;}
	.st2{fill:#FFFFFF;}
	.st3{fill:#35F9E5;}
</style>
<rect class="st0" width="2591.1" height="1000"/>
<g>
	<g class="st1">
		
			<image style="overflow:visible;enable-background:new    ;" width="2508" height="2508" xlink:href="C790982C.png"  transform="matrix(0.3527 0 0 0.3527 117.7859 62.8223)">
		</image>
	</g>
	<g>
		
			<image style="overflow:visible;enable-background:new    ;" width="2333" height="2338" xlink:href="C790982D.png"  transform="matrix(0.3522 0 0 0.3522 149.2609 93.418)">
		</image>
	</g>
	<g>
		
			<image style="overflow:visible;enable-background:new    ;" width="2208" height="2204" xlink:href="C790982B.png"  transform="matrix(0.3522 0 0 0.3522 171.3345 117.0766)">
		</image>
	</g>
</g>
<g>
	<g>
		<path class="st2" d="M1765.2,247h-72.4c-8.8,0-17.4,3.2-24.2,9l-83.4,72l-83.6-72c-6.7-5.8-15.4-9-24.2-9h-72.6l137.1,118.1
			l-137.1,118.1h72.6c8.8,0,17.4-3.4,24.2-9.2l83.4-72l83.4,72c6.7,5.8,15.4,9,24.2,9h72.6L1628.1,365L1765.2,247z"/>
		<path class="st2" d="M2403.6,247v165l-204.4-157.3c-6.6-5.1-14.4-7.7-22.7-7.7h-39.7v236.2h55.1v-165l204.4,157.3
			c6.6,5.1,14.4,7.7,22.7,7.7h39.7V247H2403.6z"/>
		<path class="st2" d="M1105,247c-58.3,67.9-58.3,168.2,0,236.2h248c0,0,43.7-47.1,43.7-118.1c-0.4-43.3-15.9-85.1-43.7-118.1H1105z
			 M1324.4,432.7h-190.7c-22.9-42-22.9-92.8,0-135h190.9C1347.3,339.8,1347.3,390.5,1324.4,432.7z"/>
	</g>
	<g>
		<path class="st2" d="M2068.4,458.3c-0.8,6.7-3.4,14.4-7.9,24.9h26.8v-50.1h-23.1C2068.2,440.5,2069.5,449.2,2068.4,458.3z"/>
		<path class="st2" d="M1963.4,483.3c3.9-8.4,7.9-17.4,12.2-26.8c4.3-9.2,9-17.1,14.1-23.4h-139.3c-6.9-13.3-11.6-27.7-13.7-42.7
			h231.5v-52.7H1837c2.2-14.1,6.7-27.6,13.3-40.1h236.8v-50.2h-264.2c-59.2,67.7-59.2,168.6,0,236.2h140.4V483.3z"/>
	</g>
	<g>
		<g>
			<path class="st3" d="M1476.5,787.8c-1.7-0.2-3.4-0.2-5.2,0c-21.9,0.9-32.8,1.3-54.7,1.9c-0.9,0-1.7,0-2.4,0
				c-8.8-0.6-14.2-5.1-15.9-13.3c-8.8-42.2-13.1-63.2-21.9-105c36.9-36.9,55.5-56.1,92.6-95.6c10.5-11.2,16.3-20.6,17.2-27.9
				c0.7-6-0.4-10.9-3.6-14.4c-2.6-3-5.8-4.5-9.9-4.9c-0.9,0-1.9,0-2.8,0c-7.9,0.6-17.4,6.7-28.3,18.4
				c-40.7,43.1-61.1,63.9-101.6,103.5c3.2-6.2,4.7-9.2,7.9-15.4c7.9-15.6,12.6-29.6,14.2-42c2.2-17.6-2.1-32.1-12.7-43.5
				c-10.1-10.9-23.6-16.5-40.3-17.4c-1.1,0-2.2-0.2-3.6-0.2c-24.7-0.6-47.4,8.2-68.2,26.1c-20.8,18-33,39.2-36.4,64.9
				c-2.2,17.2,0.8,32.8,9,46.5c8.2,13.7,19.3,21.2,33.4,22.5c0.4,0,0.8,0,1.1,0c6.7,0.4,12.7-1.3,18-5.1c5.4-3.9,8.6-9.4,9.6-16.1
				c1.1-8.1-2.4-13.9-10.5-17.6c-13.3-6.4-18.9-16.5-17.2-30.4c1.7-12.6,7.7-23.6,18.2-33.2c10.5-9.6,21.4-14.2,32.8-13.9
				c0.2,0,0.6,0,0.7,0c6,0.4,11.1,2.6,15.2,6.7c4.1,4.3,6,9.6,5.1,15.4c-0.9,6.7-5.8,18.9-14.6,36.2
				c-23.6,45.6-35.2,67.9-58.7,111.7c-1.1,2.1-1.7,3-2.6,4.9c-2.6,4.9-4.1,9.4-4.7,13.3c-0.6,4.9,0.6,9.2,3.9,13.1
				c3.2,3.9,7.3,6.2,12.6,6.6c0.4,0,0.6,0,0.9,0c12,0.8,22.5-7.5,31.3-24.7c18.7-35.6,28.1-53.8,46.9-90.6
				c11.1,52.3,16.5,78.6,27.6,131.1c3.2,14.2,7.3,23.6,12.9,28.1c4.5,3.7,12.2,6,22.9,6.6c2.4,0.2,4.9,0.2,7.5,0.2
				c22.3-0.2,33.6-0.4,56.1-1.1c9.9-0.4,18.2-3,24.4-8.1c6.2-5.1,9.9-11.8,11.1-20.4C1493.9,794.1,1488.5,788.5,1476.5,787.8z"/>
			<path class="st3" d="M1592.3,738.3c5.6-4.7,9-11.1,9.9-18.7c1.3-9.6-3.2-14.6-13.3-15.2c-1.9-0.2-3.9,0-6.2,0.2
				c-8.1,0.8-12.2,1.1-20.2,1.7c9.9-21,15-31.5,24.9-52.9c3.4-7.3,5.4-13.9,6.2-19.7c1.3-10.5-0.9-18.9-6.9-25.1
				c-4.7-4.7-10.7-7.3-18.2-7.9c-2.1-0.2-4.5,0-6.7,0.2c-10.9,1.1-23.1,7.3-36.6,18.6c-2.2-7.1-6.9-10.9-13.7-11.2
				c-0.9,0-2.1,0-3.2,0c-10.7,0.9-18.9,7.5-24.7,19.9c-18.4,38.2-27.7,57.2-46.1,94.5c-0.9,2.1-1.5,3-2.4,5.1
				c-2.4,4.9-3.9,9-4.3,12.6c-0.6,4.7,0.6,8.6,3.6,11.6c2.6,2.6,5.8,4.1,9.7,4.5c0.6,0,1.1,0,1.9,0c11.8-0.4,21.7-9,29.8-25.7
				c10.7-22.1,16.1-33.2,27-55.5c9.6-19.9,20.2-30.4,31.9-31.3c0.8,0,1.5,0,2.2,0c2.6,0.2,4.7,0.9,6.2,2.4c2.1,1.9,2.8,4.5,2.2,7.5
				c-0.4,2.6-1.7,6.2-3.9,10.7c-8.1,17.1-12.2,25.5-20.1,42.4c-4.3,8.8-6.6,15.2-7.1,19.5c-0.9,7.1,0.7,12.7,4.7,17.1
				c3.4,3.6,7.7,5.6,12.9,5.8c1.1,0,2.2,0,3.6,0c14.1-0.9,21.2-1.5,35.4-2.6C1579.4,745.8,1586.7,742.9,1592.3,738.3z"/>
			<g>
				<path class="st3" d="M1706.3,727.2c5.6-4.9,8.8-11.2,9.9-19.1c1.1-9.6-3-14.8-12.7-15.4c-1.9-0.2-3.9,0-6.4,0.2
					c-7.7,0.8-11.4,1.1-19.1,1.9c13.1-28.3,19.7-42.4,32.8-70.9c4.1-8.8,6.4-15.4,6.9-19.5c0.6-5.1-0.6-9.2-3.6-12.4
					c-2.4-2.6-5.2-3.9-8.6-4.1c-0.9,0-1.9,0-3,0.2c-11.6,1.3-20.8,9.6-27.9,24.7c-0.9,2.2-1.5,3.4-2.6,5.6
					c-15.2,32.4-22.7,48.7-37.9,80.8c-3.2,6.7-5.1,12.2-5.6,16.3c-0.9,7.9,1.1,13.9,6.2,18c3.7,3,8.6,4.7,14.8,4.9
					c2.4,0.2,5.1,0,7.7-0.2c10.7-0.9,16.1-1.5,27-2.4C1693.4,734.9,1700.7,732.1,1706.3,727.2z"/>
				<path class="st3" d="M1737.1,530.5c-3-3.7-6.9-5.6-11.6-6c-1.3,0-2.6,0-3.9,0.2c-6.6,0.8-12.4,4.1-17.6,9.9s-8.2,12.4-9.2,19.9
					c-0.9,7.5,0.6,13.5,4.5,18.2c3.2,3.7,7.1,5.6,11.8,6c1.3,0,2.6,0,3.9-0.2c6.6-0.8,12.4-4.1,17.6-9.9s8.2-12.4,9.4-20.1
					C1742.5,541.4,1741,535.2,1737.1,530.5z"/>
			</g>
			<path class="st3" d="M1804.4,794.5c3.9-8.2,5.8-12.4,9.6-20.8c11.2-0.9,16.9-1.3,28.1-2.2c9-0.8,16.1-3.6,21.7-8.4
				s9-11.4,9.9-19.5c1.3-9.9-3.4-15.2-13.5-15.7c-1.7-0.2-3.7,0-5.8,0.2c-8.1,0.8-12.2,0.9-20.2,1.7c23.1-50.1,34.7-75.4,57.7-126
				c3.9-8.8,6.2-15.2,6.7-19.3c0.6-5.2-0.6-9.4-3.4-12.7c-2.2-2.6-5.2-4.1-8.8-4.3c-0.8,0-1.7,0-2.6,0c-9.7,0.9-17.8,7.1-24.6,18.2
				c-4.5-7.9-11.6-12.2-21.4-12.7c-2.4-0.2-5.1,0-7.7,0.2c-18.9,2.1-37.3,14.2-55.1,36c-17.8,21.7-28.3,45-31.3,69.7
				c-1.9,15.4,0.2,27.6,6.6,36.4c5.2,7.3,12.4,11.2,21.4,11.8c1.9,0.2,3.9,0,6.2-0.2c6.4-0.6,13.3-3.7,21-9.4
				c-2.8,6.4-4.3,9.4-7.1,15.7c-14.6,1.3-21.9,2.1-36.4,3.4c-20.2,1.9-36.7,7.3-49.7,15.9c-10.5,7.1-19.1,16.1-26.1,27
				c-6.9,10.9-11.1,22.3-12.6,34.3c-2.2,18.4,1.5,33,11.6,44.4c8.2,9.4,19.1,14.4,32.2,15.2c2.8,0.2,5.8,0.2,8.8,0
				C1752.8,871,1781.1,844.9,1804.4,794.5z M1796.9,685c-8.6-0.6-12-6.7-10.5-18.9c1.5-12,6.6-23.8,15.4-35.2
				c8.8-11.6,17.2-17.8,25.3-18.7c1.1-0.2,2.2-0.2,3.4,0c3,0.2,5.4,1.1,7.5,2.8c2.6,2.2,3.7,5.4,3.2,9.4c-0.2,2.1-1.1,4.9-2.6,8.2
				c-7.5,16.1-11.2,24.2-18.6,40.3c-3.4,7.1-9.7,11.2-19.5,12.2C1799.1,685,1798,685,1796.9,685z M1723.8,831.1c-0.9,0-1.9,0-2.8,0
				c-4.3-0.2-7.9-2.1-10.7-5.2c-3.4-3.9-4.5-9-3.7-15c1.1-8.8,4.9-15.9,11.1-21.4c6.2-5.4,14.4-8.4,24.6-9.4
				c11.6-0.9,17.6-1.5,29.2-2.6c-9.6,19.3-17.8,33-24.9,40.9C1739.5,826,1732,830.3,1723.8,831.1z"/>
			<path class="st3" d="M2053,706.6c5.6-4.7,8.8-11.1,9.9-19.3c1.3-11.1-3.9-16.9-15.7-17.6c-1.1,0-2.2,0-3.4,0
				c-7.7,0.2-11.6,0.2-19.5,0.6c9.7-21.4,14.6-32.1,24.2-53.4c3.7-8.1,6-15.4,6.7-22.1c1.3-11.2-0.9-20.2-6.9-27.2
				c-5.1-6-12-9.2-20.6-9.6c-1.5,0-3,0-4.7,0c-7.7,0.4-17.8,4.7-30.6,13.1c17.4-38.4,26.2-57.6,43.7-96.2c3.9-8.6,6.2-15.2,6.7-19.5
				c0.6-5.2-0.4-9.6-3.4-13.1c-2.4-3-5.4-4.5-9.2-4.9c-0.8,0-1.3,0-2.1,0c-11.1,0.8-21.2,10.7-29.8,29.8
				c-40.1,88.5-60.2,132.6-100.3,220.1c-0.9,2.2-1.5,3.4-2.4,5.4c-2.2,5.2-3.7,9.6-4.1,13.3c-0.6,4.9,0.6,9,3.4,12.2
				c2.4,2.6,5.4,4.1,9,4.3c0.8,0,1.5,0,2.2,0c11.8-0.8,21.7-10.1,29.8-27.9c10.3-22.5,15.4-33.6,25.7-56.1
				c10.7-23.6,21.9-36,33.4-36.6c0.9,0,1.9,0,2.6,0c6.6,0.4,9.6,3.9,8.6,10.7c-0.4,3-1.9,7.3-4.5,13.1
				c-8.4,18.4-12.7,27.7-21.2,46.1c-3.6,7.7-5.6,13.9-6.2,18.6c-0.9,7.1,0.8,12.9,5.1,17.6c3.7,4.1,8.4,6.2,14.4,6.6
				c0.9,0,1.9,0,2.8,0c13.5-0.6,20.4-0.7,33.9-0.9C2040.2,713.5,2047.5,711.1,2053,706.6z"/>
			<path class="st3" d="M2195.5,560.3c-0.2,0-0.4,0-0.6,0c-2.1-0.2-3.2-0.2-5.2-0.2c3.2-6.4,4.9-9.6,8.2-15.9
				c3.9-7.7,6.2-14.2,6.7-19.5c0.6-5.2-0.4-9.9-3.4-13.9c-2.8-3.7-6.4-5.8-10.7-6c-0.2,0-0.4,0-0.4,0c-11.2-0.4-20.6,7.1-27.7,22.1
				c-0.9,2.2-1.5,3.4-2.4,5.4c-4.9,10.7-7.3,15.9-12.2,26.6c-3.2,0-4.7,0-7.7,0c-9,0-16.3,2.2-21.7,6.9c-5.6,4.7-8.8,11.2-9.9,19.7
				c-1.3,11.1,3.6,16.9,14.6,17.6c0.6,0,1.3,0,2.1,0c0.9,0,1.5,0,2.4,0c-10.9,23.6-16.3,35.4-27.2,59.1c-1.7,3.6-2.6,5.4-4.3,9
				c-2.8,6-4.5,11.6-5.1,16.7c-0.9,8.1,0.8,14.4,5.1,19.3c4.1,4.5,9.9,6.7,17.6,7.3c0.6,0,1.1,0,1.9,0c12,0.2,18,0.4,30.2,0.9
				c9,0.4,16.1-1.5,21.7-6c5.6-4.3,8.8-10.7,9.9-18.9c1.5-11.8-4.7-18.4-18.2-19.1c-0.2,0-0.6,0-0.9,0c-7.5-0.4-11.2-0.4-18.7-0.6
				c12.4-26.6,18.4-39.7,30.7-66.4c4.9,0.2,7.3,0.4,12.2,0.6c8.8,0.4,16.1-1.5,21.7-5.8c5.6-4.3,9-10.7,9.9-18.9
				C2215.3,567.8,2209.2,561.1,2195.5,560.3z"/>
			<path class="st3" d="M2222.8,720.1c14.1,1.3,21,1.9,35.1,3.6c1.3,0.2,2.6,0.2,3.7,0.4c14.1,0.8,26.4-3.2,37.5-12.4
				c11.8-9.9,18.9-23.6,21-40.9c1.9-15.6-0.9-32.4-8.6-50.6c-3-7.1-4.5-10.7-7.5-17.6c-4.1-9.7-5.6-18.9-4.7-27.6
				c0.4-2.2,0.8-5.1,1.7-7.9c1.1-3.9,1.9-6.7,2.1-7.9c0.6-4.9-0.4-9.2-3.2-13.1c-2.6-3.9-6.2-6-10.5-6.6c-0.2,0-0.6,0-0.8,0
				c-7.9-0.4-15.2,5.6-22.1,18c-11.6,21.4-17.4,32.1-29.1,53.6c-4.1,7.7-6.6,13.9-7.1,18.7c-0.6,5.1,0.6,9.7,3.7,13.9
				s6.9,6.6,11.6,6.9c0.2,0,0.4,0,0.6,0c8.8,0.6,16.3-5.4,22.9-18.2c1.7-3.6,2.6-5.4,4.3-9.2c2.1,7.5,3.2,11.1,5.2,18.6
				c2.1,7.1,2.8,13.3,2.3,18.4c-1.7,13.1-9.4,19.1-23.4,18.2c-0.8,0-1.5-0.2-2.4-0.2c-7.7-0.8-11.6-1.1-19.5-1.9
				c-0.6,0-0.9,0-1.5-0.2c-8.2-0.6-15,1.3-20.2,5.4c-5.6,4.3-9,10.7-9.9,18.9C2202.2,712.4,2208.6,718.8,2222.8,720.1z"/>
		</g>
	</g>
</g>
</svg>
