<?xml version="1.0" encoding="iso-8859-1"?>
<!-- Generator: Adobe Illustrator 19.0.0, SVG Export Plug-In . SVG Version: 6.00 Build 0)  -->
<svg version="1.1" id="Layer_1" xmlns="http://www.w3.org/2000/svg" xmlns:xlink="http://www.w3.org/1999/xlink" x="0px" y="0px"
	 viewBox="0 0 502.033 502.033" style="enable-background:new 0 0 502.033 502.033;" xml:space="preserve">
<g>
	<path style="fill:#50A5DC;" d="M382.124,222.176l41.36,71.626c5.601,9.699,19.601,9.699,25.202,0l41.36-71.626
		c5.601-9.701-1.399-21.827-12.601-21.827h-82.719C383.523,200.349,376.522,212.476,382.124,222.176z"/>
	<g>
		<g>
			<path style="fill:#C7EBFF;" d="M119.909,279.857l-41.36-71.626c-5.601-9.699-19.601-9.699-25.202,0l-41.36,71.626
				c-5.601,9.701,1.399,21.827,12.601,21.827h82.719C118.51,301.684,125.511,289.557,119.909,279.857z"/>
			<g>
				<path d="M10.016,147.547h36.711c5.523,0,10-4.478,10-10s-4.477-10-10-10H10.016c-5.523,0-10,4.478-10,10
					S4.494,147.547,10.016,147.547z"/>
				<path d="M457.345,298.803l41.36-71.626c4.438-7.687,4.438-16.864,0.001-24.552c-4.438-7.687-12.386-12.275-21.262-12.275h-31.36
					v-52.803c0-5.522-4.477-10-10-10H92.337c-5.523,0-10,4.478-10,10s4.477,10,10,10h333.747v42.803h-31.36
					c-8.876,0-16.824,4.589-21.262,12.275c-4.438,7.688-4.438,16.865,0.001,24.552v0.001l41.359,71.624
					c4.438,7.687,12.387,12.275,21.262,12.275S452.908,306.488,457.345,298.803z M436.084,291.077c-0.981,0-2.798-0.296-3.941-2.276
					l-41.359-71.625c-1.143-1.98-0.491-3.702,0-4.551c0.491-0.85,1.655-2.275,3.941-2.275h82.72c2.286,0,3.45,1.426,3.941,2.275
					s1.143,2.571,0,4.551l-41.36,71.626C438.882,290.781,437.065,291.077,436.084,291.077z"/>
				<path d="M413.835,354.486H75.949v-42.803h31.36c8.876,0,16.824-4.589,21.262-12.275c4.438-7.688,4.438-16.865-0.001-24.552
					v-0.001l-41.359-71.624c-4.438-7.687-12.387-12.275-21.262-12.275s-16.823,4.589-21.26,12.274l-41.36,71.626
					c-4.438,7.687-4.438,16.864-0.001,24.552c4.438,7.687,12.386,12.275,21.262,12.275h31.36v52.803c0,5.522,4.477,10,10,10h347.886
					c5.523,0,10-4.478,10-10S419.358,354.486,413.835,354.486z M20.648,289.408c-0.491-0.85-1.143-2.571,0-4.551l41.36-71.626
					c1.143-1.979,2.959-2.275,3.94-2.275s2.798,0.296,3.941,2.276l41.359,71.624c1.144,1.98,0.491,3.702,0,4.552
					s-1.655,2.275-3.941,2.275H24.589C22.303,291.683,21.139,290.258,20.648,289.408z"/>
				<path d="M492.016,354.486h-33.683c-5.523,0-10,4.478-10,10s4.477,10,10,10h33.683c5.523,0,10-4.478,10-10
					S497.539,354.486,492.016,354.486z"/>
			</g>
		</g>
	</g>
</g>
<g>
</g>
<g>
</g>
<g>
</g>
<g>
</g>
<g>
</g>
<g>
</g>
<g>
</g>
<g>
</g>
<g>
</g>
<g>
</g>
<g>
</g>
<g>
</g>
<g>
</g>
<g>
</g>
<g>
</g>
</svg>
