<?xml version="1.0" encoding="utf-8"?>
<!-- Generator: Adobe Illustrator 25.2.3, SVG Export Plug-In . SVG Version: 6.00 Build 0)  -->
<svg version="1.1" id="Layer_1" xmlns="http://www.w3.org/2000/svg" xmlns:xlink="http://www.w3.org/1999/xlink" x="0px" y="0px"
	 viewBox="0 0 1000 1000" style="enable-background:new 0 0 1000 1000;" xml:space="preserve">
<style type="text/css">
	.st0{fill:#12C7BA;}
</style>
<g>
	<path class="st0" d="M17.5,929.5l41.8-152.8c4.6-16.8,2.8-34.6-5.1-50.1C18.6,656.6,0,579.1,0,499.7C0.2,224.2,224.4,0,499.9,0
		c133.7,0,259.2,52.1,353.6,146.6c94.4,94.5,146.3,220.1,146.3,353.6C999.6,775.8,775.4,1000,499.9,1000
		c-75.3,0-149.5-17-216.9-49.5c-14.9-7.2-32-8.8-48-4.6L75.2,987.8C39.9,997.1,7.9,964.7,17.5,929.5z M245.6,855.9
		c17.1-4.5,35.3-2.4,50.8,6c62.3,33.8,124.2,53.6,203.3,53.7c229,0,415.5-186.3,415.6-415.4C915.4,270.6,729.8,84.5,500,84.4
		c-229.1,0-415.5,186.3-415.6,415.4c0,83.2,21.7,147.8,58.9,212.7c9.2,16,11.5,35.1,6.6,53l-26.2,95.7c-3.5,12.8,8.1,24.5,20.9,21.2
		L245.6,855.9z"/>
	<path class="st0" d="M786.7,341.6c-20.2,9-42,15-64.8,17.7c23.3-13.9,41.2-36,49.6-62.4c-21.8,12.9-45.9,22.3-71.6,27.4
		c-20.5-21.9-49.9-35.6-82.3-35.6c-72.8,0-126.3,67.9-109.9,138.4c-93.7-4.7-176.8-49.6-232.4-117.8c-29.5,50.7-15.3,117,34.9,150.5
		c-18.5-0.6-35.9-5.7-51-14.1c-1.2,52.2,36.2,101.1,90.4,112c-15.9,4.3-33.3,5.3-50.9,1.9c14.3,44.8,56,77.4,105.3,78.3
		c-47.4,37.2-107.1,53.8-166.9,46.7c49.9,32,109.2,50.7,172.8,50.7c209.4,0,327.6-176.8,320.5-335.4
		C752.5,384.1,771.6,364.2,786.7,341.6z"/>
</g>
</svg>
