<?xml version="1.0" encoding="utf-8"?>
<!-- Generator: Adobe Illustrator 25.2.1, SVG Export Plug-In . SVG Version: 6.00 Build 0)  -->
<svg version="1.1" id="Layer_1" xmlns="http://www.w3.org/2000/svg" xmlns:xlink="http://www.w3.org/1999/xlink" x="0px" y="0px"
	 viewBox="0 0 1000 1000" style="enable-background:new 0 0 1000 1000;" xml:space="preserve">
<style type="text/css">
	.st0{fill:url(#SVGID_1_);}
	.st1{fill:url(#SVGID_2_);}
	.st2{fill:url(#SVGID_3_);}
	.st3{fill:url(#SVGID_4_);}
	.st4{fill:url(#SVGID_5_);}
	.st5{fill:url(#SVGID_6_);}
	.st6{fill:url(#SVGID_7_);}
	.st7{fill:url(#SVGID_8_);}
</style>
<g>
	<radialGradient id="SVGID_1_" cx="507.3689" cy="499.8409" r="468.8941" gradientUnits="userSpaceOnUse">
		<stop  offset="0" style="stop-color:#C49B5B"/>
		<stop  offset="0.4658" style="stop-color:#C29A5A"/>
		<stop  offset="0.6335" style="stop-color:#BB9458"/>
		<stop  offset="0.7531" style="stop-color:#B08B53"/>
		<stop  offset="0.8498" style="stop-color:#9F7D4D"/>
		<stop  offset="0.9317" style="stop-color:#896C45"/>
		<stop  offset="1" style="stop-color:#70583C"/>
	</radialGradient>
	<circle class="st0" cx="507.4" cy="499.8" r="468.9"/>
	<radialGradient id="SVGID_2_" cx="499.8636" cy="499.8409" r="500.1364" gradientUnits="userSpaceOnUse">
		<stop  offset="0" style="stop-color:#999999"/>
		<stop  offset="1" style="stop-color:#EFEFEF"/>
	</radialGradient>
	<path class="st1" d="M499.9-0.3C224.1-0.3-0.3,224.1-0.3,499.8S224.1,1000,499.9,1000S1000,775.6,1000,499.8S775.6-0.3,499.9-0.3z
		 M913.5,485.7H646.8c-3-32-16.3-61-36.4-83.7l188.2-188.2C866.9,285,909.9,380.4,913.5,485.7z M597.7,389.3
		c-22.5-19.9-51.1-33.1-82.7-36.3V86.3C619.9,90,715,133,786,201L597.7,389.3z M484.8,352.9c-31,3.1-59.1,15.9-81.4,35.2
		L215.1,199.8C285.9,132.5,380.5,90,484.8,86.3V352.9z M402,610.4c22.5,19.9,51.1,33.1,82.7,36.3v266.7
		c-104.9-3.8-200-46.8-271-114.8L402,610.4z M515,646.8c32.2-3.3,61.4-16.9,84.1-37.5l188.2,188.2c-71.1,68.7-166.7,112.2-272.3,116
		V646.8z M202.3,212.5l188.2,188.2c-20.8,22.9-34.5,52.5-37.6,85.1H86.2C89.8,379.8,133.4,283.8,202.3,212.5z M86.3,515.9h266.8
		c3.4,31.2,16.5,59.5,36.2,81.7L201,785.9C133.3,715.2,90.3,620.5,86.3,515.9z M799.9,784.6L611.6,596.3
		c19.1-22.1,31.7-49.8,35-80.4h266.8C909.4,619.8,867,714,799.9,784.6z"/>
	<radialGradient id="SVGID_3_" cx="499.8636" cy="499.8409" r="489.0079" gradientUnits="userSpaceOnUse">
		<stop  offset="0" style="stop-color:#EFEFEF"/>
		<stop  offset="0.4636" style="stop-color:#EDEDED"/>
		<stop  offset="0.6305" style="stop-color:#E6E6E6"/>
		<stop  offset="0.7496" style="stop-color:#DBDBDB"/>
		<stop  offset="0.8458" style="stop-color:#CACACA"/>
		<stop  offset="0.9272" style="stop-color:#B4B4B4"/>
		<stop  offset="0.9991" style="stop-color:#999999"/>
		<stop  offset="1" style="stop-color:#999999"/>
	</radialGradient>
	<path class="st2" d="M499.9,988.8c-269.6,0-489-219.4-489-489s219.4-489,489-489s489,219.4,489,489S769.5,988.8,499.9,988.8z
		 M499.9,74.8c-234.4,0-425,190.7-425,425s190.7,425,425,425s425-190.7,425-425S734.2,74.8,499.9,74.8z"/>
	<radialGradient id="SVGID_4_" cx="499.8636" cy="499.8409" r="133.3535" gradientUnits="userSpaceOnUse">
		<stop  offset="0" style="stop-color:#EFEFEF"/>
		<stop  offset="0.4636" style="stop-color:#EDEDED"/>
		<stop  offset="0.6305" style="stop-color:#E6E6E6"/>
		<stop  offset="0.7496" style="stop-color:#DBDBDB"/>
		<stop  offset="0.8458" style="stop-color:#CACACA"/>
		<stop  offset="0.9272" style="stop-color:#B4B4B4"/>
		<stop  offset="0.9991" style="stop-color:#999999"/>
		<stop  offset="1" style="stop-color:#999999"/>
	</radialGradient>
	<circle class="st3" cx="499.9" cy="499.8" r="133.4"/>
	<g>
		<g>
			<radialGradient id="SVGID_5_" cx="499.8636" cy="499.8409" r="111.7474" gradientUnits="userSpaceOnUse">
				<stop  offset="0.7299" style="stop-color:#1E1D48"/>
				<stop  offset="1" style="stop-color:#4949AD"/>
			</radialGradient>
			<circle class="st4" cx="499.9" cy="499.8" r="111.7"/>
			<radialGradient id="SVGID_6_" cx="499.8636" cy="499.8409" r="104.9783" gradientUnits="userSpaceOnUse">
				<stop  offset="0" style="stop-color:#4949AD"/>
				<stop  offset="1" style="stop-color:#1E1D48"/>
			</radialGradient>
			<circle class="st5" cx="499.9" cy="499.8" r="105"/>
		</g>
		<g>
			<radialGradient id="SVGID_7_" cx="501.7495" cy="501.6535" r="62.1865" gradientUnits="userSpaceOnUse">
				<stop  offset="0" style="stop-color:#12C7BA"/>
				<stop  offset="1" style="stop-color:#94FFF2"/>
			</radialGradient>
			<polygon class="st6" points="433.6,557.3 498.1,501.6 433.6,446 569.9,446 505.4,501.6 569.9,557.3 			"/>
			<radialGradient id="SVGID_8_" cx="501.7495" cy="501.058" r="55.9358" gradientUnits="userSpaceOnUse">
				<stop  offset="0" style="stop-color:#94FFF2"/>
				<stop  offset="1" style="stop-color:#12C7BA"/>
			</radialGradient>
			<polygon class="st7" points="563.5,448.4 440,448.4 501.7,501.6 440,554.9 563.5,554.9 501.8,501.6 			"/>
		</g>
	</g>
</g>
</svg>
